<svg width="17" height="17" viewBox="0 0 17 17" fill="none" xmlns="http://www.w3.org/2000/svg">
<path d="M8.5 0C3.80588 0 0 3.80588 0 8.5C0 13.1941 3.80588 17 8.5 17C13.1941 17 17 13.1941 17 8.5C17 3.80588 13.1941 0 8.5 0ZM7.56925 3.33979C9.89896 3.33979 11.7881 5.22396 11.7881 7.54942C11.7881 7.71455 11.7225 7.87291 11.6057 7.98968C11.489 8.10644 11.3306 8.17204 11.1655 8.17204C11.0003 8.17204 10.842 8.10644 10.7252 7.98968C10.6084 7.87291 10.5428 7.71455 10.5428 7.54942C10.5419 6.76165 10.2281 6.00651 9.67047 5.45007C9.11283 4.89363 8.35702 4.58146 7.56925 4.58221C7.48518 4.58622 7.40116 4.57313 7.3223 4.54373C7.24343 4.51432 7.17135 4.46921 7.11043 4.41113C7.04951 4.35305 7.00102 4.28321 6.96788 4.20584C6.93474 4.12846 6.91766 4.04517 6.91766 3.961C6.91766 3.87683 6.93474 3.79354 6.96788 3.71616C7.00102 3.63879 7.04951 3.56895 7.11043 3.51087C7.17135 3.45279 7.24343 3.40768 7.3223 3.37827C7.40116 3.34887 7.48518 3.33578 7.56925 3.33979ZM3.96242 10.0718C3.79753 10.0718 3.63938 10.0064 3.52265 9.88993C3.40593 9.77347 3.34017 9.61547 3.33979 9.45058C3.34026 8.89706 3.44975 8.34904 3.66203 7.83784C3.87431 7.32663 4.1852 6.86225 4.57697 6.47121C4.96873 6.08017 5.43369 5.77013 5.94529 5.5588C6.45688 5.34747 7.0051 5.23898 7.55862 5.23954C7.64321 5.23459 7.72792 5.24698 7.80755 5.27594C7.88717 5.3049 7.96004 5.34983 8.02168 5.40797C8.08332 5.46611 8.13243 5.53623 8.166 5.61403C8.19956 5.69183 8.21688 5.77566 8.21688 5.8604C8.21688 5.94513 8.19956 6.02896 8.166 6.10676C8.13243 6.18456 8.08332 6.25468 8.02168 6.31282C7.96004 6.37096 7.88717 6.41589 7.80755 6.44485C7.72792 6.47381 7.64321 6.4862 7.55862 6.48125C6.77067 6.48069 6.01475 6.79311 5.45711 7.34982C4.89948 7.90652 4.58579 8.66192 4.58504 9.44987C4.58467 9.61482 4.51893 9.7729 4.40222 9.88947C4.28552 10.006 4.12737 10.0716 3.96242 10.0718ZM9.44137 13.6609C7.11096 13.6609 5.22183 11.7753 5.22183 9.45058C5.22947 9.29059 5.2984 9.13968 5.41433 9.02915C5.53026 8.91862 5.68428 8.85696 5.84446 8.85696C6.00463 8.85696 6.15866 8.91862 6.27459 9.02915C6.39052 9.13968 6.45945 9.29059 6.46708 9.45058C6.46755 9.84071 6.54485 10.2269 6.69457 10.5872C6.8443 10.9474 7.06351 11.2747 7.3397 11.5502C7.61589 11.8257 7.94364 12.0441 8.30425 12.193C8.66485 12.3419 9.05125 12.4183 9.44137 12.4178C9.52606 12.4128 9.61086 12.4252 9.69057 12.4542C9.77029 12.4832 9.84324 12.5282 9.90495 12.5864C9.96666 12.6446 10.0158 12.7148 10.0494 12.7927C10.083 12.8706 10.1004 12.9545 10.1004 13.0394C10.1004 13.1242 10.083 13.2081 10.0494 13.286C10.0158 13.3639 9.96666 13.4341 9.90495 13.4923C9.84324 13.5505 9.77029 13.5955 9.69057 13.6245C9.61086 13.6535 9.52606 13.6659 9.44137 13.6609ZM9.44137 11.7605C9.27655 11.7605 9.11843 11.6952 9.00161 11.5789C8.88479 11.4626 8.81879 11.3048 8.81804 11.14C8.81842 10.9749 8.88425 10.8167 9.00111 10.7001C9.11797 10.5835 9.2763 10.518 9.44137 10.518C10.2293 10.5188 10.9853 10.2065 11.5431 9.64998C12.1009 9.0934 12.4147 8.33808 12.4157 7.55013C12.4157 7.38499 12.4813 7.22663 12.598 7.10986C12.7148 6.9931 12.8732 6.9275 13.0383 6.9275C13.2034 6.9275 13.3618 6.9931 13.4786 7.10986C13.5953 7.22663 13.6609 7.38499 13.6609 7.55013C13.6609 9.87488 11.7718 11.7605 9.44137 11.7605Z" fill="#6E9EC1"/>
</svg>
