<?xml version="1.0" encoding="utf-8"?>
<!-- Svg Vector Icons : http://www.onlinewebfonts.com/icon -->
<!DOCTYPE svg PUBLIC "-//W3C//DTD SVG 1.1//EN" "http://www.w3.org/Graphics/SVG/1.1/DTD/svg11.dtd">
<svg version="1.1" xmlns="http://www.w3.org/2000/svg" xmlns:xlink="http://www.w3.org/1999/xlink" x="0px" y="0px"
    viewBox="0 0 1000 1000" enable-background="new 0 0 1000 1000" xml:space="preserve">
    <metadata> Svg Vector Icons : http://www.onlinewebfonts.com/icon </metadata>
    <g>
        <path
            d="M489.5,777.2H548c0,0,17.7-1.9,26.8-11.6c8.3-8.9,8.1-25.7,8.1-25.7s-1.1-78.6,35.4-90.2c35.9-11.4,82.1,76,131.1,109.5c37.1,25.5,65.2,19.8,65.2,19.8l130.8-1.8c0,0,68.5-4.2,36-58c-2.7-4.4-19-39.8-97.3-112.6c-82.1-76.2-71.1-63.8,27.8-195.5c60.2-80.3,84.2-129.2,76.7-150.3C981.3,240.8,937,246,937,246l-147.4,1c0,0-11-1.5-19.1,3.3c-7.9,4.7-13,15.8-13,15.8s-23.4,62.1-54.5,114.9c-65.6,111.5-91.8,117.3-102.5,110.4c-25-16.1-18.8-64.8-18.8-99.3c0-107.9,16.4-153-31.9-164.6c-16-3.9-27.8-6.4-68.8-6.9c-52.5-0.5-97.1,0.2-122.2,12.5c-16.8,8.2-29.7,26.5-21.9,27.6c9.8,1.2,31.8,5.9,43.6,21.9c15.1,20.5,14.5,66.6,14.5,66.6S404,476.3,375,492.1c-19.8,10.8-47.1-11.3-105.6-112.4c-30-51.8-52.6-109-52.6-109s-4.4-10.6-12.3-16.4c-9.4-7-22.6-9.1-22.6-9.1L42,246c0,0-21.1,0.6-28.8,9.8c-6.9,8.1-0.6,24.9-0.6,24.9s109.6,256.5,233.8,385.7C360.2,785,489.5,777.2,489.5,777.2L489.5,777.2z"
            fill="#013485" />
    </g>
</svg>