<svg width="35" height="21" viewBox="0 0 35 21" fill="none" xmlns="http://www.w3.org/2000/svg">
<path d="M6.54648 1.04718C6.01654 0.812732 3.40554 0.885623 2.01766 0.924369C1.75562 0.931684 1.53718 0.937783 1.38458 0.940365L0.0805284 2.169C0.197499 2.54448 0.426369 3.02665 0.636197 3.4687C0.72814 3.6624 0.816427 3.8484 0.890041 4.01434C2.37923 7.37627 4.70729 11.5035 6.75874 14.2999M6.54648 1.04718L6.24166 1.73244C6.24412 1.73353 6.24659 1.73467 6.24908 1.73585M6.54648 1.04718L6.24305 1.73306C6.24676 1.7347 6.24885 1.73559 6.24908 1.73585M6.54648 1.04718C7.151 1.31608 7.48093 2.12912 7.88398 3.12235C8.06056 3.55748 8.25117 4.02721 8.48505 4.50091M6.24908 1.73585C6.24909 1.73586 6.2491 1.73588 6.2491 1.73589C6.24883 1.73668 6.20209 1.72187 6.07917 1.70465C5.94813 1.68629 5.77608 1.67104 5.56768 1.65947C5.1519 1.63637 4.63411 1.63012 4.09378 1.63315C3.3555 1.63727 2.61819 1.65792 2.05957 1.67356C1.79087 1.68108 1.56351 1.68744 1.39727 1.69026L1.39646 1.69027C1.18988 1.69355 1.02181 1.70431 0.887975 1.72697C0.830648 1.73667 0.786435 1.74748 0.753196 1.75795M6.24908 1.73585C6.39574 1.80534 6.5903 2.02381 6.87021 2.64434C6.97314 2.87252 7.0734 3.11954 7.18558 3.39593C7.21803 3.47589 7.25148 3.55831 7.28628 3.64344C7.43772 4.0139 7.60852 4.41967 7.81246 4.83275L8.48505 4.50091M0.753196 1.75795C0.747872 1.71325 0.750879 1.69388 0.750774 1.69386C0.750758 1.69386 0.750666 1.69433 0.750456 1.69524C0.741577 1.73376 0.709057 1.77161 0.692657 1.78252C0.692557 1.78258 0.705637 1.77403 0.740111 1.76224C0.744269 1.76082 0.748629 1.75939 0.753196 1.75795ZM0.753196 1.75795C0.758011 1.79836 0.769637 1.85949 0.796534 1.94576L0.796586 1.94593C0.864514 2.16398 0.987432 2.44955 1.1381 2.77426C1.19057 2.88734 1.24821 3.00885 1.30623 3.13117C1.40217 3.33341 1.49916 3.53788 1.57561 3.71021L1.57578 3.71059C3.04638 7.03055 5.34842 11.1094 7.36338 13.8561M7.36338 13.8561L6.75874 14.2999M7.36338 13.8561C7.36341 13.8562 7.36344 13.8562 7.36347 13.8562L6.75874 14.2999M7.36338 13.8561C9.61492 16.924 12.8445 19.5031 16.8314 19.5363C16.8314 19.5363 16.8314 19.5363 16.8314 19.5363L16.8252 20.2863L6.75874 14.2999M8.48505 4.50091L7.81256 4.83295M8.48505 4.50091L7.81256 4.83295M7.81256 4.83295C8.08416 5.38344 9.02401 7.22878 10.0455 8.67233C10.5413 9.3729 11.1239 10.0789 11.7151 10.4494C12.0133 10.6363 12.4301 10.8115 12.8934 10.7163C13.3892 10.6144 13.7109 10.2539 13.9052 9.85997L13.9055 9.85945C14.1098 9.4446 14.2327 8.81386 14.3109 8.17772C14.3927 7.51123 14.4366 6.73578 14.4396 5.96723C14.4427 5.19945 14.4051 4.42139 14.3192 3.75137C14.2381 3.11964 14.101 2.46354 13.8381 2.03028C13.6371 1.69815 13.2956 1.33305 12.8868 1.11032C12.87 1.10109 12.8533 1.09219 12.8366 1.0836C12.9555 1.03706 13.0944 0.99394 13.2561 0.955271C13.9092 0.799074 14.7054 0.772922 15.4471 0.763548L15.448 0.763536M7.81256 4.83295L15.448 0.763536M33.5846 19.4144L33.5854 19.4141C33.7704 19.3451 33.8107 19.278 33.8189 19.2632C33.8304 19.2427 33.8577 19.1779 33.8342 19.0186C33.782 18.6649 33.5243 18.144 33.0766 17.5174C32.2058 16.2986 30.8927 15.0522 30.3721 14.593L33.5846 19.4144ZM33.5846 19.4144C33.4905 19.4496 33.2386 19.4962 32.8076 19.5301M33.5846 19.4144L32.8076 19.5301M28.5464 10.4139L28.5825 10.3617L30.241 7.96238L30.2672 7.92451L30.2978 7.89012C30.5052 7.65724 31.0524 6.89673 31.6332 6.05334C32.2036 5.22496 32.7552 4.39161 32.9616 4.04784C32.9728 4.02921 32.9841 4.01043 32.9954 3.99153C33.3252 3.44192 33.7201 2.78377 33.8757 2.23002C33.9569 1.94097 33.9318 1.8143 33.9206 1.78646C33.9205 1.78622 33.9205 1.78606 33.9206 1.78591C33.9206 1.78528 33.9207 1.78473 33.9134 1.7794C33.8986 1.7685 33.8449 1.73525 33.7162 1.70969L33.716 1.70966C33.551 1.67685 33.2417 1.65292 32.8065 1.64312C32.3858 1.63364 31.8921 1.6379 31.3832 1.64841C30.9249 1.65788 30.4425 1.67294 29.9991 1.68677C29.4851 1.70282 29.0234 1.71722 28.7124 1.7194L28.7121 1.7194C28.4755 1.72096 28.2803 1.71997 28.1146 1.71912C27.8456 1.71775 27.6542 1.71678 27.4888 1.72775C27.3638 1.73605 27.307 1.74959 27.2856 1.7568C27.2774 1.76589 27.2582 1.78959 27.2284 1.84037C27.1844 1.91514 27.1316 2.02383 27.0601 2.19092C26.9954 2.34228 26.9239 2.52119 26.8349 2.74378L26.8083 2.8104C26.7081 3.06089 26.5898 3.35522 26.446 3.69686L26.4459 3.69715C26.0523 4.63067 25.2649 6.16241 24.4195 7.52405C23.9964 8.20557 23.5477 8.86237 23.1161 9.38733C22.9003 9.64974 22.6795 9.89056 22.4598 10.0882C22.2475 10.2791 21.9983 10.4646 21.7233 10.5718L28.5464 10.4139ZM28.5464 10.4139L28.5196 10.4714M28.5464 10.4139L28.5196 10.4714M28.5196 10.4714C28.2767 10.9926 28.1951 11.5005 28.3114 11.9988M28.5196 10.4714L28.3114 11.9988M15.448 0.763536C15.5361 0.762324 15.6293 0.760724 15.7269 0.75905C16.3547 0.74828 17.1605 0.734457 17.9035 0.801255C18.3322 0.8398 18.7021 0.902509 18.9816 0.992838C19.1198 1.03748 19.2183 1.08336 19.2843 1.12448C19.3461 1.16295 19.3638 1.18743 19.3645 1.18825M15.448 0.763536L19.3645 1.18825M11.9914 0.806901L11.5063 1.35955L12.0289 0.83311C12.0194 0.825954 12.0098 0.819211 12.0004 0.812863C11.9974 0.810815 11.9944 0.808828 11.9914 0.806901ZM11.9914 0.806901L12.0007 0.796376C11.9819 0.788597 11.9652 0.78181 11.9504 0.775841C11.9372 0.770509 11.9257 0.765921 11.9159 0.762042C11.9154 0.762453 11.9149 0.762864 11.9144 0.763276C11.9173 0.764651 11.9203 0.766127 11.9234 0.767701C11.9398 0.775954 11.9637 0.788799 11.9914 0.806901ZM32.8076 19.5301C32.4042 19.5618 31.9189 19.5778 31.4124 19.5853M32.8076 19.5301L31.4124 19.5853M31.4124 19.5853C30.9249 19.5926 30.3866 19.5915 29.906 19.5906M31.4124 19.5853L29.906 19.5906M29.906 19.5906C29.4421 19.5897 29.032 19.5889 28.7731 19.5958L29.906 19.5906ZM29.1192 13.3129C29.0688 13.2577 29.0205 13.2049 28.9749 13.1552L29.1192 13.3129ZM29.1192 13.3129C29.4771 13.7046 29.9442 14.2157 30.372 14.5929L29.1192 13.3129ZM28.3114 11.9988C28.4233 12.4786 28.6977 12.8538 28.9744 13.1547L28.3114 11.9988ZM19.3645 1.18825C19.3865 1.22239 19.4484 1.37153 19.4935 1.72325C19.5354 2.04977 19.5533 2.46377 19.555 2.94791C19.5572 3.53839 19.5363 4.17482 19.5147 4.8359C19.5001 5.28069 19.4852 5.73664 19.4767 6.19725C19.4565 7.2869 19.472 8.40728 19.6666 9.21075C19.7609 9.59996 19.9277 10.0544 20.2777 10.3616C20.4679 10.5285 20.7042 10.6444 20.9774 10.678C21.2424 10.7106 21.4959 10.6604 21.7232 10.5718L19.3645 1.18825ZM19.5496 18.3473L19.5496 18.3474L28.7731 19.5958C27.9702 19.617 27.39 19.4557 26.9295 19.2131C26.4595 18.9655 26.0732 18.6119 25.6828 18.1836C25.4284 17.9039 25.1974 17.6289 24.9571 17.3429C24.7976 17.1532 24.6341 16.9586 24.457 16.7545C24.0352 16.2685 23.5728 15.7744 23.0412 15.3613L23.0404 15.3607C22.5503 14.9809 21.9947 14.7649 21.4187 14.8887C20.8584 15.0092 20.4852 15.4086 20.2498 15.7861C19.7877 16.5272 19.5975 17.5899 19.5496 18.3473ZM27.2747 1.76166C27.2743 1.76151 27.2764 1.76008 27.2826 1.75785C27.2782 1.7607 27.2751 1.76181 27.2747 1.76166ZM11.748 1.5036L11.7704 1.45037L11.748 1.5036Z" stroke="black" stroke-width="1.5"/>
</svg>
