<svg width="35" height="35" viewBox="0 0 35 35" fill="none" xmlns="http://www.w3.org/2000/svg">
<g clip-path="url(#clip0_408_4)">
<mask id="mask0_408_4" style="mask-type:alpha" maskUnits="userSpaceOnUse" x="0" y="7" width="35" height="21">
<path d="M34.8145 25.5498C34.772 25.4584 34.7325 25.3827 34.6958 25.3219C34.0886 24.2284 32.9282 22.8859 31.2153 21.2944L31.179 21.258L31.161 21.24L31.1427 21.2218H31.1243C30.3468 20.4807 29.8545 19.9824 29.6484 19.7273C29.2712 19.2413 29.1866 18.7494 29.3928 18.2509C29.5384 17.8744 30.0855 17.0791 31.0329 15.864C31.5312 15.22 31.9259 14.704 32.2173 14.3151C34.3192 11.5208 35.2304 9.73515 34.9509 8.95755L34.8423 8.77583C34.7693 8.66643 34.581 8.56635 34.2776 8.47508C33.9736 8.384 33.585 8.36893 33.111 8.42964L27.8629 8.46589C27.7779 8.43576 27.6565 8.43857 27.4984 8.47508C27.3404 8.51158 27.2614 8.52991 27.2614 8.52991L27.17 8.57554L27.0976 8.63037C27.0367 8.66662 26.97 8.73039 26.8969 8.82154C26.8245 8.91236 26.7637 9.01895 26.7152 9.14041C26.1439 10.6104 25.4942 11.9771 24.7651 13.2405C24.3155 13.9939 23.9027 14.6467 23.5258 15.1996C23.1492 15.7522 22.8333 16.1593 22.5784 16.4203C22.3231 16.6816 22.0927 16.8909 21.8857 17.049C21.6791 17.2071 21.5214 17.274 21.4122 17.2495C21.3027 17.2251 21.1996 17.2008 21.1021 17.1765C20.9321 17.0671 20.7954 16.9183 20.6923 16.7301C20.5888 16.5418 20.519 16.3048 20.4827 16.0193C20.4463 15.7336 20.425 15.4879 20.4188 15.2812C20.4131 15.075 20.4157 14.783 20.428 14.4065C20.4407 14.0297 20.4463 13.7748 20.4463 13.6411C20.4463 13.1794 20.4554 12.6783 20.4734 12.1377C20.4918 11.5971 20.5067 11.1687 20.5191 10.8531C20.5316 10.5373 20.5373 10.2031 20.5373 9.85074C20.5373 9.49841 20.5159 9.22211 20.4734 9.02157C20.4315 8.82128 20.3673 8.62686 20.2826 8.43838C20.1974 8.25009 20.0727 8.10443 19.909 8.00104C19.7451 7.89776 19.5412 7.81581 19.2985 7.75492C18.6547 7.60921 17.8346 7.53038 16.8383 7.51813C14.5787 7.49387 13.1268 7.63978 12.4829 7.95566C12.2279 8.08912 11.997 8.27147 11.7906 8.50215C11.5718 8.76951 11.5413 8.91543 11.6993 8.93942C12.4283 9.04863 12.9444 9.30988 13.2481 9.7229L13.3576 9.94176C13.4427 10.0997 13.5277 10.3792 13.6129 10.7801C13.6978 11.1809 13.7526 11.6243 13.7767 12.11C13.8373 12.997 13.8373 13.7563 13.7767 14.3879C13.7159 15.0199 13.6585 15.5118 13.6036 15.864C13.5488 16.2164 13.4669 16.5018 13.3576 16.7205C13.2481 16.9392 13.1752 17.0728 13.1388 17.1213C13.1023 17.1699 13.0719 17.2004 13.0478 17.2124C12.8899 17.273 12.7257 17.3038 12.5557 17.3038C12.3855 17.3038 12.1791 17.2185 11.9361 17.0484C11.6933 16.8783 11.4413 16.6445 11.18 16.3468C10.9187 16.0491 10.6241 15.633 10.296 15.0986C9.9681 14.5641 9.62791 13.9324 9.27559 13.2035L8.98408 12.6749C8.80186 12.3348 8.55294 11.8396 8.23706 11.1898C7.92099 10.5397 7.64162 9.91086 7.39875 9.30343C7.30167 9.04831 7.15583 8.85409 6.96148 8.72043L6.87026 8.66561C6.80963 8.61709 6.71229 8.56559 6.57877 8.51069C6.44505 8.45587 6.30552 8.41655 6.15962 8.39236L1.1665 8.42861C0.656268 8.42861 0.310071 8.5442 0.127782 8.77507L0.0548273 8.88428C0.0183821 8.9451 0 9.04224 0 9.17596C0 9.30962 0.0364452 9.47366 0.109399 9.66788C0.838303 11.381 1.63097 13.0331 2.48739 14.6246C3.34383 16.2161 4.08805 17.498 4.71961 18.4694C5.35131 19.4414 5.9952 20.3587 6.65128 21.2211C7.30736 22.0837 7.74163 22.6364 7.95411 22.8794C8.16684 23.1227 8.33394 23.3046 8.4554 23.4261L8.91107 23.8634C9.20263 24.155 9.63078 24.5042 10.1957 24.9111C10.7608 25.3182 11.3863 25.719 12.0727 26.1142C12.7593 26.5088 13.5579 26.8307 14.4692 27.0796C15.3804 27.3289 16.2671 27.4289 17.1298 27.3806H19.2254C19.6505 27.3439 19.9725 27.2104 20.1913 26.9797L20.2639 26.8884C20.3126 26.8158 20.3583 26.7032 20.4004 26.5516C20.443 26.3997 20.4642 26.2324 20.4642 26.0505C20.4517 25.5281 20.4915 25.0574 20.5824 24.6383C20.6733 24.2194 20.7768 23.9035 20.8925 23.6907C21.0082 23.4782 21.1389 23.2988 21.2842 23.1535C21.4298 23.0078 21.5336 22.9195 21.5945 22.8891C21.655 22.8585 21.7033 22.8379 21.7397 22.8253C22.0314 22.7282 22.3745 22.8223 22.7696 23.108C23.1646 23.3936 23.535 23.746 23.8814 24.165C24.2277 24.5844 24.6437 25.0548 25.1295 25.5771C25.6157 26.0996 26.0408 26.488 26.4051 26.7435L26.7695 26.9622C27.0128 27.1081 27.3287 27.2418 27.7175 27.3632C28.1056 27.4846 28.4456 27.515 28.7377 27.4542L33.4026 27.3815C33.864 27.3815 34.223 27.3051 34.4777 27.1535C34.7329 27.0017 34.8845 26.8344 34.9334 26.6524C34.9822 26.4703 34.9848 26.2636 34.9426 26.0326C34.8994 25.802 34.8568 25.6409 34.8145 25.5498Z" fill="white"/>
</mask>
<g mask="url(#mask0_408_4)">
<path d="M34.8145 25.5498C34.772 25.4584 34.7325 25.3827 34.6958 25.3219C34.0886 24.2284 32.9282 22.8859 31.2153 21.2944L31.179 21.258L31.161 21.24L31.1427 21.2218H31.1243C30.3468 20.4807 29.8545 19.9824 29.6484 19.7273C29.2712 19.2413 29.1866 18.7494 29.3928 18.2509C29.5384 17.8744 30.0855 17.0791 31.0329 15.864C31.5312 15.22 31.9259 14.704 32.2173 14.3151C34.3192 11.5208 35.2304 9.73515 34.9509 8.95755L34.8423 8.77583C34.7693 8.66643 34.581 8.56635 34.2776 8.47508C33.9736 8.384 33.585 8.36893 33.111 8.42964L27.8629 8.46589C27.7779 8.43576 27.6565 8.43857 27.4984 8.47508C27.3404 8.51158 27.2614 8.52991 27.2614 8.52991L27.17 8.57554L27.0976 8.63037C27.0367 8.66662 26.97 8.73039 26.8969 8.82154C26.8245 8.91236 26.7637 9.01895 26.7152 9.14041C26.1439 10.6104 25.4942 11.9771 24.7651 13.2405C24.3155 13.9939 23.9027 14.6467 23.5258 15.1996C23.1492 15.7522 22.8333 16.1593 22.5784 16.4203C22.3231 16.6816 22.0927 16.8909 21.8857 17.049C21.6791 17.2071 21.5214 17.274 21.4122 17.2495C21.3027 17.2251 21.1996 17.2008 21.1021 17.1765C20.9321 17.0671 20.7954 16.9183 20.6923 16.7301C20.5888 16.5418 20.519 16.3048 20.4827 16.0193C20.4463 15.7336 20.425 15.4879 20.4188 15.2812C20.4131 15.075 20.4157 14.783 20.428 14.4065C20.4407 14.0297 20.4463 13.7748 20.4463 13.6411C20.4463 13.1794 20.4554 12.6783 20.4734 12.1377C20.4918 11.5971 20.5067 11.1687 20.5191 10.8531C20.5316 10.5373 20.5373 10.2031 20.5373 9.85074C20.5373 9.49841 20.5159 9.22211 20.4734 9.02157C20.4315 8.82128 20.3673 8.62686 20.2826 8.43838C20.1974 8.25009 20.0727 8.10443 19.909 8.00104C19.7451 7.89776 19.5412 7.81581 19.2985 7.75492C18.6547 7.60921 17.8346 7.53038 16.8383 7.51813C14.5787 7.49387 13.1268 7.63978 12.4829 7.95566C12.2279 8.08912 11.997 8.27147 11.7906 8.50215C11.5718 8.76951 11.5413 8.91543 11.6993 8.93942C12.4283 9.04863 12.9444 9.30988 13.2481 9.7229L13.3576 9.94176C13.4427 10.0997 13.5277 10.3792 13.6129 10.7801C13.6978 11.1809 13.7526 11.6243 13.7767 12.11C13.8373 12.997 13.8373 13.7563 13.7767 14.3879C13.7159 15.0199 13.6585 15.5118 13.6036 15.864C13.5488 16.2164 13.4669 16.5018 13.3576 16.7205C13.2481 16.9392 13.1752 17.0728 13.1388 17.1213C13.1023 17.1699 13.0719 17.2004 13.0478 17.2124C12.8899 17.273 12.7257 17.3038 12.5557 17.3038C12.3855 17.3038 12.1791 17.2185 11.9361 17.0484C11.6933 16.8783 11.4413 16.6445 11.18 16.3468C10.9187 16.0491 10.6241 15.633 10.296 15.0986C9.9681 14.5641 9.62791 13.9324 9.27559 13.2035L8.98408 12.6749C8.80186 12.3348 8.55294 11.8396 8.23706 11.1898C7.92099 10.5397 7.64162 9.91086 7.39875 9.30343C7.30167 9.04831 7.15583 8.85409 6.96148 8.72043L6.87026 8.66561C6.80963 8.61709 6.71229 8.56559 6.57877 8.51069C6.44505 8.45587 6.30552 8.41655 6.15962 8.39236L1.1665 8.42861C0.656268 8.42861 0.310071 8.5442 0.127782 8.77507L0.0548273 8.88428C0.0183821 8.9451 0 9.04224 0 9.17596C0 9.30962 0.0364452 9.47366 0.109399 9.66788C0.838303 11.381 1.63097 13.0331 2.48739 14.6246C3.34383 16.2161 4.08805 17.498 4.71961 18.4694C5.35131 19.4414 5.9952 20.3587 6.65128 21.2211C7.30736 22.0837 7.74163 22.6364 7.95411 22.8794C8.16684 23.1227 8.33394 23.3046 8.4554 23.4261L8.91107 23.8634C9.20263 24.155 9.63078 24.5042 10.1957 24.9111C10.7608 25.3182 11.3863 25.719 12.0727 26.1142C12.7593 26.5088 13.5579 26.8307 14.4692 27.0796C15.3804 27.3289 16.2671 27.4289 17.1298 27.3806H19.2254C19.6505 27.3439 19.9725 27.2104 20.1913 26.9797L20.2639 26.8884C20.3126 26.8158 20.3583 26.7032 20.4004 26.5516C20.443 26.3997 20.4642 26.2324 20.4642 26.0505C20.4517 25.5281 20.4915 25.0574 20.5824 24.6383C20.6733 24.2194 20.7768 23.9035 20.8925 23.6907C21.0082 23.4782 21.1389 23.2988 21.2842 23.1535C21.4298 23.0078 21.5336 22.9195 21.5945 22.8891C21.655 22.8585 21.7033 22.8379 21.7397 22.8253C22.0314 22.7282 22.3745 22.8223 22.7696 23.108C23.1646 23.3936 23.535 23.746 23.8814 24.165C24.2277 24.5844 24.6437 25.0548 25.1295 25.5771C25.6157 26.0996 26.0408 26.488 26.4051 26.7435L26.7695 26.9622C27.0128 27.1081 27.3287 27.2418 27.7175 27.3632C28.1056 27.4846 28.4456 27.515 28.7377 27.4542L33.4026 27.3815C33.864 27.3815 34.223 27.3051 34.4777 27.1535C34.7329 27.0017 34.8845 26.8344 34.9334 26.6524C34.9822 26.4703 34.9848 26.2636 34.9426 26.0326C34.8994 25.802 34.8568 25.6409 34.8145 25.5498Z" stroke="black" stroke-width="3"/>
</g>
</g>
<defs>
<clipPath id="clip0_408_4">
<rect width="35" height="35" fill="white"/>
</clipPath>
</defs>
</svg>
