<svg width="34" height="24" viewBox="0 0 34 24" fill="none" xmlns="http://www.w3.org/2000/svg">
<path d="M12.7395 16.4259L12.7396 17.6612L13.8356 17.0912L23.0209 12.314L24.2959 11.6509L23.0227 10.9842L13.8363 6.17398L12.7383 5.59902L12.7384 6.83849L12.7395 16.4259ZM32.9166 18.7114L32.9164 18.713L32.9147 18.724C32.9134 18.7326 32.9116 18.7442 32.9093 18.7586C32.9077 18.7681 32.906 18.7788 32.904 18.7906C32.894 18.8502 32.8784 18.9384 32.8566 19.0484C32.8126 19.2691 32.7442 19.5729 32.6467 19.9051C32.4415 20.6041 32.1449 21.2948 31.7739 21.6718L31.7739 21.6718L31.765 21.681C30.7997 22.696 29.7695 22.8006 29.0488 22.8738C28.9725 22.8816 28.8996 22.889 28.8307 22.897C26.4752 23.0675 23.5245 23.1559 21.1524 23.2016C19.9652 23.2245 18.9263 23.2366 18.1842 23.243C17.8132 23.2462 17.5165 23.2479 17.3127 23.2489L17.0791 23.2498L17.019 23.25L17.0038 23.25L17.0006 23.25L16.9818 23.2498L16.9076 23.2491L16.6231 23.246C16.3766 23.2433 16.0213 23.2391 15.5863 23.2333C14.7163 23.2216 13.5282 23.2033 12.2556 23.1768C9.71639 23.124 6.88252 23.0393 5.54338 22.9131C5.37072 22.8821 5.18595 22.8586 4.99275 22.834C4.13142 22.7245 3.10268 22.5938 2.23369 21.6808L2.23376 21.6807L2.22501 21.6718C1.8541 21.2949 1.55774 20.6043 1.35283 19.9053C1.25547 19.5732 1.18718 19.2693 1.14334 19.0487C1.12151 18.9387 1.10595 18.8505 1.09602 18.791C1.09106 18.7612 1.08752 18.7387 1.08532 18.7243L1.08341 18.7116L1.08091 18.6908L1.07048 18.6016C1.06143 18.5228 1.04841 18.4065 1.03273 18.258C1.00137 17.9608 0.959437 17.5353 0.917484 17.0243C0.833416 16.0002 0.75 14.6417 0.75 13.2887V10.6996C0.75 9.34715 0.833416 7.98862 0.917485 6.96441C0.959438 6.4533 1.00137 6.02765 1.03273 5.73044C1.04841 5.58187 1.06143 5.46551 1.07049 5.38674L1.08091 5.29748L1.08341 5.27667L1.08532 5.26397C1.08752 5.24958 1.09106 5.22708 1.09602 5.19733C1.10595 5.13779 1.12151 5.04955 1.14334 4.93962C1.18718 4.71894 1.25547 4.41513 1.35283 4.08297C1.55774 3.38395 1.8541 2.69335 2.22501 2.31644L2.22508 2.31652L2.23369 2.30748C3.20154 1.29067 4.23341 1.18717 4.95376 1.11492C5.02891 1.10738 5.10068 1.10019 5.16863 1.09233C7.5238 0.921901 10.4727 0.83609 12.843 0.793061C14.0292 0.771528 15.0672 0.76076 15.8085 0.755378C16.1792 0.752687 16.4755 0.751342 16.6791 0.75067L16.9124 0.750083L16.9725 0.75001L16.9877 0.750001L16.9914 0.75L16.9923 0.75H16.9925L16.9926 0V0.75H17.0074V0L17.0075 0.75H17.0077L17.0086 0.75L17.0123 0.750001L17.0275 0.75001L17.0876 0.750083L17.3209 0.75067C17.5245 0.751342 17.8208 0.752687 18.1915 0.755378C18.9328 0.76076 19.9708 0.771528 21.157 0.793061C23.5273 0.83609 26.4761 0.9219 28.8313 1.09232C28.8993 1.1002 28.9711 1.10741 29.0464 1.11496C29.7663 1.18725 30.7984 1.29088 31.765 2.30725L31.765 2.30733L31.7739 2.31644C32.1449 2.69344 32.4415 3.38417 32.6467 4.08322C32.7442 4.4154 32.8126 4.71923 32.8566 4.93992C32.8784 5.04985 32.894 5.1381 32.904 5.19765C32.909 5.22739 32.9125 5.2499 32.9147 5.26429L32.9164 5.27527L32.9166 5.27685L32.9191 5.29748L32.9295 5.38674C32.9386 5.46551 32.9516 5.58187 32.9673 5.73044C32.9986 6.02765 33.0406 6.4533 33.0825 6.96441C33.1666 7.98862 33.25 9.34715 33.25 10.6996V13.2887C33.25 14.6417 33.1666 16.0002 33.0825 17.0243C33.0406 17.5353 32.9986 17.9608 32.9673 18.258C32.9516 18.4065 32.9386 18.5228 32.9295 18.6016L32.9191 18.6908L32.9166 18.7114Z" stroke="black" stroke-width="1.5"/>
</svg>
