<svg width="12" height="24" viewBox="0 0 12 24" fill="none" xmlns="http://www.w3.org/2000/svg">
    <path
        d="M6.75 1C6.75 0.585786 6.41421 0.25 6 0.25C5.58579 0.25 5.25 0.585786 5.25 1L6.75 1ZM5.46967 23.5303C5.76256 23.8232 6.23744 23.8232 6.53033 23.5303L11.3033 18.7574C11.5962 18.4645 11.5962 17.9896 11.3033 17.6967C11.0104 17.4038 10.5355 17.4038 10.2426 17.6967L6 21.9393L1.75736 17.6967C1.46447 17.4038 0.989593 17.4038 0.6967 17.6967C0.403806 17.9896 0.403806 18.4645 0.6967 18.7574L5.46967 23.5303ZM5.25 1L5.25 23L6.75 23L6.75 1L5.25 1Z"
        fill="black" />
</svg>