<svg width="40" height="36" viewBox="0 0 40 36" fill="none" xmlns="http://www.w3.org/2000/svg">
<path d="M39.25 15.5938H37.1875V10.0938C37.1875 7.54106 36.1734 5.09288 34.3684 3.28784C32.5634 1.48281 30.1152 0.46875 27.5625 0.46875H12.4375C9.88481 0.46875 7.43663 1.48281 5.63159 3.28784C3.82656 5.09288 2.8125 7.54106 2.8125 10.0938V15.5938H0.75C0.567661 15.5938 0.392796 15.6662 0.263862 15.7951C0.134935 15.924 0.0625 16.0989 0.0625 16.2812V32.0938C0.0625 32.2761 0.134935 32.451 0.263862 32.5799C0.392796 32.7088 0.567661 32.7812 0.75 32.7812H1.4375V34.8438C1.4375 35.0261 1.50994 35.201 1.63886 35.3299C1.7678 35.4588 1.94266 35.5312 2.125 35.5312H4.875C5.05732 35.5312 5.23222 35.4588 5.36113 35.3299C5.49004 35.201 5.5625 35.0261 5.5625 34.8438V32.7812H34.4375V34.8438C34.4375 35.0261 34.51 35.201 34.6389 35.3299C34.7678 35.4588 34.9427 35.5312 35.125 35.5312H37.875C38.0573 35.5312 38.2322 35.4588 38.3611 35.3299C38.49 35.201 38.5625 35.0261 38.5625 34.8438V32.7812H39.25C39.4323 32.7812 39.6072 32.7088 39.7361 32.5799C39.865 32.451 39.9375 32.2761 39.9375 32.0938V16.2812C39.9375 16.0989 39.865 15.924 39.7361 15.7951C39.6072 15.6662 39.4323 15.5938 39.25 15.5938ZM4.1875 10.0938C4.1875 7.90571 5.05671 5.80732 6.60386 4.26011C8.15107 2.71294 10.2495 1.84375 12.4375 1.84375H27.5625C29.7505 1.84375 31.8489 2.71294 33.3961 4.26011C34.9433 5.80732 35.8125 7.90571 35.8125 10.0938V15.5938H33.0625C32.8802 15.5938 32.7053 15.6662 32.5764 15.7951C32.4475 15.924 32.375 16.0989 32.375 16.2812V17.835C31.6993 17.273 30.8476 16.9663 29.9688 16.9688H10.0312C9.15242 16.9663 8.30068 17.273 7.625 17.835V16.2812C7.625 16.0989 7.55254 15.924 7.42363 15.7951C7.29472 15.6662 7.11982 15.5938 6.9375 15.5938H4.1875V10.0938ZM7.625 20.75C7.625 20.1118 7.87848 19.4998 8.32976 19.0485C8.78103 18.5973 9.39304 18.3438 10.0312 18.3438H29.9688C30.607 18.3438 31.219 18.5973 31.6702 19.0485C32.1214 19.4998 32.375 20.1118 32.375 20.75C32.375 21.3882 32.1214 22.0002 31.6702 22.4515C31.219 22.9027 30.607 23.1562 29.9688 23.1562H10.0312C9.39304 23.1562 8.78103 22.9027 8.32976 22.4515C7.87848 22.0002 7.625 21.3882 7.625 20.75ZM1.4375 16.9688H6.25V31.4062H1.4375V16.9688ZM4.1875 34.1562H2.8125V32.7812H4.1875V34.1562ZM7.625 24.5312H32.375V31.4062H7.625V24.5312ZM37.1875 34.1562H35.8125V32.7812H37.1875V34.1562ZM38.5625 31.4062H33.75V16.9688H38.5625V31.4062Z" fill="#013485"/>
</svg>
