<svg width="47" height="49" viewBox="0 0 47 49" fill="none" xmlns="http://www.w3.org/2000/svg">
<mask id="path-1-inside-1_544_2" fill="white">
<path d="M44.659 25.5905C44.7081 25.7564 44.7081 25.933 44.659 26.099C44.619 26.2548 44.5306 26.3938 44.4065 26.4961C44.2824 26.5984 44.129 26.6586 43.9684 26.6681C43.8453 26.6624 43.725 26.6295 43.6161 26.5718C43.5072 26.514 43.4124 26.4329 43.3386 26.3342C42.8721 25.6219 42.2217 25.0491 41.4563 24.6764C40.6908 24.3037 39.8388 24.145 38.9904 24.217C39.089 24.8375 39.1498 25.4635 39.1725 26.0914C41.9727 26.744 43.4903 30.4699 43.4903 33.9302C43.4811 34.1285 43.3982 34.3162 43.2578 34.4565C43.1175 34.5969 42.9298 34.6798 42.7315 34.689C42.5568 34.6861 42.3879 34.6259 42.2507 34.5176C42.1136 34.4093 42.0159 34.2589 41.9727 34.0895C41.8039 33.2581 41.416 32.4868 40.8489 31.8557C40.2818 31.2246 39.5564 30.7566 38.7476 30.5002C38.5986 31.1954 38.4034 31.8799 38.1633 32.5491C40.4853 34.2489 40.4095 38.2632 39.0587 41.4351C39.0006 41.5723 38.9034 41.6893 38.7793 41.7716C38.6552 41.8539 38.5095 41.8979 38.3606 41.898C38.2475 41.9001 38.1355 41.8769 38.0326 41.8301C37.9297 41.7833 37.8385 41.7141 37.7658 41.6275C37.6931 41.541 37.6406 41.4392 37.6122 41.3298C37.5838 41.2204 37.5802 41.106 37.6017 40.995C37.7712 40.1656 37.7156 39.306 37.4407 38.5054C37.1659 37.7048 36.6817 36.9923 36.0385 36.442C35.6667 36.952 35.2637 37.4385 34.832 37.8989C36.3421 40.3424 34.7789 44.038 32.3354 46.4738C32.194 46.614 32.0033 46.6931 31.8042 46.6939C31.6649 46.7007 31.5264 46.6691 31.4039 46.6023C31.2814 46.5356 31.1797 46.4364 31.1099 46.3157C31.0401 46.1949 31.005 46.0573 31.0083 45.9178C31.0116 45.7784 31.0533 45.6426 31.1288 45.5253C31.597 44.8207 31.8678 44.0035 31.9132 43.1588C31.9586 42.314 31.7768 41.4725 31.3868 40.7218C30.7681 41.0993 30.1269 41.4389 29.467 41.7387C29.9071 44.5995 26.8186 47.6576 23.5328 48.7124C23.3607 48.7248 23.1895 48.6781 23.0475 48.58C22.9055 48.482 22.8011 48.3385 22.7516 48.1732C22.7021 48.0079 22.7104 47.8307 22.7752 47.6707C22.84 47.5108 22.9573 47.3777 23.1079 47.2934C23.8166 46.8252 24.3868 46.1756 24.7592 45.4122C25.1316 44.6488 25.2924 43.7995 25.225 42.9528C24.6019 43.0511 23.9735 43.1119 23.3431 43.1349C22.6602 45.9275 18.957 47.4451 15.5195 47.4451C15.3435 47.4383 15.1755 47.3704 15.0441 47.2533C14.9127 47.1361 14.8261 46.9768 14.7992 46.8029C14.7723 46.6289 14.8067 46.4509 14.8966 46.2995C14.9865 46.1481 15.1262 46.0327 15.2918 45.973C16.1339 45.8046 16.9159 45.415 17.5574 44.8442C18.1989 44.2733 18.6768 43.5419 18.9418 42.7252C18.2352 42.5628 17.5406 42.3523 16.8626 42.0953C14.9352 44.6147 10.7312 44.1594 7.969 42.9908C7.86114 42.9431 7.76586 42.871 7.69073 42.7801C7.61559 42.6893 7.56267 42.5821 7.53616 42.4672C7.50964 42.3523 7.51027 42.2328 7.53798 42.1182C7.5657 42.0036 7.61974 41.897 7.69582 41.807C7.78355 41.7072 7.89461 41.6308 8.01907 41.5844C8.14354 41.5381 8.27755 41.5233 8.40913 41.5414C9.23849 41.7117 10.0983 41.6564 10.8991 41.3815C11.6999 41.1066 12.4123 40.622 12.9622 39.9782C12.4522 39.609 11.9657 39.2085 11.5052 38.7792C8.6292 40.3576 5.31306 38.5591 2.92271 36.2826C2.84072 36.1981 2.77953 36.0956 2.74399 35.9833C2.70845 35.871 2.69953 35.752 2.71793 35.6357C2.73634 35.5194 2.78157 35.4089 2.85004 35.3131C2.9185 35.2173 3.00834 35.1387 3.11242 35.0836C3.21932 35.029 3.33765 35.0005 3.4577 35.0005C3.57774 35.0005 3.69607 35.029 3.80297 35.0836C4.51827 35.559 5.34716 35.8356 6.20461 35.8849C7.06206 35.9343 7.9172 35.7546 8.68231 35.3644C8.30172 34.7474 7.96204 34.1061 7.66547 33.4445C4.69081 33.8619 2.06522 30.9631 0.744839 27.7912C0.703354 27.6814 0.687872 27.5636 0.699609 27.4469C0.711346 27.3302 0.749983 27.2178 0.812486 27.1185C0.874988 27.0192 0.959654 26.9358 1.05983 26.8748C1.16001 26.8137 1.27298 26.7768 1.38985 26.7667C1.52282 26.7544 1.65669 26.7774 1.77794 26.8333C1.89918 26.8893 2.00352 26.9763 2.0804 27.0854C2.54889 27.7934 3.1988 28.3625 3.9623 28.7336C4.72579 29.1047 5.57489 29.264 6.42097 29.195C6.32991 28.5728 6.23885 27.9505 6.23885 27.3207C3.44631 26.6681 1.92863 22.9498 1.92863 19.4895C1.93062 19.3721 1.95983 19.2568 2.01394 19.1526C2.06805 19.0484 2.14559 18.9582 2.24047 18.889C2.33535 18.8199 2.44497 18.7737 2.56072 18.7541C2.67647 18.7345 2.79519 18.7421 2.90754 18.7761C3.03348 18.8186 3.14709 18.8913 3.23838 18.9879C3.32967 19.0844 3.39586 19.202 3.43114 19.3301C3.59893 20.1599 3.9858 20.9298 4.55159 21.5596C5.11737 22.1894 5.84144 22.6563 6.64862 22.9118C6.8182 22.2336 7.03111 21.567 7.28605 20.9161C4.97158 19.2087 5.03988 15.202 6.38303 12.03C6.4299 11.9216 6.50145 11.8256 6.59198 11.7496C6.68251 11.6737 6.78952 11.62 6.90449 11.5927C7.01946 11.5654 7.1392 11.5654 7.25419 11.5926C7.36918 11.6198 7.47623 11.6734 7.56682 11.7493C7.66771 11.8377 7.74486 11.9501 7.79125 12.076C7.83763 12.2019 7.85179 12.3374 7.83241 12.4702C7.6639 13.3009 7.72147 14.1616 7.99911 14.9625C8.27675 15.7634 8.76428 16.475 9.4108 17.0232C9.7787 16.5168 10.1765 16.0328 10.6022 15.5738C8.99344 12.9786 10.9892 9.07815 13.0912 6.97616C13.1622 6.89914 13.2485 6.83767 13.3445 6.79562C13.4405 6.75358 13.5441 6.73187 13.6489 6.73187C13.7537 6.73187 13.8574 6.75358 13.9534 6.79562C14.0494 6.83767 14.1356 6.89914 14.2067 6.97616C14.3076 7.08917 14.3723 7.22978 14.3926 7.37989C14.4129 7.53 14.3878 7.68275 14.3205 7.81848C13.8421 8.53255 13.5638 9.36175 13.5144 10.2198C13.465 11.0779 13.6464 11.9336 14.0397 12.6978C14.6575 12.3186 15.2988 11.979 15.9596 11.681C15.5422 8.83533 18.4031 6.05038 21.613 4.76035C21.7221 4.71896 21.8394 4.70332 21.9556 4.71463C22.0718 4.72595 22.1838 4.76393 22.2829 4.8256C22.382 4.88728 22.4656 4.97099 22.5271 5.07023C22.5885 5.16947 22.6263 5.28156 22.6374 5.39778C22.6497 5.53074 22.6268 5.66461 22.5708 5.78586C22.5148 5.90711 22.4279 6.01144 22.3187 6.08832C21.6084 6.55629 21.0376 7.2072 20.6663 7.97246C20.295 8.73772 20.1371 9.58897 20.2091 10.4365C20.8271 10.3382 21.4505 10.2774 22.0759 10.2544C22.7285 7.45423 26.4544 5.93655 29.9147 5.93655C30.0321 5.93855 30.1474 5.96775 30.2516 6.02186C30.3557 6.07597 30.4459 6.15351 30.5151 6.24839C30.5842 6.34327 30.6304 6.4529 30.65 6.56864C30.6696 6.68439 30.6621 6.80311 30.628 6.91546C30.5868 7.04207 30.5145 7.15633 30.4177 7.2478C30.3209 7.33926 30.2028 7.40502 30.074 7.43906C29.2427 7.60599 28.4715 7.99347 27.8413 8.56088C27.2112 9.12829 26.7452 9.85475 26.4923 10.6641C27.1818 10.8255 27.8589 11.036 28.5184 11.294C30.2182 8.98709 34.2325 9.0478 37.412 10.3909C37.5205 10.4378 37.6165 10.5094 37.6924 10.5999C37.7684 10.6904 37.8221 10.7974 37.8494 10.9124C37.8766 11.0274 37.8767 11.1471 37.8495 11.2621C37.8223 11.3771 37.7687 11.4842 37.6928 11.5747C37.6047 11.6739 37.4935 11.75 37.3692 11.7963C37.2448 11.8426 37.111 11.8577 36.9795 11.8403C36.1488 11.6735 35.2885 11.7318 34.488 12.0093C33.6874 12.2869 32.9756 12.7735 32.4264 13.4187C32.9324 13.7904 33.4187 14.188 33.8834 14.6101C36.3269 13.0848 40.03 14.6556 42.4735 17.1067C42.5558 17.1907 42.6174 17.2927 42.6535 17.4046C42.6896 17.5166 42.6993 17.6353 42.6816 17.7516C42.6639 17.8679 42.6195 17.9785 42.5518 18.0746C42.484 18.1708 42.3949 18.2499 42.2914 18.3057C42.1835 18.3615 42.0638 18.3907 41.9423 18.3907C41.8208 18.3907 41.7011 18.3615 41.5932 18.3057C40.8787 17.8254 40.0486 17.5454 39.1891 17.4947C38.3297 17.4439 37.4724 17.6244 36.7063 18.0173C37.0907 18.6334 37.433 19.2748 37.7307 19.9372C40.5688 19.5198 43.3613 22.3882 44.659 25.5905Z"/>
</mask>
<path d="M44.659 25.5905C44.7081 25.7564 44.7081 25.933 44.659 26.099C44.619 26.2548 44.5306 26.3938 44.4065 26.4961C44.2824 26.5984 44.129 26.6586 43.9684 26.6681C43.8453 26.6624 43.725 26.6295 43.6161 26.5718C43.5072 26.514 43.4124 26.4329 43.3386 26.3342C42.8721 25.6219 42.2217 25.0491 41.4563 24.6764C40.6908 24.3037 39.8388 24.145 38.9904 24.217C39.089 24.8375 39.1498 25.4635 39.1725 26.0914C41.9727 26.744 43.4903 30.4699 43.4903 33.9302C43.4811 34.1285 43.3982 34.3162 43.2578 34.4565C43.1175 34.5969 42.9298 34.6798 42.7315 34.689C42.5568 34.6861 42.3879 34.6259 42.2507 34.5176C42.1136 34.4093 42.0159 34.2589 41.9727 34.0895C41.8039 33.2581 41.416 32.4868 40.8489 31.8557C40.2818 31.2246 39.5564 30.7566 38.7476 30.5002C38.5986 31.1954 38.4034 31.8799 38.1633 32.5491C40.4853 34.2489 40.4095 38.2632 39.0587 41.4351C39.0006 41.5723 38.9034 41.6893 38.7793 41.7716C38.6552 41.8539 38.5095 41.8979 38.3606 41.898C38.2475 41.9001 38.1355 41.8769 38.0326 41.8301C37.9297 41.7833 37.8385 41.7141 37.7658 41.6275C37.6931 41.541 37.6406 41.4392 37.6122 41.3298C37.5838 41.2204 37.5802 41.106 37.6017 40.995C37.7712 40.1656 37.7156 39.306 37.4407 38.5054C37.1659 37.7048 36.6817 36.9923 36.0385 36.442C35.6667 36.952 35.2637 37.4385 34.832 37.8989C36.3421 40.3424 34.7789 44.038 32.3354 46.4738C32.194 46.614 32.0033 46.6931 31.8042 46.6939C31.6649 46.7007 31.5264 46.6691 31.4039 46.6023C31.2814 46.5356 31.1797 46.4364 31.1099 46.3157C31.0401 46.1949 31.005 46.0573 31.0083 45.9178C31.0116 45.7784 31.0533 45.6426 31.1288 45.5253C31.597 44.8207 31.8678 44.0035 31.9132 43.1588C31.9586 42.314 31.7768 41.4725 31.3868 40.7218C30.7681 41.0993 30.1269 41.4389 29.467 41.7387C29.9071 44.5995 26.8186 47.6576 23.5328 48.7124C23.3607 48.7248 23.1895 48.6781 23.0475 48.58C22.9055 48.482 22.8011 48.3385 22.7516 48.1732C22.7021 48.0079 22.7104 47.8307 22.7752 47.6707C22.84 47.5108 22.9573 47.3777 23.1079 47.2934C23.8166 46.8252 24.3868 46.1756 24.7592 45.4122C25.1316 44.6488 25.2924 43.7995 25.225 42.9528C24.6019 43.0511 23.9735 43.1119 23.3431 43.1349C22.6602 45.9275 18.957 47.4451 15.5195 47.4451C15.3435 47.4383 15.1755 47.3704 15.0441 47.2533C14.9127 47.1361 14.8261 46.9768 14.7992 46.8029C14.7723 46.6289 14.8067 46.4509 14.8966 46.2995C14.9865 46.1481 15.1262 46.0327 15.2918 45.973C16.1339 45.8046 16.9159 45.415 17.5574 44.8442C18.1989 44.2733 18.6768 43.5419 18.9418 42.7252C18.2352 42.5628 17.5406 42.3523 16.8626 42.0953C14.9352 44.6147 10.7312 44.1594 7.969 42.9908C7.86114 42.9431 7.76586 42.871 7.69073 42.7801C7.61559 42.6893 7.56267 42.5821 7.53616 42.4672C7.50964 42.3523 7.51027 42.2328 7.53798 42.1182C7.5657 42.0036 7.61974 41.897 7.69582 41.807C7.78355 41.7072 7.89461 41.6308 8.01907 41.5844C8.14354 41.5381 8.27755 41.5233 8.40913 41.5414C9.23849 41.7117 10.0983 41.6564 10.8991 41.3815C11.6999 41.1066 12.4123 40.622 12.9622 39.9782C12.4522 39.609 11.9657 39.2085 11.5052 38.7792C8.6292 40.3576 5.31306 38.5591 2.92271 36.2826C2.84072 36.1981 2.77953 36.0956 2.74399 35.9833C2.70845 35.871 2.69953 35.752 2.71793 35.6357C2.73634 35.5194 2.78157 35.4089 2.85004 35.3131C2.9185 35.2173 3.00834 35.1387 3.11242 35.0836C3.21932 35.029 3.33765 35.0005 3.4577 35.0005C3.57774 35.0005 3.69607 35.029 3.80297 35.0836C4.51827 35.559 5.34716 35.8356 6.20461 35.8849C7.06206 35.9343 7.9172 35.7546 8.68231 35.3644C8.30172 34.7474 7.96204 34.1061 7.66547 33.4445C4.69081 33.8619 2.06522 30.9631 0.744839 27.7912C0.703354 27.6814 0.687872 27.5636 0.699609 27.4469C0.711346 27.3302 0.749983 27.2178 0.812486 27.1185C0.874988 27.0192 0.959654 26.9358 1.05983 26.8748C1.16001 26.8137 1.27298 26.7768 1.38985 26.7667C1.52282 26.7544 1.65669 26.7774 1.77794 26.8333C1.89918 26.8893 2.00352 26.9763 2.0804 27.0854C2.54889 27.7934 3.1988 28.3625 3.9623 28.7336C4.72579 29.1047 5.57489 29.264 6.42097 29.195C6.32991 28.5728 6.23885 27.9505 6.23885 27.3207C3.44631 26.6681 1.92863 22.9498 1.92863 19.4895C1.93062 19.3721 1.95983 19.2568 2.01394 19.1526C2.06805 19.0484 2.14559 18.9582 2.24047 18.889C2.33535 18.8199 2.44497 18.7737 2.56072 18.7541C2.67647 18.7345 2.79519 18.7421 2.90754 18.7761C3.03348 18.8186 3.14709 18.8913 3.23838 18.9879C3.32967 19.0844 3.39586 19.202 3.43114 19.3301C3.59893 20.1599 3.9858 20.9298 4.55159 21.5596C5.11737 22.1894 5.84144 22.6563 6.64862 22.9118C6.8182 22.2336 7.03111 21.567 7.28605 20.9161C4.97158 19.2087 5.03988 15.202 6.38303 12.03C6.4299 11.9216 6.50145 11.8256 6.59198 11.7496C6.68251 11.6737 6.78952 11.62 6.90449 11.5927C7.01946 11.5654 7.1392 11.5654 7.25419 11.5926C7.36918 11.6198 7.47623 11.6734 7.56682 11.7493C7.66771 11.8377 7.74486 11.9501 7.79125 12.076C7.83763 12.2019 7.85179 12.3374 7.83241 12.4702C7.6639 13.3009 7.72147 14.1616 7.99911 14.9625C8.27675 15.7634 8.76428 16.475 9.4108 17.0232C9.7787 16.5168 10.1765 16.0328 10.6022 15.5738C8.99344 12.9786 10.9892 9.07815 13.0912 6.97616C13.1622 6.89914 13.2485 6.83767 13.3445 6.79562C13.4405 6.75358 13.5441 6.73187 13.6489 6.73187C13.7537 6.73187 13.8574 6.75358 13.9534 6.79562C14.0494 6.83767 14.1356 6.89914 14.2067 6.97616C14.3076 7.08917 14.3723 7.22978 14.3926 7.37989C14.4129 7.53 14.3878 7.68275 14.3205 7.81848C13.8421 8.53255 13.5638 9.36175 13.5144 10.2198C13.465 11.0779 13.6464 11.9336 14.0397 12.6978C14.6575 12.3186 15.2988 11.979 15.9596 11.681C15.5422 8.83533 18.4031 6.05038 21.613 4.76035C21.7221 4.71896 21.8394 4.70332 21.9556 4.71463C22.0718 4.72595 22.1838 4.76393 22.2829 4.8256C22.382 4.88728 22.4656 4.97099 22.5271 5.07023C22.5885 5.16947 22.6263 5.28156 22.6374 5.39778C22.6497 5.53074 22.6268 5.66461 22.5708 5.78586C22.5148 5.90711 22.4279 6.01144 22.3187 6.08832C21.6084 6.55629 21.0376 7.2072 20.6663 7.97246C20.295 8.73772 20.1371 9.58897 20.2091 10.4365C20.8271 10.3382 21.4505 10.2774 22.0759 10.2544C22.7285 7.45423 26.4544 5.93655 29.9147 5.93655C30.0321 5.93855 30.1474 5.96775 30.2516 6.02186C30.3557 6.07597 30.4459 6.15351 30.5151 6.24839C30.5842 6.34327 30.6304 6.4529 30.65 6.56864C30.6696 6.68439 30.6621 6.80311 30.628 6.91546C30.5868 7.04207 30.5145 7.15633 30.4177 7.2478C30.3209 7.33926 30.2028 7.40502 30.074 7.43906C29.2427 7.60599 28.4715 7.99347 27.8413 8.56088C27.2112 9.12829 26.7452 9.85475 26.4923 10.6641C27.1818 10.8255 27.8589 11.036 28.5184 11.294C30.2182 8.98709 34.2325 9.0478 37.412 10.3909C37.5205 10.4378 37.6165 10.5094 37.6924 10.5999C37.7684 10.6904 37.8221 10.7974 37.8494 10.9124C37.8766 11.0274 37.8767 11.1471 37.8495 11.2621C37.8223 11.3771 37.7687 11.4842 37.6928 11.5747C37.6047 11.6739 37.4935 11.75 37.3692 11.7963C37.2448 11.8426 37.111 11.8577 36.9795 11.8403C36.1488 11.6735 35.2885 11.7318 34.488 12.0093C33.6874 12.2869 32.9756 12.7735 32.4264 13.4187C32.9324 13.7904 33.4187 14.188 33.8834 14.6101C36.3269 13.0848 40.03 14.6556 42.4735 17.1067C42.5558 17.1907 42.6174 17.2927 42.6535 17.4046C42.6896 17.5166 42.6993 17.6353 42.6816 17.7516C42.6639 17.8679 42.6195 17.9785 42.5518 18.0746C42.484 18.1708 42.3949 18.2499 42.2914 18.3057C42.1835 18.3615 42.0638 18.3907 41.9423 18.3907C41.8208 18.3907 41.7011 18.3615 41.5932 18.3057C40.8787 17.8254 40.0486 17.5454 39.1891 17.4947C38.3297 17.4439 37.4724 17.6244 36.7063 18.0173C37.0907 18.6334 37.433 19.2748 37.7307 19.9372C40.5688 19.5198 43.3613 22.3882 44.659 25.5905Z" stroke="#013485" stroke-width="3" mask="url(#path-1-inside-1_544_2)"/>
<path d="M37.2019 8.74425C38.0647 9.10575 38.8422 9.635 39.4914 10.2933C40.7692 11.5878 41.5592 13.3753 41.5592 15.3505C41.5589 19.2983 38.3984 22.5 34.5007 22.5C30.6009 22.5 27.4414 19.2983 27.4414 15.3505C27.4414 13.3753 28.2324 11.5878 29.5092 10.2933C30.8877 8.8975 31.5769 7.06725 31.5769 5.23675C31.5769 4.26725 31.3839 3.343 31.0387 2.5C33.8424 4.3985 34.5974 8.24075 32.7239 11.081C32.5477 11.3485 32.4634 11.651 32.4644 11.9508C32.4657 12.4535 32.7052 12.9462 33.1494 13.247C33.8572 13.726 34.8147 13.5325 35.2877 12.8155C35.5164 12.4688 35.6247 12.078 35.6282 11.6905C35.6337 11.0185 35.3182 10.3562 34.7252 9.955C36.4732 10.6887 37.4894 12.4508 37.3824 14.2618C38.7544 12.6738 38.6967 10.2593 37.2019 8.74425Z" fill="#FD9331"/>
<path d="M36.9579 5.3105C37.5716 4.38075 37.3244 3.122 36.4061 2.5C36.4059 3.01875 36.2104 3.53775 35.8201 3.933C35.0391 4.72425 35.0391 6.0075 35.8201 6.7985C36.0244 7.00525 36.2734 7.16575 36.5496 7.267C36.4384 6.60975 36.5626 5.9095 36.9579 5.3105Z" fill="#FD9331"/>
</svg>
