<svg width="33" height="39" viewBox="0 0 33 39" fill="none" xmlns="http://www.w3.org/2000/svg">
<path d="M31.5029 39C31.5027 39 31.5022 39 31.5018 39L17.0073 38.9723H1.49685C1.19083 38.9723 0.942871 38.7243 0.942871 38.4183V13.4958C0.942871 13.1898 1.19083 12.9418 1.49685 12.9418H9.23281V0.553977C9.23281 0.24796 9.48077 0 9.78679 0H31.5027C31.8087 0 32.0567 0.24796 32.0567 0.553977V38.446C32.0567 38.5932 31.9982 38.7341 31.894 38.8382C31.7903 38.9417 31.6496 39 31.5029 39ZM17.5622 37.8655L30.9487 37.8909V1.10795H10.3408V12.9418H17.0082C17.3142 12.9418 17.5622 13.1898 17.5622 13.4958V37.8655ZM2.05083 37.8643H16.4542V14.0497H2.05083V37.8643ZM14.744 34.2655H10.3611C10.0551 34.2655 9.80717 34.0175 9.80717 33.7115V31.1466C9.80717 30.8406 10.0551 30.5926 10.3611 30.5926H14.744C15.05 30.5926 15.298 30.8406 15.298 31.1466V33.7115C15.298 34.0175 15.05 34.2655 14.744 34.2655ZM10.9151 33.1575H14.19V31.7006H10.9151V33.1575ZM8.14413 34.2655H3.76129C3.45527 34.2655 3.20731 34.0175 3.20731 33.7115V31.1466C3.20731 30.8406 3.45527 30.5926 3.76129 30.5926H8.14413C8.45015 30.5926 8.69811 30.8406 8.69811 31.1466V33.7115C8.69811 34.0175 8.45015 34.2655 8.14413 34.2655ZM4.31526 33.1575H7.59015V31.7006H4.31526V33.1575ZM27.7376 33.981H25.6186C25.3125 33.981 25.0646 33.733 25.0646 33.427V31.1242C25.0646 30.8182 25.3125 30.5702 25.6186 30.5702H27.7376C28.0437 30.5702 28.2916 30.8182 28.2916 31.1242V33.427C28.2916 33.733 28.0437 33.981 27.7376 33.981ZM26.1728 32.873H27.1839V31.6782H26.1728V32.873ZM21.6264 33.981H19.5073C19.2013 33.981 18.9533 33.733 18.9533 33.427V31.1242C18.9533 30.8182 19.2013 30.5702 19.5073 30.5702H21.6264C21.9324 30.5702 22.1804 30.8182 22.1804 31.1242V33.427C22.1804 33.733 21.9324 33.981 21.6264 33.981ZM20.0613 32.873H21.0724V31.6782H20.0613V32.873ZM14.744 29.2538H10.3611C10.0551 29.2538 9.80717 29.0058 9.80717 28.6998V26.1349C9.80717 25.8289 10.0551 25.5809 10.3611 25.5809H14.744C15.05 25.5809 15.298 25.8289 15.298 26.1349V28.6998C15.298 29.0056 15.05 29.2538 14.744 29.2538ZM10.9151 28.1458H14.19V26.6889H10.9151V28.1458ZM8.14413 29.2538H3.76129C3.45527 29.2538 3.20731 29.0058 3.20731 28.6998V26.1349C3.20731 25.8289 3.45527 25.5809 3.76129 25.5809H8.14413C8.45015 25.5809 8.69811 25.8289 8.69811 26.1349V28.6998C8.69811 29.0056 8.45015 29.2538 8.14413 29.2538ZM4.31526 28.1458H7.59015V26.6889H4.31526V28.1458ZM27.7376 28.4609H25.6186C25.3125 28.4609 25.0646 28.213 25.0646 27.9069V25.6044C25.0646 25.2984 25.3125 25.0504 25.6186 25.0504H27.7376C28.0437 25.0504 28.2916 25.2984 28.2916 25.6044V27.9069C28.2916 28.213 28.0437 28.4609 27.7376 28.4609ZM26.1728 27.353H27.1839V26.1584H26.1728V27.353ZM21.6264 28.4609H19.5073C19.2013 28.4609 18.9533 28.213 18.9533 27.9069V25.6044C18.9533 25.2984 19.2013 25.0504 19.5073 25.0504H21.6264C21.9324 25.0504 22.1804 25.2984 22.1804 25.6044V27.9069C22.1804 28.213 21.9324 28.4609 21.6264 28.4609ZM20.0613 27.353H21.0724V26.1584H20.0613V27.353ZM14.744 24.2418H10.3611C10.0551 24.2418 9.80717 23.9939 9.80717 23.6878V21.1229C9.80717 20.8169 10.0551 20.569 10.3611 20.569H14.744C15.05 20.569 15.298 20.8169 15.298 21.1229V23.6878C15.298 23.9939 15.05 24.2418 14.744 24.2418ZM10.9151 23.1339H14.19V21.6769H10.9151V23.1339ZM8.14413 24.2418H3.76129C3.45527 24.2418 3.20731 23.9939 3.20731 23.6878V21.1229C3.20731 20.8169 3.45527 20.569 3.76129 20.569H8.14413C8.45015 20.569 8.69811 20.8169 8.69811 21.1229V23.6878C8.69811 23.9939 8.45015 24.2418 8.14413 24.2418ZM4.31526 23.1339H7.59015V21.6769H4.31526V23.1339ZM27.7376 22.9409H25.6186C25.3125 22.9409 25.0646 22.6929 25.0646 22.3869V20.0843C25.0646 19.7783 25.3125 19.5304 25.6186 19.5304H27.7376C28.0437 19.5304 28.2916 19.7783 28.2916 20.0843V22.3871C28.2916 22.6929 28.0437 22.9409 27.7376 22.9409ZM26.1728 21.8329H27.1839V20.6381H26.1728V21.8329ZM21.6264 22.9409H19.5073C19.2013 22.9409 18.9533 22.6929 18.9533 22.3869V20.0843C18.9533 19.7783 19.2013 19.5304 19.5073 19.5304H21.6264C21.9324 19.5304 22.1804 19.7783 22.1804 20.0843V22.3871C22.1804 22.6929 21.9324 22.9409 21.6264 22.9409ZM20.0613 21.8329H21.0724V20.6381H20.0613V21.8329ZM14.744 19.2299H10.3611C10.0551 19.2299 9.80717 18.9819 9.80717 18.6759V16.111C9.80717 15.805 10.0551 15.557 10.3611 15.557H14.744C15.05 15.557 15.298 15.805 15.298 16.111V18.6761C15.298 18.9819 15.05 19.2299 14.744 19.2299ZM10.9151 18.1219H14.19V16.6647H10.9151V18.1219ZM8.14413 19.2299H3.76129C3.45527 19.2299 3.20731 18.9819 3.20731 18.6759V16.111C3.20731 15.805 3.45527 15.557 3.76129 15.557H8.14413C8.45015 15.557 8.69811 15.805 8.69811 16.111V18.6761C8.69811 18.9819 8.45015 19.2299 8.14413 19.2299ZM4.31526 18.1219H7.59015V16.6647H4.31526V18.1219ZM27.7376 17.4208H25.6186C25.3125 17.4208 25.0646 17.1729 25.0646 16.8668V14.5643C25.0646 14.2583 25.3125 14.0103 25.6186 14.0103H27.7376C28.0437 14.0103 28.2916 14.2583 28.2916 14.5643V16.8668C28.2916 17.1729 28.0437 17.4208 27.7376 17.4208ZM26.1728 16.3129H27.1839V15.1183H26.1728V16.3129ZM21.6264 17.4208H19.5073C19.2013 17.4208 18.9533 17.1729 18.9533 16.8668V14.5643C18.9533 14.2583 19.2013 14.0103 19.5073 14.0103H21.6264C21.9324 14.0103 22.1804 14.2583 22.1804 14.5643V16.8668C22.1804 17.1729 21.9324 17.4208 21.6264 17.4208ZM20.0613 16.3129H21.0724V15.1183H20.0613V16.3129ZM27.7376 11.901H25.6186C25.3125 11.901 25.0646 11.653 25.0646 11.347V9.04423C25.0646 8.73822 25.3125 8.49026 25.6186 8.49026H27.7376C28.0437 8.49026 28.2916 8.73822 28.2916 9.04423V11.347C28.2916 11.6528 28.0437 11.901 27.7376 11.901ZM26.1728 10.793H27.1839V9.59821H26.1728V10.793ZM21.6264 11.901H19.5073C19.2013 11.901 18.9533 11.653 18.9533 11.347V9.04423C18.9533 8.73822 19.2013 8.49026 19.5073 8.49026H21.6264C21.9324 8.49026 22.1804 8.73822 22.1804 9.04423V11.347C22.1804 11.6528 21.9324 11.901 21.6264 11.901ZM20.0613 10.793H21.0724V9.59821H20.0613V10.793ZM15.5149 11.901H13.3958C13.0898 11.901 12.8419 11.653 12.8419 11.347V9.04423C12.8419 8.73822 13.0898 8.49026 13.3958 8.49026H15.5149C15.8209 8.49026 16.0689 8.73822 16.0689 9.04423V11.347C16.0689 11.6528 15.8209 11.901 15.5149 11.901ZM13.95 10.793H14.9612V9.59821H13.95V10.793ZM27.7376 6.38071H25.6186C25.3125 6.38071 25.0646 6.13275 25.0646 5.82673V3.52418C25.0646 3.21816 25.3125 2.9702 25.6186 2.9702H27.7376C28.0437 2.9702 28.2916 3.21816 28.2916 3.52418V5.82695C28.2916 6.13275 28.0437 6.38071 27.7376 6.38071ZM26.1728 5.27276H27.1839V4.07794H26.1728V5.27276ZM21.6264 6.38071H19.5073C19.2013 6.38071 18.9533 6.13275 18.9533 5.82673V3.52418C18.9533 3.21816 19.2013 2.9702 19.5073 2.9702H21.6264C21.9324 2.9702 22.1804 3.21816 22.1804 3.52418V5.82695C22.1804 6.13275 21.9324 6.38071 21.6264 6.38071ZM20.0613 5.27276H21.0724V4.07794H20.0613V5.27276ZM15.5149 6.38071H13.3958C13.0898 6.38071 12.8419 6.13275 12.8419 5.82673V3.52418C12.8419 3.21816 13.0898 2.9702 13.3958 2.9702H15.5149C15.8209 2.9702 16.0689 3.21816 16.0689 3.52418V5.82695C16.0689 6.13275 15.8209 6.38071 15.5149 6.38071ZM13.95 5.27276H14.9612V4.07794H13.95V5.27276Z" fill="#013485"/>
</svg>
