<svg width="38" height="30" viewBox="0 0 38 30" fill="none" xmlns="http://www.w3.org/2000/svg">
<path d="M37.7615 8.95277C37.5177 8.51562 37.118 8.19952 36.6364 8.06281L32.4072 6.86292C32.0751 6.76888 31.7298 6.96148 31.6355 7.29346C31.5414 7.62544 31.7341 7.97085 32.0661 8.06511L36.2953 9.265C36.6267 9.35904 36.8199 9.70519 36.7257 10.0366L31.6139 28.0531C31.5683 28.2137 31.4629 28.3468 31.3172 28.4281C31.1715 28.5094 31.0029 28.529 30.8487 28.4854L25.8111 26.9969H28.3633C29.3969 26.9969 30.2376 26.1561 30.2376 25.1225V2.11656C30.2376 1.083 29.3969 0.242249 28.3633 0.242249H9.63586C8.60229 0.242249 7.76155 1.083 7.76155 2.11656V25.1227C7.76155 26.1563 8.60229 26.997 9.63586 26.997H12.3964L7.15696 28.4836C6.99643 28.5292 6.82773 28.5096 6.68196 28.4282C6.53627 28.3469 6.43088 28.2137 6.38531 28.0531L1.27343 10.0366C1.17939 9.70512 1.37251 9.35911 1.70397 9.265L6.07226 8.02563C6.40424 7.93144 6.59691 7.58596 6.5028 7.25398C6.40862 6.922 6.06305 6.7294 5.73122 6.82343L1.36286 8.06281C0.368629 8.34499 -0.210721 9.38338 0.0713836 10.3776L5.18312 28.3942C5.31983 28.8759 5.63585 29.2754 6.07307 29.5193C6.35614 29.6773 6.66808 29.7577 6.98359 29.7577C7.15533 29.7577 7.32818 29.7338 7.498 29.6857L16.9743 26.997H21.4017L30.5014 29.6857C30.6713 29.7339 30.844 29.7577 31.0158 29.7577C31.3312 29.7577 31.6432 29.6773 31.9262 29.5193C32.3635 29.2754 32.6795 28.8759 32.8162 28.3942L37.9279 10.3776C38.0646 9.89601 38.0056 9.38999 37.7615 8.95277ZM21.4806 25.7475H9.63586C9.29134 25.7475 9.01109 25.4671 9.01109 25.1227V2.11656C9.01109 1.77204 9.29134 1.49179 9.63586 1.49179H28.3635C28.708 1.49179 28.9883 1.77204 28.9883 2.11656V25.1227C28.9883 25.4672 28.708 25.7475 28.3635 25.7475H21.4877C21.4853 25.7475 21.4829 25.7475 21.4806 25.7475Z" fill="#013485"/>
</svg>
