<svg id="Layer_1" data-name="Layer 1" xmlns="http://www.w3.org/2000/svg" viewBox="0 0 176.46 176.47"><defs><style>.cls-1{fill:#fff;}</style></defs><path class="cls-1" d="M185.8,178.28s0-.48,0-1.25c0-.26,0-.55,0-.86a7.92,7.92,0,0,0,0-1.81c-.1-1-.16-1.93-.2-2.65a7.86,7.86,0,0,0-.13-1.32c-.07-.36-.4-2.06-.67-3.78-.48-1.6-.9-3.24-1-3.63a5.41,5.41,0,0,0-.44-1.28c-.27-.67-.62-1.57-.93-2.46a9.07,9.07,0,0,0-.75-1.69c-.14-.27-.28-.53-.39-.79-.31-.63-.55-1.06-.55-1.06l-.54-1.16-.57-.89-.85-1.31a14.14,14.14,0,0,0-1.49-2.25c-.45-.59-.78-1-.78-1h0c-.57-.73-4.13-5.07-5.25-5.73l-.91-.79c-.2-.16-.42-.36-.64-.57a8.78,8.78,0,0,0-1.42-1.15c-1.58-1.07-3.14-2.23-3.21-2.28s-1.73-.92-3.35-1.88a9.77,9.77,0,0,0-1.64-.79c-.3-.11-.58-.22-.85-.35l-1-.44c-.87-.73-7.51-2.38-7.56-2.38h0l-1.06-.23a12.8,12.8,0,0,0-2.68-.41l-1.25-.17c-.52-.06-1-.13-1.44-.17H143l-1.22,0h-.13l-.66,0a9.68,9.68,0,0,0-1.89.05c-.95.1-1.9.15-2.61.2a6.09,6.09,0,0,0-1.38.14c-.4.09-2.06.42-3.76.66-1.63.49-3.3.92-3.66,1a5.76,5.76,0,0,0-1.27.45c-.67.26-1.56.61-2.44.92a9.64,9.64,0,0,0-1.77.8c-.25.13-.47.26-.69.36l-1.08.53-1.15.54-2.22,1.42a14.66,14.66,0,0,0-2.25,1.5l-.93.75h0a44.65,44.65,0,0,0-5.8,5.31h0l-.73.85a8.94,8.94,0,0,1-.61.7,7.88,7.88,0,0,0-1.11,1.38c-1.08,1.58-2.23,3.16-2.26,3.2s-.92,1.72-1.88,3.34a8.28,8.28,0,0,0-.82,1.71c-.11.28-.21.53-.33.77l-.49,1.11h0c-.93,1.32-2.35,7.29-2.36,7.36V167c0,.17-.14.57-.25,1.07a14.07,14.07,0,0,0-.41,2.72c-.12.94-.24,1.87-.34,2.63v1.21s0,.49,0,1.23a8.59,8.59,0,0,1,0,.87,7.9,7.9,0,0,0,0,1.81c.09.87.14,1.74.19,2.44a6.65,6.65,0,0,0,.17,1.55c.08.44.4,2.09.64,3.77.48,1.55.9,3.14,1,3.59a6.71,6.71,0,0,0,.54,1.56c.25.64.56,1.43.84,2.2a8.76,8.76,0,0,0,.76,1.72c.14.26.27.5.37.74.32.67.54,1.09.54,1.09l.54,1.13,1.42,2.23a14.63,14.63,0,0,0,1.51,2.25c.44.55.73.94.73.94h0c.56.72,4.13,5,5.26,5.74l.92.79c.19.15.39.34.6.54a7.92,7.92,0,0,0,1.46,1.18c1.59,1.07,3.15,2.22,3.21,2.26s1.72.92,3.35,1.88a8.36,8.36,0,0,0,1.68.82,7.4,7.4,0,0,1,.8.35l1,.45c.88.69,7.5,2.36,7.56,2.36h0l1.08.23a12.56,12.56,0,0,0,2.67.42l2.69.34h1.19l1.26,0h.13l.65,0c.28,0,.57,0,.88,0a6,6,0,0,0,1-.08c.89-.09,1.78-.15,2.48-.19a7.22,7.22,0,0,0,1.5-.16c.42-.08,2.07-.38,3.77-.65,1.6-.48,3.26-.91,3.64-1h0a6.66,6.66,0,0,0,1.57-.56l2.12-.83a7.47,7.47,0,0,0,1.71-.75c.27-.14.52-.28.78-.39l1.09-.52s.43-.23,1.13-.54l2.21-1.43a14.73,14.73,0,0,0,2.24-1.51l1-.74h0a42.31,42.31,0,0,0,5.78-5.31l.73-.88c.15-.19.35-.39.55-.61a7.76,7.76,0,0,0,1.18-1.44c1.07-1.59,2.23-3.13,2.28-3.2s.92-1.74,1.87-3.37a7.74,7.74,0,0,0,.85-1.74q.15-.39.3-.72c.3-.66.5-1.12.5-1.12l0,0c.93-1.32,2.36-7.34,2.36-7.4v-.06c0-.17.14-.56.25-1.08a15.3,15.3,0,0,0,.41-2.67c.12-.95.24-1.93.32-2.69Zm-.74-2.14c0,.33,0,.65,0,.9,0,.73,0,1.21,0,1.23v1.16c-.08.71-.2,1.68-.32,2.64a17.25,17.25,0,0,1-.39,2.57L184,185.8l-.11.44h0a64.76,64.76,0,0,1-2,6.51l-.05,0-.15.33s-.2.46-.49,1.1a8.15,8.15,0,0,0-.32.77,7.59,7.59,0,0,1-.78,1.6c-1,1.65-1.88,3.37-1.87,3.37h0s-1.2,1.58-2.29,3.21a7.32,7.32,0,0,1-1.08,1.31c-.22.24-.43.46-.58.65l-1.05,1.23.05,0a62.15,62.15,0,0,1-5,4.58l0,0-.33.27-1,.75a14.54,14.54,0,0,1-2.15,1.44l-2.17,1.4c-.67.3-1.11.54-1.11.54s-.46.21-1.06.51a7,7,0,0,0-.82.41,7.55,7.55,0,0,1-1.58.69c-.78.29-1.55.6-2.18.85l-1,.41-.36.09s-1.93.49-3.71,1c-1.93.3-3.84.66-3.84.66l-.32.06h0l-1,.07c-.71.05-1.62.11-2.54.2a9.15,9.15,0,0,1-1.75,0l-.69,0h-.15c-.72,0-1.2,0-1.22,0h-1.16c-.7-.1-1.67-.22-2.66-.34a12.33,12.33,0,0,1-2.54-.39l-1.2-.26-.42-.08v0c-1.29-.29-5.46-1.54-6.51-2l0,0-1.41-.63a8.64,8.64,0,0,0-.85-.37,7,7,0,0,1-1.55-.76c-1.65-1-3.35-1.88-3.35-1.88h0s-1.6-1.17-3.21-2.26a7.46,7.46,0,0,1-1.34-1.08c-.23-.22-.44-.42-.64-.58l-1.18-1,0,0a63.74,63.74,0,0,1-4.61-5.06h0l-.26-.34s-.3-.4-.76-1a15.12,15.12,0,0,1-1.44-2.15l-1.4-2.19-.53-1.11s-.21-.41-.52-1.06a7.36,7.36,0,0,0-.4-.79,7.71,7.71,0,0,1-.7-1.59c-.29-.8-.61-1.6-.86-2.24-.15-.38-.3-.76-.39-1h0l-.09-.34s-.48-1.91-1-3.68a25.76,25.76,0,0,0-.7-4c0-.17-.06-.7-.09-1.21,0-.71-.11-1.6-.2-2.51a8.43,8.43,0,0,1,0-1.66,7.42,7.42,0,0,0,0-.92c0-.72,0-1.22,0-1.22v-1.16c.1-.7.21-1.64.34-2.64a13.93,13.93,0,0,1,.39-2.56c.15-.7.27-1.18.27-1.18l.1-.39h0a61.87,61.87,0,0,1,2-6.53l.05,0,.65-1.46a8.14,8.14,0,0,0,.34-.82,7.72,7.72,0,0,1,.75-1.57c1-1.64,1.89-3.34,1.89-3.34h0s1.16-1.6,2.26-3.2a8,8,0,0,1,1-1.27c.25-.27.48-.52.64-.73l.8-.93.24-.29,0,0c.78-.88,4.09-3.84,5.07-4.6l0,0,.31-.24s.38-.3.94-.77a14.54,14.54,0,0,1,2.16-1.43l2.2-1.4c.64-.32,1.08-.51,1.09-.52l1.08-.53c.22-.1.47-.23.73-.38a8.74,8.74,0,0,1,1.63-.74c.91-.31,1.81-.67,2.49-.94l.82-.32.29-.07s1.91-.49,3.7-1c1.91-.27,3.83-.67,3.85-.67l.21,0,1-.06c.72-.05,1.68-.11,2.66-.21a9.15,9.15,0,0,1,1.75,0l.7,0h.13l1.22,0h1.17l1.37.18,1.28.16a13,13,0,0,1,2.56.39l1.17.26.38.08v0a62.29,62.29,0,0,1,6.54,2l0,.06.35.15,1.09.47c.26.13.56.25.89.38a8.3,8.3,0,0,1,1.51.72c1.63,1,3.34,1.88,3.35,1.88s1.6,1.19,3.2,2.28a8.16,8.16,0,0,1,1.3,1,6.88,6.88,0,0,0,.69.61l.91.79.28.25.05-.05a62.56,62.56,0,0,1,4.61,5.09l-.06,0,.28.31s.31.35.75.93a13.27,13.27,0,0,1,1.43,2.15l.86,1.34.54.83c.32.67.51,1.11.53,1.14s.23.43.53,1c.11.26.26.54.42.84a8.84,8.84,0,0,1,.69,1.55c.32.92.68,1.83.94,2.51l.34.86.06.23s.48,1.91,1,3.71c.29,1.89.67,3.8.68,3.82l0,.21c0,.21,0,.58.06.94,0,.73.11,1.71.21,2.7A8.63,8.63,0,0,1,185.06,176.14Z" transform="translate(-52.94 -88.21)"/><path class="cls-1" d="M127.74,123.89a7.21,7.21,0,0,0,7-8.79,7.29,7.29,0,0,0-7-5.63,7.62,7.62,0,0,0-1.57.17,7.21,7.21,0,0,0,1.56,14.25Zm-1.38-13.47a6.43,6.43,0,0,1,7.65,4.86,6.42,6.42,0,0,1-4.85,7.65,6.87,6.87,0,0,1-1.42.16,6.41,6.41,0,0,1-1.38-12.67Z" transform="translate(-52.94 -88.21)"/><path class="cls-1" d="M229.06,169.07a1.29,1.29,0,0,0-1.09-1.25s-1.72-.12-3.47-.22l-1.57-.1c-.05-.58-.1-1.07-.14-1.41s-.08-.66-.08-.66-.13-.78-.36-2l.61-.2.89-.3,3.32-1.15a1.31,1.31,0,0,0,.69-1.51l-.56-3.22c-.44-1.54-.83-3.09-.84-3.12a1.37,1.37,0,0,0-1.2-1.05l-3.59.4-1.56.18-.71-2.58-.5-1.34c.35-.2.74-.4,1.13-.61l.26-.14,3-1.7a1.28,1.28,0,0,0,.45-1.6l-1.15-3a26.9,26.9,0,0,0-1.32-3,1.4,1.4,0,0,0-1.46-.81l-3.41,1-1.47.46-.92-1.83-.94-1.85c.39-.31.81-.64,1.23-1,1.34-1.07,2.69-2.17,2.69-2.17a1.3,1.3,0,0,0,.13-1.68l-3.45-5.5a1.35,1.35,0,0,0-1.58-.54s-1.59.77-3.18,1.57l-.22.11-1.17.6-1.28-1.62s-.48-.64-1.25-1.64c.31-.36.68-.76,1.08-1.19,1.14-1.35,2.28-2.66,2.28-2.66a1.29,1.29,0,0,0-.13-1.68l-4.43-4.75a1.36,1.36,0,0,0-1.65-.3l-2.8,2.06-1.13.84-.14.11c-.93-.81-1.53-1.35-1.54-1.36L195,114.29l.7-1.14,1.92-3.23a1.31,1.31,0,0,0-.42-1.62l-.74-.64a17.91,17.91,0,0,0-1.79-1.4c-1.32-.91-2.62-1.86-2.63-1.87a1.37,1.37,0,0,0-1.67,0L188,106.94l-.73.77-.34.37c-1-.68-1.68-1.15-1.71-1.17l-1.76-1c.19-.45.39-1,.58-1.47.63-1.62,1.25-3.24,1.25-3.24a1.3,1.3,0,0,0-.71-1.54l-2.81-1.58a14.89,14.89,0,0,0-2-1c-.55-.26-.93-.42-.93-.42a1.35,1.35,0,0,0-1.65.32s-.95,1.46-1.95,2.9c-.28.46-.58.92-.85,1.32-1.14-.47-1.88-.8-1.88-.8l-1.9-.82,0-.22c.09-.41.18-.85.29-1.33l.63-3.4a1.27,1.27,0,0,0-1-1.38l-6.17-2a1.39,1.39,0,0,0-1.59.62s-.72,1.59-1.41,3.22c-.12.27-.23.54-.35.8l-.28.66-2-.45s-.81-.16-2-.42c0-.5,0-1.06,0-1.62,0-1.74.06-3.49.06-3.49a1.4,1.4,0,0,0-1.2-1.23l-6.42-.75a1.27,1.27,0,0,0-1.45.81l-.84,3.38c-.11.55-.23,1.07-.35,1.54-1.24,0-2.05-.07-2.07-.07s-.81,0-2,0l0-.18c-.06-.44-.13-.92-.21-1.39l-.56-3.44a1.28,1.28,0,0,0-1.33-1h-1a21.71,21.71,0,0,0-2.26.1l-3.24.23a1.34,1.34,0,0,0-1.28,1.09s-.1,1.74-.24,3.48c0,.54,0,1.07-.07,1.56l-1,.09-.45,0a5.31,5.31,0,0,1-.61.08l-2,.37-.34-1-.17-.49c-.57-1.65-1.13-3.31-1.14-3.35a1.38,1.38,0,0,0-1.51-.66s-1.58.27-3.2.58l-3.13.83a1.32,1.32,0,0,0-1,1.28l.36,3.51c.07.53.14,1.07.2,1.55l-2,.55-1.13.37-.81.3-.74-1.4c-.85-1.5-1.68-3-1.69-3a1.34,1.34,0,0,0-1.62-.43s-1.51.6-3,1.15a26.54,26.54,0,0,0-3,1.33,1.34,1.34,0,0,0-.8,1.47s.47,1.69,1,3.35c.14.53.3,1,.45,1.52-1.12.55-1.83.91-1.84.92s-.7.37-1.83.94c-.31-.39-.64-.82-1-1.24L98,100.58a1.34,1.34,0,0,0-1.67-.12l-5.51,3.46a1.34,1.34,0,0,0-.52,1.59l1.55,3.16.45.89c.1.18.19.35.27.52-1,.75-1.64,1.26-1.64,1.26l-1.63,1.25-.43-.37-.76-.69c-1.33-1.14-2.64-2.29-2.66-2.31a1.41,1.41,0,0,0-1.69.16L79,113.82a1.3,1.3,0,0,0-.28,1.64s1,1.39,2,2.79l.18.24.77,1-1.37,1.55s-.53.62-1.35,1.53c-.42-.25-.88-.52-1.34-.82l-3-1.81a1.38,1.38,0,0,0-1.6.42s-.28.3-.68.76A22.1,22.1,0,0,0,71,123c-.92,1.32-1.85,2.62-1.85,2.62a1.31,1.31,0,0,0,0,1.68s1.26,1.19,2.51,2.41c.4.36.8.74,1.16,1.08l-1.19,1.69-1,1.76-.44-.17-1-.42-3.24-1.22a1.32,1.32,0,0,0-1.53.69l-1.56,2.81a18.57,18.57,0,0,0-1,2c-.26.55-.41.91-.41.91a1.32,1.32,0,0,0,.33,1.65l4.22,2.82-.81,1.88s-.33.74-.82,1.88l-.52-.1-1-.21c-1.72-.34-3.41-.65-3.41-.65l-.17,0A1.33,1.33,0,0,0,58,147l-2,6.18a1.32,1.32,0,0,0,.6,1.58l3.22,1.43.35.15,1.12.47c-.28,1.21-.44,2-.44,2s-.19.83-.43,2l-5.13-.09A1.35,1.35,0,0,0,54.09,162l-.77,6.42a1.3,1.3,0,0,0,.84,1.47s1.68.4,3.38.84l1.52.33L59,173.1s0,.79,0,2l-1.1.16-3.92.63a1.33,1.33,0,0,0-1,1.34,25.86,25.86,0,0,0,.08,3.29c.14,1.6.26,3.19.26,3.19a1.32,1.32,0,0,0,1.06,1.3l3.5.24.91,0,.65,0,0,.44c0,.39.06.73.09,1s.1.6.1.6.13.81.35,2l-.83.27-4,1.38a1.33,1.33,0,0,0-.72,1.5s.3,1.59.59,3.22l.83,3.12a1.34,1.34,0,0,0,1.2,1.05l3.57-.36.43,0,1.16-.15c.32,1.19.54,2,.54,2s.06.2.17.63l.25.68.24.65-1.38.73L59,205.77a1.33,1.33,0,0,0-.4,1.62l1.15,3a23.7,23.7,0,0,0,1.32,3,1.35,1.35,0,0,0,1.46.81s1.69-.5,3.38-1l1.51-.46.91,1.82s.36.75.93,1.85l-3.91,3.17a1.28,1.28,0,0,0-.15,1.66l3.46,5.51a1.38,1.38,0,0,0,1.59.54s1.58-.79,3.16-1.55c.41-.22.83-.43,1.22-.62l.19-.1c.77,1,1.26,1.63,1.26,1.64s.5.63,1.26,1.61l-.62.71-.44.5c-1.16,1.31-2.31,2.64-2.31,2.64a1.36,1.36,0,0,0,.15,1.71l4.43,4.72a1.33,1.33,0,0,0,1.63.28s1.41-1,2.82-2l.76-.58.5-.37c.93.84,1.55,1.36,1.55,1.36l1.54,1.36-.83,1.35c-.89,1.51-1.78,3-1.79,3a1.39,1.39,0,0,0,.41,1.64s.32.25.76.64a18.39,18.39,0,0,0,1.78,1.37l2.65,1.9a1.34,1.34,0,0,0,1.66,0s1.21-1.25,2.4-2.5l.56-.6.53-.57,1.69,1.2,1.77,1c-.12.3-.24.63-.37.95l-.21.52c-.63,1.62-1.24,3.26-1.24,3.26a1.28,1.28,0,0,0,.69,1.52l2.81,1.57a16.61,16.61,0,0,0,2,1l.92.42a1.39,1.39,0,0,0,1.65-.32l2.48-3.71c.12-.18.23-.36.35-.53l1.87.84,1.89.8-.32,1.55c-.32,1.7-.66,3.4-.66,3.42a1.3,1.3,0,0,0,1,1.33l6.17,2a1.3,1.3,0,0,0,1.59-.59s.71-1.6,1.43-3.2c.18-.43.36-.86.53-1.25l.09-.22,2,.44s.78.18,2,.42c0,.49,0,1.05,0,1.6,0,1.74,0,3.51,0,3.52a1.35,1.35,0,0,0,1.18,1.2l6.45.8a1.32,1.32,0,0,0,1.44-.84s.41-1.68.81-3.39l.37-1.51c1.22,0,2.06,0,2.07,0l2,0c0,.14.05.29.07.44.05.37.11.76.18,1.15l.55,3.43a1.31,1.31,0,0,0,1.33,1h0s.37,0,.94,0a21.23,21.23,0,0,0,2.34-.12l3.23-.24a1.29,1.29,0,0,0,1.26-1.08l.24-3.49c0-.54,0-1.08.08-1.55l.47-.05,1-.08.6-.12,2-.34.49,1.51c.59,1.64,1.14,3.28,1.15,3.29a1.3,1.3,0,0,0,1.52.73l3.2-.6,3.13-.83a1.34,1.34,0,0,0,1.05-1.3s-.2-1.73-.38-3.45l0-.3c-.06-.45-.11-.89-.15-1.3,1.15-.31,1.92-.54,1.93-.54s.24,0,.63-.17.77-.27,1.3-.47l.05,0,.34.64.4.74c.87,1.52,1.7,3,1.7,3a1.33,1.33,0,0,0,1.6.41s1.51-.55,3-1.14a23.08,23.08,0,0,0,3-1.33,1.29,1.29,0,0,0,.81-1.46l-1-3.38c-.17-.52-.33-1-.47-1.5l1.83-.92,1.86-.92.3.38.68.85,2.19,2.7a1.34,1.34,0,0,0,1.66.15l5.5-3.47a1.35,1.35,0,0,0,.54-1.61l-1.55-3.15-.72-1.43c1-.74,1.62-1.23,1.62-1.23l1.63-1.28.59.53.6.54c1.35,1.15,2.66,2.3,2.66,2.3a1.38,1.38,0,0,0,1.7-.13l4.74-4.44a1.32,1.32,0,0,0,.29-1.64l-2.07-2.82-.93-1.25c.8-.94,1.34-1.53,1.35-1.54s.54-.61,1.34-1.56l4.39,2.64a1.36,1.36,0,0,0,1.6-.4s.29-.32.65-.78a16.15,16.15,0,0,0,1.4-1.79l1.87-2.62a1.32,1.32,0,0,0,0-1.67s-1.27-1.23-2.52-2.42l-.79-.73-.37-.34c.7-1,1.17-1.66,1.19-1.69l1-1.78.4.16,1.06.43c1.63.61,3.25,1.24,3.27,1.25a1.35,1.35,0,0,0,1.51-.72l1.58-2.81a17,17,0,0,0,1-2c.25-.56.43-.93.43-.94a1.35,1.35,0,0,0-.33-1.65s-1.45-1-2.91-2l-1.11-.71-.21-.13c.48-1.13.82-1.87.83-1.89s.31-.77.8-1.9l.14,0c.45.1.93.21,1.41.29l3.41.66h.16a1.38,1.38,0,0,0,1.2-1l2-6.17a1.28,1.28,0,0,0-.61-1.59l-3.2-1.41-1.26-.54-.21-.09c.27-1.22.44-2,.44-2s.16-.8.43-2c.51,0,1.06,0,1.6,0h0l3.5.08a1.42,1.42,0,0,0,1.23-1.21l.75-6.42a1.25,1.25,0,0,0-.8-1.45s-1.7-.44-3.38-.83l-.57-.14-1-.23c0-1.24.06-2,.06-2.06s0-.82,0-2l1.58-.24,3.45-.56a1.34,1.34,0,0,0,1-1.35,25.43,25.43,0,0,0-.1-3.27Zm-.46,6.48c0,.33-.2.58-.32.59l-3.44.56-1.92.3-.33.06v.46c0,1.32,0,2.23,0,2.23s0,.87-.06,2.18a.82.82,0,0,0,0,.22v.32l.32.07,1.28.3.57.14c1.68.39,3.36.83,3.38.83a.52.52,0,0,1,.2.55l-.74,6.41c-.07.31-.32.54-.44.54l-3.5-.08c-.65,0-1.3,0-1.93,0l-.42.05v.42c-.3,1.31-.48,2.18-.48,2.18s-.17.88-.44,2.09a.7.7,0,0,0-.06.33v.27l.75.32c.39.16.82.34,1.26.54,1.6.69,3.18,1.4,3.19,1.4a.52.52,0,0,1,.17.6l-2,6.17c-.1.26-.31.44-.46.44,0,0-1.71-.34-3.42-.65l-1.37-.29-.82-.18-.17.46c-.53,1.22-.87,2.06-.87,2.06s-.37.81-.88,2c0,0,0,.07,0,.06l-.35.35.93.59,1.1.7,2.9,2a.58.58,0,0,1,.06.65s-.18.37-.45.95a16,16,0,0,1-1,1.91l-1.59,2.82a.58.58,0,0,1-.54.36l-3.24-1.25-1.07-.42-1.05-.42L210,220s-.56.77-1.37,1.94l-.2.29.25.23c.19.19.41.38.63.59l.78.72,2.52,2.42a.6.6,0,0,1-.1.63l-1.86,2.62a15.16,15.16,0,0,1-1.36,1.72,10,10,0,0,1-.64.78c-.16.19-.42.34-.6.24l-3-1.78-1.82-1.14-.2.11a1,1,0,0,0-.24.2c-.87,1-1.46,1.69-1.46,1.69s-.6.66-1.48,1.69l-.4.23.28.36c.35.45.75,1,1.14,1.52l2.06,2.81a.57.57,0,0,1-.19.59L198,242.92a.73.73,0,0,1-.64.11s-1.31-1.16-2.65-2.3l-.59-.53-.84-.75-.21-.18-.24.13-.18.12-1.78,1.39-1.83,1.39-.34.18,1,2.07c.78,1.57,1.55,3.15,1.55,3.15a.61.61,0,0,1-.27.6l-5.47,3.45a.62.62,0,0,1-.63,0l-2.18-2.69-.68-.85-.51-.64-.23-.22-.28.13a.68.68,0,0,0-.16.09l-2,1-2,1-.43.24.08.31c.16.55.36,1.19.56,1.82l1,3.36c0,.15-.11.41-.4.54a23.49,23.49,0,0,1-2.91,1.29c-1.52.59-3,1.14-3,1.15-.23.11-.53.06-.6-.06s-.83-1.53-1.7-3l-.39-.73-.5-.93-.11-.22h-.24a.5.5,0,0,0-.2,0l-.34.12c-.51.2-.93.36-1.24.46s-.55.14-.6.15-.92.28-2.26.63l-.33.09,0,.34c.05.51.11,1.07.18,1.65l0,.29c.18,1.73.37,3.46.37,3.46s-.17.36-.46.44l-3.1.82-3.16.6a.64.64,0,0,1-.63-.21s-.55-1.65-1.14-3.28c-.2-.64-.42-1.3-.6-1.83l-.11-.33-2.67.45s-.25,0-.57.12-.58,0-1,.08l-.62.05-.16,0h-.37l0,.37c0,.56-.08,1.24-.09,1.9l-.25,3.48c0,.12-.21.31-.52.33l-3.24.24a20.08,20.08,0,0,1-2.27.12c-.54,0-.89,0-.92,0a.59.59,0,0,1-.56-.32l-.55-3.46c-.07-.38-.13-.76-.18-1.12s-.08-.54-.12-.79l-.06-.34h-.46l-2.25,0s-.88,0-2.18,0h0l-.43-.19-.57,2.33c-.4,1.7-.82,3.38-.82,3.38s-.28.21-.57.23l-6.42-.79c-.29,0-.5-.28-.5-.41s0-1.76.05-3.5c0-.68,0-1.35,0-1.94v-.24l-.21-.11a.38.38,0,0,0-.24-.06c-1.3-.27-2.17-.47-2.18-.47l-2.2-.48-.14-.05h-.35l-.33.78c-.17.39-.35.82-.52,1.24-.72,1.59-1.43,3.2-1.44,3.21a.49.49,0,0,1-.59.14l-6.19-2c-.28-.09-.44-.34-.42-.43s.33-1.71.65-3.41l.4-1.88.16-.48h-.49l-.11,0-2-.85-2-.91-.44-.22-.2.31-.53.81-2.48,3.7a.66.66,0,0,1-.66,0s-.35-.16-.93-.43a16,16,0,0,1-1.93-1l-2.81-1.57c-.27-.15-.38-.42-.34-.52s.62-1.64,1.25-3.27l.2-.51c.18-.45.35-.9.5-1.3l.12-.32-.3-.17c-1.21-.66-2-1.13-2-1.13s-.81-.56-1.94-1.38l-.29-.21-.24.27-.77.82-.55.6c-1.19,1.25-2.4,2.49-2.41,2.5-.15.17-.43.05-.62-.08l-2.64-1.88a18.12,18.12,0,0,1-1.71-1.32c-.45-.39-.77-.65-.77-.65a.64.64,0,0,1-.24-.63s.89-1.48,1.78-3l1-1.64.17-.39-.37-.2-1.69-1.49-1.67-1.47-.28.28.19-.38-.24-.24-.28.21c-.24.17-.5.37-.77.58l-.76.57-2.82,2c-.1.08-.4,0-.57-.19l-4.42-4.72a.58.58,0,0,1-.13-.64s1.15-1.33,2.3-2.63l.44-.51.85-1,.34-.39-.4-.2,0,0-1.36-1.74s-.55-.72-1.34-1.72a.26.26,0,0,0-.07-.1l-.17-.38-.86.43c-.4.2-.83.41-1.23.63-1.57.75-3.15,1.54-3.23,1.55a.7.7,0,0,1-.5-.28l-3.44-5.49a.52.52,0,0,1,0-.61L68.51,218l1.78-1.39-.16-.3a.42.42,0,0,0-.08-.12c-.61-1.18-1-2-1-2l-1-2a.43.43,0,0,0-.07-.1l-.14-.32-.34.1-1.82.55-3.4,1a.68.68,0,0,1-.5-.41,25.52,25.52,0,0,1-1.28-2.9l-1.16-3c-.11-.29,0-.58.07-.63l3-1.7,1.68-.9.3-.15-.1-.32-.07-.18-.3-.82c-.1-.27-.18-.5-.24-.64-.1-.4-.16-.61-.16-.61s-.26-.94-.63-2.29l-.1-.34-.34,0-1.49.18-3.91.41c-.14,0-.34-.18-.43-.46l-.82-3.08c-.28-1.6-.58-3.19-.58-3.19a.63.63,0,0,1,.19-.61l3.29-1.14.68-.23,1.17-.39.32-.12-.06-.33c-.26-1.38-.41-2.33-.41-2.34s0-.21-.1-.56-.05-.59-.08-1l0-.62a.35.35,0,0,0,0-.13v-.38l-.38,0c-.31,0-.65,0-1-.06l-.9,0-3.5-.24a.6.6,0,0,1-.31-.54s-.12-1.61-.26-3.22a24.47,24.47,0,0,1-.08-3.2.63.63,0,0,1,.32-.58l3.9-.62,1.44-.2.35,0v-.5c0-1.35,0-2.22,0-2.22s0-.91.06-2.25l0-.47-.3-.08c-.57-.14-1.22-.28-1.87-.41-1.68-.43-3.36-.83-3.36-.83s-.28-.31-.25-.6l.78-6.4a.57.57,0,0,1,.41-.5l3.5,0,2.23.07.14-.47c.27-1.32.47-2.19.47-2.2s.18-.87.49-2.25l0-.4-.23-.11c-.42-.2-.92-.41-1.43-.62l-3.56-1.57a.6.6,0,0,1-.16-.62l2-6.17c.08-.26.29-.46.46-.42l3.39.65,1,.21.84.17.31.06.14-.29a.88.88,0,0,0,.07-.2c.51-1.19.86-2,.86-2l.89-2.06-.37-.16.43.05L67,143l-4.78-3.21a.57.57,0,0,1-.06-.65l.42-.92a20.06,20.06,0,0,1,1-1.95l1.57-2.8a.58.58,0,0,1,.54-.35l3.24,1.23,1,.41.76.3.32.14,1.32-2.34,1.57-2.22-.25-.24c-.42-.4-.91-.87-1.41-1.33-1.24-1.2-2.51-2.39-2.51-2.39a.57.57,0,0,1,.09-.64s.93-1.3,1.86-2.63c.48-.69,1-1.32,1.32-1.74s.66-.74.68-.75a.69.69,0,0,1,.6-.26l3,1.8c.49.32,1,.62,1.45.89l.48.26.22-.24a.47.47,0,0,0,.11-.13c.88-1,1.45-1.64,1.45-1.64l1.47-1.67a.65.65,0,0,0,.18-.21l.09-.22-.13-.18c-.29-.41-.62-.84-1-1.31l-.18-.24c-1-1.39-2-2.78-2-2.78s0-.38.19-.6L84.33,110a.74.74,0,0,1,.62-.12l2.63,2.29.77.69.68.6.37.17.27-.27c1-.81,1.75-1.34,1.76-1.35l1.82-1.39a.63.63,0,0,0,.12-.11l.2-.2-.13-.26c-.12-.25-.27-.53-.41-.82s-.31-.58-.45-.88L91,105.16a.59.59,0,0,1,.25-.58l5.49-3.45a.63.63,0,0,1,.63,0l2.18,2.69c.41.52.83,1,1.18,1.51l.26.39.32-.34.08,0c1.18-.59,2-1,2-1s.77-.39,2-1a1.59,1.59,0,0,0,.18-.08l.31-.16-.1-.32c-.18-.55-.38-1.18-.55-1.84-.5-1.66-1-3.34-1-3.35s.1-.4.39-.54a27.34,27.34,0,0,1,2.91-1.29c1.5-.55,3-1.15,3-1.15a.74.74,0,0,1,.64.07s.84,1.53,1.69,3c.31.6.63,1.2.91,1.71l.26.47.33-.33,0,0,1-.35,3.72-1.09,0-.34c-.06-.56-.14-1.24-.24-1.9l-.36-3.49c0-.1.16-.35.46-.43l3.1-.82c1.59-.3,3.17-.57,3.17-.57a.68.68,0,0,1,.62.16s.56,1.67,1.13,3.32l.17.49.45,1.34.1.34.35-.07,2.3-.43s.25,0,.6-.08l.43,0,1.16-.11H133l0-.37c0-.58.08-1.27.1-1.92.14-1.73.24-3.48.24-3.48s.23-.31.54-.34l3.24-.24c.82-.08,1.65-.1,2.2-.1s1,0,1,0c.31,0,.55.17.56.3l.56,3.46c.08.47.15.93.2,1.36l.13.87h.49c1.34,0,2.23,0,2.23,0l2.26.08h.45l.07-.3c.15-.56.3-1.2.44-1.87l.83-3.37c0-.1.24-.25.58-.21l6.39.75a.64.64,0,0,1,.53.43S156,92.3,156,94c0,.68,0,1.37,0,1.95l-.06.4h.42l.16-.36,0,.4,2.18.46,2.29.5.36.13.14-.36c.12-.3.26-.62.41-1l.34-.81c.69-1.61,1.4-3.19,1.4-3.19a.65.65,0,0,1,.63-.19l6.16,2c.3.1.46.33.43.46l-.63,3.39c-.11.47-.2.92-.29,1.34l-.16.75.17.16a.5.5,0,0,0,.25.13l2.06.89s.79.35,2,.85a.85.85,0,0,0,.15.09l.32.18.2-.31c.32-.48.7-1.06,1.05-1.62,1-1.43,1.95-2.9,1.95-2.9a.64.64,0,0,1,.66,0l.93.42a15.14,15.14,0,0,1,1.93,1l2.81,1.58c.29.16.4.42.35.54s-.61,1.63-1.25,3.26c-.23.62-.49,1.25-.7,1.76l-.14.33,2.34,1.35,2,1.35.28.19.23-.25.59-.62.72-.76,2.41-2.54a.8.8,0,0,1,.63.08s1.32,1,2.71,1.92a18.5,18.5,0,0,1,1.64,1.29l.76.66c.25.21.32.5.26.6l-1.78,3-.14.21c-.31.51-.62,1-.88,1.44l-.17.41.37.2,1.68,1.46s.66.6,1.67,1.46l.2.44.82-.61,1.12-.83c1.38-1,2.79-2,2.79-2s.43,0,.61.2l4.43,4.75a.51.51,0,0,1,.1.6l-2.32,2.7c-.44.48-.88,1-1.25,1.38l-.17.2.11.23a.75.75,0,0,0,.14.19l1.35,1.79s.56.72,1.36,1.72a.5.5,0,0,0,.15.22l.21.22.26-.15c.45-.24,1-.49,1.47-.75l.22-.12c1.58-.79,3.17-1.56,3.25-1.57a.72.72,0,0,1,.5.28l3.42,5.47a.54.54,0,0,1,0,.63s-1.35,1.11-2.7,2.18c-.46.39-.92.75-1.33,1.07l-.4.31.14.29.09.15,1,2,1,2c0,.05.06.12.1.18l.17.25.29-.09,1.81-.57c1.68-.5,3.36-1,3.4-1a.64.64,0,0,1,.49.4,25,25,0,0,1,1.29,2.92l1.15,3a.6.6,0,0,1-.08.63s-1.53.85-3,1.7l-.26.13-1.44.78-.35.18.25.5c.21.59.4,1.11.53,1.44l.88,3.21.34,0,1.91-.22,3.49-.39a.62.62,0,0,1,.43.47s.4,1.57.83,3.08l.56,3.19a.62.62,0,0,1-.18.61l-3.3,1.15-.9.29-.92.3-.34.1.06.35c.26,1.41.42,2.33.42,2.33s0,.24.08.61.1.93.15,1.55v.53l.38,0,1.92.12,3.47.21c.12,0,.31.22.34.53l.24,3.24A28.69,28.69,0,0,1,228.6,175.55Z" transform="translate(-52.94 -88.21)"/><path class="cls-1" d="M170.09,130.79a7.2,7.2,0,1,0-3.18-4.52A7.15,7.15,0,0,0,170.09,130.79Zm-1.55-9.52a6.37,6.37,0,0,1,5.41-3,6.44,6.44,0,0,1,3.43,1,6.41,6.41,0,1,1-8.84,2Z" transform="translate(-52.94 -88.21)"/><path class="cls-1" d="M81.46,182.65a7.23,7.23,0,0,0-7.06,8.78,7.27,7.27,0,0,0,7.06,5.63,7.36,7.36,0,0,0,1.55-.17,7.25,7.25,0,0,0,5.45-8.62A7.15,7.15,0,0,0,81.46,182.65Zm1.37,13.46a6.32,6.32,0,0,1-1.37.15A6.4,6.4,0,0,1,80,183.61a6.72,6.72,0,0,1,1.42-.16,6.35,6.35,0,0,1,6.22,5A6.45,6.45,0,0,1,82.83,196.11Z" transform="translate(-52.94 -88.21)"/><path class="cls-1" d="M201,155.81a7.2,7.2,0,0,0-1.6.18,7.19,7.19,0,0,0-5.45,8.61,7.18,7.18,0,0,0,7,5.63,7,7,0,0,0,1.57-.18,7.2,7.2,0,0,0,4.53-3.21,7.2,7.2,0,0,0-6.08-11Zm5.4,10.61a6.35,6.35,0,0,1-4,2.85,6.61,6.61,0,0,1-1.4.16,6.39,6.39,0,0,1-6.25-5,6.38,6.38,0,0,1,4.85-7.65,6.18,6.18,0,0,1,1.42-.16,6.4,6.4,0,0,1,5.4,9.81Z" transform="translate(-52.94 -88.21)"/><path class="cls-1" d="M196.76,203.1a7.2,7.2,0,1,0-3.85,13.3,7.15,7.15,0,0,0,6.09-3.35A7.24,7.24,0,0,0,196.76,203.1Zm1.57,9.52a6.36,6.36,0,0,1-5.42,3,6.41,6.41,0,1,1,0-12.82,6.32,6.32,0,0,1,3.42,1A6.44,6.44,0,0,1,198.33,212.62Z" transform="translate(-52.94 -88.21)"/><path class="cls-1" d="M154.58,229a6.93,6.93,0,0,0-1.57.17,7.21,7.21,0,0,0,1.56,14.24,7.22,7.22,0,0,0,7.06-8.79A7.28,7.28,0,0,0,154.58,229ZM160,239.6a6.34,6.34,0,0,1-4,2.82,6.89,6.89,0,0,1-1.43.16,6.41,6.41,0,0,1-1.39-12.66,6.59,6.59,0,0,1,1.4-.15,6.48,6.48,0,0,1,6.27,5A6.4,6.4,0,0,1,160,239.6Z" transform="translate(-52.94 -88.21)"/><path class="cls-1" d="M112.27,222.09a7.21,7.21,0,0,0-10,2.23,7.19,7.19,0,0,0,6.08,11.05,7.2,7.2,0,0,0,3.87-13.28Zm1.55,9.5a6.41,6.41,0,0,1-8.82,2,6.4,6.4,0,0,1,3.42-11.82,6.39,6.39,0,0,1,5.4,9.82Z" transform="translate(-52.94 -88.21)"/><path class="cls-1" d="M96.48,142.1a7.22,7.22,0,0,0-7-5.63,7.19,7.19,0,0,0-7,8.78,7.2,7.2,0,0,0,14.06-3.15Zm-1.63,5a6.38,6.38,0,1,1,.85-4.82A6.36,6.36,0,0,1,94.85,147.09Z" transform="translate(-52.94 -88.21)"/></svg>