<svg id="Layer_1" data-name="Layer 1" xmlns="http://www.w3.org/2000/svg" viewBox="0 0 75.15 75.79"><defs><style>.cls-1{fill:#fff;}</style></defs><path class="cls-1" d="M332,331.92a5.56,5.56,0,0,0-2.76-.73,5.66,5.66,0,0,0-4.92,2.87,2.4,2.4,0,0,0-.14.28h0a5.68,5.68,0,0,0-.34,4.09l.07.2.09.27c0,.11.1.23.17.37l0,.09a5.58,5.58,0,0,0,2.27,2.37,2.36,2.36,0,0,0,.44.21l.12.06a2.92,2.92,0,0,0,.49.19l.5.14.25,0,.3.05.36,0h.71l.49-.06.51-.1.12,0a3.09,3.09,0,0,0,.37-.12l.06,0a3.63,3.63,0,0,0,.43-.18l.11-.05.39-.21a3.18,3.18,0,0,0,.36-.24l.09-.06L333,341l.29-.27V341l.88-1.42a5.66,5.66,0,0,0-2.16-7.67Zm1.57,7.08-.23.38a6.87,6.87,0,0,1-.52.71l-.06.05c-.1.11-.2.21-.32.32l-.05,0-.29.24-.07,0-.28.19-.09,0a2.88,2.88,0,0,1-.31.17l-.1.05-.41.16-.34.11,0,.4-.15-.38a2.57,2.57,0,0,1-.44.09l-.51.05h-.33l-.17,0-.28,0-.21,0-.69-.16a3.21,3.21,0,0,1-.45-.18,3.51,3.51,0,0,1-.43-.22,4.79,4.79,0,0,1-1.93-2l0-.11c-.06-.12-.11-.24-.16-.36s-.06-.15-.09-.25l-.05-.15a4.86,4.86,0,0,1,.32-3.57l.14-.28a4.83,4.83,0,0,1,6.54-1.74,4.86,4.86,0,0,1,2,6.38Z" transform="translate(-300.4 -283.56)"/><path class="cls-1" d="M326.33,316.51a4.26,4.26,0,0,0,.3-.32l.18-.2.15-.2c.07-.1.15-.21.21-.31s.13-.2.19-.3a5.61,5.61,0,0,0,.51-4.3,5.54,5.54,0,0,0-2.66-3.37,5.64,5.64,0,1,0-2.77,10.55,5.59,5.59,0,0,0,3.76-1.44Zm-.28-.86-.17.18-.12.11a5,5,0,0,1-5.7.7,4.85,4.85,0,0,1,2.38-9.06,5,5,0,0,1,2.38.62,4.85,4.85,0,0,1,1.85,6.58l-.17.27-.23.32-.11.14Z" transform="translate(-300.4 -283.56)"/><path class="cls-1" d="M356.39,325.14a5.58,5.58,0,0,0-2.74-.72,5.68,5.68,0,0,0-4.95,2.88c-.13.25-.24.49-.34.73l.05,0A5.58,5.58,0,0,0,350.9,335a5.19,5.19,0,0,0,1.47.58,5.86,5.86,0,0,0,1.26.14,5.64,5.64,0,0,0,2.76-10.56Zm1.46,7.28a4.83,4.83,0,0,1-4.22,2.48,4.9,4.9,0,0,1-1.08-.12,4.48,4.48,0,0,1-1.26-.5,4.79,4.79,0,0,1-1.93-6.39l-.05,0,.09-.17a4.89,4.89,0,0,1,4.25-2.47,4.75,4.75,0,0,1,2.35.62A4.83,4.83,0,0,1,357.85,332.42Z" transform="translate(-300.4 -283.56)"/><path class="cls-1" d="M345.66,320.84l0-.16a2.6,2.6,0,0,1-.05-.39,1.65,1.65,0,0,0-.09-.49.39.39,0,0,0,0-.11,1.34,1.34,0,0,0-.13-.54l0-.12a.58.58,0,0,1-.05-.16c0-.08,0-.14-.06-.2a1.3,1.3,0,0,0-.1-.18,3.48,3.48,0,0,1-.16-.41,2.43,2.43,0,0,0-.18-.32,1.76,1.76,0,0,1-.12-.2,1.08,1.08,0,0,0-.17-.31l-.07-.09a.58.58,0,0,0-.1-.13l-.07-.12-.07-.12a1,1,0,0,0-.18-.21l-.27.3.19-.38c-.06-.06-.11-.13-.16-.19a1.33,1.33,0,0,0-.2-.24c-.2-.16-.32-.29-.33-.29l-.13-.13a.94.94,0,0,0-.14-.12l-.21-.15-.11-.09a1,1,0,0,0-.33-.23c-.16-.09-.32-.2-.55-.36l-.47-.22a1.37,1.37,0,0,0-.46-.2.68.68,0,0,1-.15,0l-.15-.07-.18-.08-.21,0a3,3,0,0,1-.48-.14l-.24,0a1.3,1.3,0,0,1-.22,0l-.16,0a1.57,1.57,0,0,0-.24,0h-.42l-.14,0h-.11l-.25,0h-.34l-.27,0a3.8,3.8,0,0,1-.4.07h-.09l-.19,0-.35.1-.13,0a1.92,1.92,0,0,0-.47.15.58.58,0,0,1-.17.05,1.48,1.48,0,0,0-.42.16,1.38,1.38,0,0,1-.37.16l-.21.09-.38.23a1.8,1.8,0,0,0-.4.25l-.09.07-.19.13a.94.94,0,0,0-.29.23,1.37,1.37,0,0,1-.33.25l-.12.12a3.73,3.73,0,0,1-.32.36l-.17.16-.14.2a1.33,1.33,0,0,1-.15.18l-.12.15-.14.19c0,.05,0,.09-.06.12a4.32,4.32,0,0,1-.31.46,2.6,2.6,0,0,0-.11.27h0a7.6,7.6,0,0,0-.82,2.88V321a7.43,7.43,0,0,0,.05,1.4c0,.08,0,.16,0,.2a2,2,0,0,0,.08.48c0,.18.08.36.14.55a.84.84,0,0,0,.07.17h0a2,2,0,0,0,.11.36.83.83,0,0,0,.09.24s0,.1.11.25l.05.1a1.6,1.6,0,0,0,.1.23l.06.11a1.59,1.59,0,0,1,.13.22l.18.31a1,1,0,0,0,.13.17l.23.34.12.17.13.11a1.83,1.83,0,0,1,.13.16l.15.19.09.1c.16.12.27.23.28.23h0l.18.19.17.14.13.09.35.29.14.07a1.45,1.45,0,0,1,.34.23l.28.15a2.27,2.27,0,0,1,.41.21l.18.09.14,0,.1,0,.25.1.24.1.13,0,.11,0,.38.11a1.61,1.61,0,0,0,.35.06l.21,0,.23,0,.15,0h.08l.08-.4v.4h.14l.25,0h.69a.9.9,0,0,0,.24,0l.47-.07h.16l.16,0,.2,0,0-.4.17.37a1.45,1.45,0,0,0,.53-.16l.18,0,.25-.09a1.09,1.09,0,0,0,.23-.09l.37-.17a2.35,2.35,0,0,0,.39-.21l.52-.33a1,1,0,0,0,.15-.1l.09-.05.2-.15.16-.13a1.59,1.59,0,0,1,.29-.24c.1-.1.21-.2.36-.37l.16-.16c.11-.12.2-.24.3-.36l.19-.25a2.65,2.65,0,0,0,.23-.35,2.25,2.25,0,0,1,.25-.35l.09-.16a2.3,2.3,0,0,1,.21-.44l.11-.23c0-.11.08-.22.1-.3a1.74,1.74,0,0,1,.12-.24l.08-.25v-.13a2,2,0,0,1,.15-.48l0-.15a1.39,1.39,0,0,1,.07-.44c0-.11,0-.21,0-.31v-.36a1,1,0,0,0,0-.48A3.72,3.72,0,0,1,345.66,320.84Zm-.78.84,0,.06V322a1,1,0,0,0,0,.18.42.42,0,0,1,0,.13,2.43,2.43,0,0,0-.09.55,3.25,3.25,0,0,0-.17.6v.14a1.5,1.5,0,0,0-.18.38.91.91,0,0,1-.08.23,1.16,1.16,0,0,1-.06.15,2.51,2.51,0,0,0-.25.49,2.88,2.88,0,0,0-.26.39l-.06.09-.14.21a1.91,1.91,0,0,0-.19.24l-.22.29a1.79,1.79,0,0,0-.24.24l-.26.25c-.11.09-.22.18-.31.27h0l-.2.16-.18.11-.14.09-.43.28-.32.17a4.08,4.08,0,0,0-.42.19l.18.35-.32-.3a.6.6,0,0,1-.19.06,2.54,2.54,0,0,0-.34.13.92.92,0,0,1-.29.08l-.19,0-.27.07.05.39-.15-.38-.61.08h-.66a1.54,1.54,0,0,0-.39-.05l-.32,0-.15,0a1.71,1.71,0,0,0-.3-.05l-.17,0a2.67,2.67,0,0,0-.44-.12l-.16-.05-.21-.08-.08,0a1,1,0,0,0-.25-.09l-.1,0,0-.05h-.07a5.21,5.21,0,0,0-.58-.29l-.05,0a3,3,0,0,0-.47-.3l-.14-.1a.76.76,0,0,0-.25-.19l-.14-.11-.09-.07-.07-.08a2.57,2.57,0,0,0-.37-.33.32.32,0,0,0-.06-.08l-.06-.08a1.94,1.94,0,0,0-.29-.31l-.35-.51s-.07-.08-.07,0l-.08-.18c0-.05-.05-.09-.06-.09h0l-.2-.35a1.11,1.11,0,0,1-.09-.19l0-.08a2.45,2.45,0,0,0-.15-.33l0-.1a3.32,3.32,0,0,1-.12-.39.73.73,0,0,1-.06-.14c0-.15-.08-.3-.13-.51a1,1,0,0,1,0-.3c0-.11,0-.21-.05-.34a7.4,7.4,0,0,1,0-1.15v-.25a6.85,6.85,0,0,1,.77-2.6l.16-.31a4.3,4.3,0,0,0,.25-.4l.06-.09a.65.65,0,0,0,.11-.15,1.11,1.11,0,0,0,.24-.3l.16-.17a3.56,3.56,0,0,0,.39-.44,2.21,2.21,0,0,0,.43-.34,1.7,1.7,0,0,1,.21-.18l.33-.21a.7.7,0,0,1,.18-.11,3.36,3.36,0,0,0,.41-.25l.12,0a2.35,2.35,0,0,0,.51-.24l.2-.06a3.3,3.3,0,0,0,.34-.11,1.07,1.07,0,0,1,.27-.08l.15,0c.14,0,.26-.06.35-.08h0l.1,0,.52-.08h.46a1.11,1.11,0,0,0,.23,0l.21,0,.53,0,.11,0a1.61,1.61,0,0,0,.39.07h.09a3.53,3.53,0,0,0,.63.17l.12.05.18.08a1.14,1.14,0,0,0,.26.09.48.48,0,0,1,.21.09,4.59,4.59,0,0,0,.52.24,5.3,5.3,0,0,0,.61.39l.14.1c.06.06.14.14.17.14l.27.21.09.09a3.62,3.62,0,0,0,.38.34.45.45,0,0,1,.1.13,1,1,0,0,0,.19.21,1,1,0,0,0,.15.18l.08.1a1.42,1.42,0,0,0,.14.23l.08.1.1.13a1.41,1.41,0,0,1,.1.21l.15.25.09.15a3.11,3.11,0,0,0,.26.59l0,.13c0,.07,0,.16.07.24l.05.13a.71.71,0,0,1,.08.31c0,.1,0,.19.08.29a.85.85,0,0,1,.05.25,3,3,0,0,0,.06.52v.09a4.08,4.08,0,0,0,0,.61A.66.66,0,0,1,344.88,321.68Z" transform="translate(-300.4 -283.56)"/><path class="cls-1" d="M375.38,315.29a6.3,6.3,0,0,0-.11-.7c-.19-.87-.56-1.92-1.16-1.92l-.17,0a2.8,2.8,0,0,1-.31.09l-.1,0a7.35,7.35,0,0,1-2.93,0,9.47,9.47,0,0,1-1.47-.42,10.91,10.91,0,0,1-1.47-.58l-.12,0c-.21-.59-.38-1.1-.5-1.49a5.48,5.48,0,0,0-.25-.55c0-.05-.35-.84-.88-2a.56.56,0,0,1-.05-.08,9.13,9.13,0,0,1,3.57-4.92l.28-.16.06,0c.2-.08.51-.32.26-1.07a4.55,4.55,0,0,0-.64-1.23l-.76-1.09c-.45-.66-1.13-1.33-1.64-1.33a.55.55,0,0,0-.37.13l-.34.3a8.87,8.87,0,0,1-5.6,1.66h-.24c-.95-.88-1.54-1.48-1.58-1.51a4.06,4.06,0,0,1-.44-.4l-.45-.36c-.22-.18-.49-.38-.82-.66l-.06,0a9.28,9.28,0,0,1,1.06-6l.25-.35a.52.52,0,0,0,.11-.44c-.1-.59-1.12-1.25-1.41-1.43a7.13,7.13,0,0,0-.64-.38c-.29-.14-.56-.3-.58-.3a4,4,0,0,0-1.66-.52.66.66,0,0,0-.67.38,2.28,2.28,0,0,1-.15.36,9.15,9.15,0,0,1-4.42,4l-.1.05h0l-.35-.13c-.46-.16-.84-.3-1.16-.4s-.57-.16-.57-.16-.86-.24-2.08-.55l-.14,0a9.14,9.14,0,0,1-1.63-5.86,2.57,2.57,0,0,1,.06-.4c.06-.24,0-.59-.7-.86a5.12,5.12,0,0,0-1.36-.26l-1.34-.08-.38,0c-.29,0-1.28,0-1.64.46a.51.51,0,0,0-.14.38v.44a9,9,0,0,1-2.23,5.52l-.09.1h0c-1.27.18-2.11.28-2.11.28a5.86,5.86,0,0,0-.64.1c-.38.09-.89.21-1.54.34l-.11,0a14.59,14.59,0,0,1-2.42-2,7.45,7.45,0,0,1-1.58-2.59l-.06-.19a1.12,1.12,0,0,0,0-.15h0c0-.19-.17-.5-.81-.5a5.28,5.28,0,0,0-1.54.31l-1.22.53c-.24.11-1.44.67-1.64,1.26a.54.54,0,0,0,0,.45,4.23,4.23,0,0,1,.2.38,6.79,6.79,0,0,1,.66,2.85,10.22,10.22,0,0,1-.29,3.11l0,.12a12.76,12.76,0,0,0-1.14.7l-.23.15-.45.33-.49.34-.23.16a8.61,8.61,0,0,0-1,.78l-.14.11a12.8,12.8,0,0,1-3.06-.76,7.15,7.15,0,0,1-2.52-1.61l-.09-.1a1.7,1.7,0,0,0-.22-.24.53.53,0,0,0-.42-.18c-.58,0-1.38.77-1.71,1.11l-.93,1a3.17,3.17,0,0,0-.89,1.86.53.53,0,0,0,.25.4,1.93,1.93,0,0,1,.33.24,7,7,0,0,1,1.84,2.28,12.69,12.69,0,0,1,1.06,2.92l0,.13c-.69,1.09-1.14,1.8-1.15,1.83s-.4.76-1,2v0a13.67,13.67,0,0,1-3.07.67,7.84,7.84,0,0,1-3-.37l-.17-.07-.24-.1-.21,0c-.63,0-1.14,1.17-1.32,1.79l-.38,1.31c-.07.25-.4,1.53-.05,2.06a.53.53,0,0,0,.4.24l.38.07a9.18,9.18,0,0,1,4.92,3.44l.05.07a13.55,13.55,0,0,0-.14,1.59c0,.37-.06.58-.06.6l0,.74a13.47,13.47,0,0,0,0,1.45v.1a11.64,11.64,0,0,1-2.53,1.94,7,7,0,0,1-2.8,1h-.23a.82.82,0,0,0-.63.21c-.4.45-.26,1.68-.21,2,0,0,0,.34.09.67l.11.68c.09.45.44,1.92,1.18,1.92l.56-.12a7.29,7.29,0,0,1,2.95,0,10.26,10.26,0,0,1,1.46.4c.59.21,1.07.4,1.49.59l.1.05v0l.3.89c.07.22.13.42.2.59.14.35.23.55.23.55s.34.8.87,2l.06.13a8.93,8.93,0,0,1-3.62,4.94,1.48,1.48,0,0,1-.33.18c-.3.16-.37.52-.22,1.07a4.38,4.38,0,0,0,.65,1.24l.77,1.08c.45.66,1.13,1.33,1.64,1.33a.59.59,0,0,0,.39-.15,1.55,1.55,0,0,1,.32-.27,8.88,8.88,0,0,1,5.69-1.68h.15c.93.89,1.55,1.5,1.57,1.52s.16.14.44.42l1.32,1a9.47,9.47,0,0,1-1.07,6,3.75,3.75,0,0,1-.27.36.59.59,0,0,0-.07.46c.15.6,1.14,1.24,1.43,1.41l.6.36.6.31a4.1,4.1,0,0,0,1.67.53.63.63,0,0,0,.65-.37,1.78,1.78,0,0,1,.12-.29l.05-.1a9.25,9.25,0,0,1,4.43-4l.07,0h0l.87.32.62.22c.36.08.54.14.58.15l2.13.57h.08A9.16,9.16,0,0,1,333,357.7c0,.17,0,.34-.06.43-.07.24,0,.59.69.87a6.22,6.22,0,0,0,1.35.26l1.34.08h.36a2.69,2.69,0,0,0,1.66-.44.55.55,0,0,0,.16-.39,1.93,1.93,0,0,0,0-.24v-.22a8.9,8.9,0,0,1,2.22-5.52l.08-.1h0l2.15-.26.62-.1,1.53-.35.11,0a13,13,0,0,1,2.43,2,7.3,7.3,0,0,1,1.57,2.51l0,.13c0,.11.05.23.08.34s.25.44.81.44a4.81,4.81,0,0,0,1.53-.32l1.24-.53c.34-.15,1.44-.66,1.63-1.24a.54.54,0,0,0,0-.45,1.68,1.68,0,0,1-.19-.38,7.45,7.45,0,0,1-.7-2.84,12.7,12.7,0,0,1,.31-3.13l0-.11a9.89,9.89,0,0,0,1.17-.73l.66-.45.55-.39c.31-.22.73-.51,1.24-.94l.06-.07a11.58,11.58,0,0,1,3.08.77,7.2,7.2,0,0,1,2.56,1.67,2.37,2.37,0,0,0,.23.23.52.52,0,0,0,.45.23,3.18,3.18,0,0,0,1.7-1.11l.93-1a3.07,3.07,0,0,0,.89-1.84.54.54,0,0,0-.23-.39,3.19,3.19,0,0,1-.33-.25,7.14,7.14,0,0,1-1.86-2.29,14.07,14.07,0,0,1-1.08-2.92l0-.09,0,0c.67-1.09,1.13-1.81,1.15-1.85s.39-.78.93-1.89a.86.86,0,0,0,.1-.16,13.37,13.37,0,0,1,3.07-.63,7.12,7.12,0,0,1,3,.36l.38.17.22,0c.73,0,1.24-1.5,1.34-1.81l.35-1.29c.1-.35.39-1.55.05-2.06a.55.55,0,0,0-.38-.25l-.21,0-.19,0a9.27,9.27,0,0,1-4.9-3.44l-.07-.09a9.23,9.23,0,0,0,.13-1.23c0-.13,0-.25,0-.35,0-.38,0-.6,0-.6s0-.23,0-.58a9.4,9.4,0,0,0,0-1.6v-.13a12.33,12.33,0,0,1,2.5-1.93,7.3,7.3,0,0,1,2.85-1h.44a.63.63,0,0,0,.41-.23,3.38,3.38,0,0,0,.2-2Zm-.69,2.11h-.33a8,8,0,0,0-3.16,1.07,12.53,12.53,0,0,0-2.6,2h-.42l.1.48a1.58,1.58,0,0,1,0,.31,8.37,8.37,0,0,1,0,1.51q0,.58,0,.63a5,5,0,0,1,0,.54c0,.12,0,.24,0,.38a9.54,9.54,0,0,1-.13,1.16l0,.1a1.86,1.86,0,0,0,0,.33v.35l.4.06a9.93,9.93,0,0,0,5.27,3.59l.19,0,.09,0a3.68,3.68,0,0,1-.17,1.33l-.35,1.27a4.9,4.9,0,0,1-.56,1.21l-.33-.14a7.86,7.86,0,0,0-3.35-.4,13.6,13.6,0,0,0-3.17.63l-.29-.14-.17.38a3.48,3.48,0,0,1-.17.31c-.55,1.13-.94,1.9-.94,1.9s-.47.75-1.1,1.78a3.58,3.58,0,0,0-.24.34l-.21.32.38.26a13.87,13.87,0,0,0,1.11,2.95,7.78,7.78,0,0,0,2.05,2.53l.27.2a3.66,3.66,0,0,1-.69,1.13l-.92,1a3.47,3.47,0,0,1-1,.83,2.47,2.47,0,0,1-.23-.23,7.75,7.75,0,0,0-2.79-1.81,12.44,12.44,0,0,0-3.18-.81l-.19-.24-.32.24c-.12.1-.21.17-.3.26-.45.38-.86.67-1.2.91l-.49.35-.67.45a8.72,8.72,0,0,1-1.09.69l-.2.11-.12.07-.36.18.22.42a12.72,12.72,0,0,0-.29,3.2,8.13,8.13,0,0,0,.75,3.12,1.66,1.66,0,0,0,.16.33,4,4,0,0,1-1.13.68l-1.22.52a4,4,0,0,1-1.24.27h-.07s0-.1,0-.15l0-.18a8,8,0,0,0-1.75-2.83,13.45,13.45,0,0,0-2.54-2.12l-.18-.24-.32.07-.28.06-1.5.35-2.73.35-.28,0H340v.47a9.58,9.58,0,0,0-2.31,5.91v.34a3.11,3.11,0,0,1-1.33.14l-1.33-.08a4.66,4.66,0,0,1-1.12-.21l-.18-.08c0-.11,0-.22.05-.35a9.9,9.9,0,0,0-1.69-6.26l.12-.37-.48-.06-.16,0-.15,0-2.07-.54a5.12,5.12,0,0,0-.58-.16l-.56-.2-.83-.3a2.36,2.36,0,0,0-.28-.12l-.49-.2-.16.44a10,10,0,0,0-4.64,4.3l0,.11-.1.2a3.79,3.79,0,0,1-1.25-.43l-.59-.32-.56-.33a3.5,3.5,0,0,1-1-.84c.06-.09.13-.18.19-.28a10.1,10.1,0,0,0,1.21-6.36l.25-.23-1.85-1.46c-.26-.26-.43-.41-.43-.41l-1.51-1.45a1.54,1.54,0,0,0-.17-.19.34.34,0,0,1-.08-.09l-.25-.33-.39.32a9.65,9.65,0,0,0-6,1.83,3.7,3.7,0,0,0-.29.24,3.23,3.23,0,0,1-.92-.95l-.78-1.09a3.87,3.87,0,0,1-.53-1,1.36,1.36,0,0,1,0-.2l.27-.16a9.65,9.65,0,0,0,3.88-5.21l.38-.12-.27-.44a2,2,0,0,1-.15-.29c-.53-1.18-.87-2-.87-2s-.09-.19-.22-.51l-.18-.56c-.09-.26-.19-.57-.31-.91l0-.1c0-.1-.07-.2-.12-.3l-.15-.3-.37.11c-.4-.18-.86-.36-1.42-.55a10.51,10.51,0,0,0-1.57-.43,7.9,7.9,0,0,0-3.29,0l-.3.08a3.33,3.33,0,0,1-.46-1.24l-.11-.67c-.05-.31-.09-.64-.09-.65a3.71,3.71,0,0,1,0-1.34h.32a7.72,7.72,0,0,0,3.16-1.08,12.16,12.16,0,0,0,2.61-2h.32v-.78a12.27,12.27,0,0,1,0-1.38l0-.71s0-.21.06-.7,0-.84.12-1.38a2,2,0,0,0,.08-.41l.06-.4-.45-.07a10,10,0,0,0-5.27-3.6L302,313a3.61,3.61,0,0,1,.17-1.32l.37-1.3a3.11,3.11,0,0,1,.59-1.18l.09,0,.22.09a8.42,8.42,0,0,0,3.33.41A14,14,0,0,0,310,309l.36.17.14-.44a1,1,0,0,0,0-.1c0-.07.08-.15.07-.16.57-1.15,1-1.89,1-1.89s.46-.75,1.16-1.84l.35-.63-.35-.24a13.9,13.9,0,0,0-1.09-3,7.84,7.84,0,0,0-2-2.51,1.79,1.79,0,0,0-.28-.22,3.47,3.47,0,0,1,.68-1.14l.92-1a3.66,3.66,0,0,1,1.05-.84l.1.12.11.13a8.25,8.25,0,0,0,2.81,1.8,14.11,14.11,0,0,0,3.2.81l.23.18.36-.29.21-.16a6.88,6.88,0,0,1,1-.75l.23-.17.49-.34.45-.33.21-.14c.29-.19.65-.43,1.13-.69l.12-.07.22-.13.33-.23-.26-.36a11.07,11.07,0,0,0,.27-3.15,7.61,7.61,0,0,0-.74-3.15,2.8,2.8,0,0,0-.15-.3,4.12,4.12,0,0,1,1.15-.71l1.19-.52a4.51,4.51,0,0,1,1.32-.26l0,.08c0,.08.05.16.07.23a8.19,8.19,0,0,0,1.74,2.86,14.1,14.1,0,0,0,2.49,2.08l.06.32.55-.14A.71.71,0,0,0,331,292c.63-.12,1.15-.24,1.52-.33s.52-.08.55-.09.85-.1,2.08-.27l.24,0H336l0-.5a9.72,9.72,0,0,0,2.31-5.89v-.32a2.89,2.89,0,0,1,1.31-.14l1.34.08a4.35,4.35,0,0,1,1.12.2l.18.09c0,.11,0,.22-.05.33a9.92,9.92,0,0,0,1.7,6.3l-.06.33.49.09.23,0,2.09.55.53.15,1.13.4.29.1.24.11.5.22.19-.46a9.66,9.66,0,0,0,4.63-4.28,2.2,2.2,0,0,0,.15-.31,3.58,3.58,0,0,1,1.26.42l.59.31a5.35,5.35,0,0,1,.56.34,3.7,3.7,0,0,1,1,.84l-.19.27a10.32,10.32,0,0,0-1.2,6.44l-.11.24.21.2a1.7,1.7,0,0,0,.3.23c.29.24.55.46.79.64l.4.32a5.76,5.76,0,0,0,.45.41c.06.06.65.65,1.56,1.5a2.1,2.1,0,0,0,.26.29l.3.24.28-.31a9.68,9.68,0,0,0,6.06-1.84l.25-.22a3.08,3.08,0,0,1,.93.95l.76,1.1a3.54,3.54,0,0,1,.53,1,1.28,1.28,0,0,1,.05.17l-.3.18a9.72,9.72,0,0,0-3.86,5.24l-.27.14.16.34a3.39,3.39,0,0,0,.15.32c.53,1.18.87,2,.88,2s.1.19.22.48.28.89.5,1.48l.22.74.46-.15a11.76,11.76,0,0,0,1.4.54,10.37,10.37,0,0,0,1.59.45,8.25,8.25,0,0,0,3.26,0l.1,0,.22-.05a4.21,4.21,0,0,1,.45,1.25,6.11,6.11,0,0,1,.1.64l.11.67A3.61,3.61,0,0,1,374.69,317.4Z" transform="translate(-300.4 -283.56)"/><path class="cls-1" d="M348.38,311.08a3.26,3.26,0,0,0,.44-.15l.26-.1.34-.16,0,0a2.62,2.62,0,0,0,.42-.24l.1-.06a3.4,3.4,0,0,0,.4-.28c.12-.1.24-.2.34-.3l-.27-.29.35.22c.11-.1.21-.22.37-.4s.2-.25.3-.39l.09-.1v0c.08-.12.16-.25.23-.38a5.64,5.64,0,0,0-4.91-8.39,5.65,5.65,0,0,0-4.92,2.88l-.12.25c-.07.13-.12.26-.18.39l-.09.24-.19.65.4.08-.42,0a4.46,4.46,0,0,0-.08.52c0,.17,0,.33,0,.54s0,.34,0,.55,0,.32.06.41v.12c0,.15.06.3.1.44l0,.11a3.59,3.59,0,0,0,.12.35l.4,0-.36.18.13.3c0,.07.07.15.11.24l.15.26a1.53,1.53,0,0,0,.1.17,1.61,1.61,0,0,0,.13.19l.18.27.09.1.2.24.13.13.22.22.16.14a5.76,5.76,0,0,0,.89.62c.16.09.33.17.49.24l.27.1a1.24,1.24,0,0,0,.28.11l.34.09.16,0,.16,0,.4.07h.11l.5,0a4.26,4.26,0,0,0,.51,0,5.08,5.08,0,0,0,1-.17Zm-.22-.77a4.91,4.91,0,0,1-.93.17h-.42l-.43,0h-.1l-.31-.06-.15,0-.14,0-.34-.09-.2-.08-.23-.09-.44-.21a5.3,5.3,0,0,1-.57-.39v0l-.21-.11-.28-.26-.13-.14-.23-.27-.18-.25-.1-.16a1.07,1.07,0,0,1-.12-.21l-.11-.18a1.21,1.21,0,0,1-.08-.19l-.16-.38c0-.11-.07-.22-.1-.28l0-.13c0-.12-.06-.24-.09-.42s0-.28,0-.44a3.46,3.46,0,0,1,0-.46c0-.15,0-.29,0-.49l.06-.4-.39-.08.42,0,.17-.57a1.66,1.66,0,0,1,.06-.16,2.41,2.41,0,0,1,.15-.33l.11-.24a4.85,4.85,0,0,1,4.22-2.46,5,5,0,0,1,2.37.62,4.83,4.83,0,0,1,1.85,6.58c-.08.14-.17.28-.26.41l-.09.1v0l-.17.22-.07.08a3.32,3.32,0,0,1-.25.27l-.09.08c-.09.08-.18.17-.35.3l-.28.2-.11.06a2.43,2.43,0,0,1-.35.2L349,310l-.22.1-.18.07-.38.14Z" transform="translate(-300.4 -283.56)"/></svg>