<svg id="Layer_1" data-name="Layer 1" xmlns="http://www.w3.org/2000/svg" viewBox="0 0 96.27 79.62">
    <defs>
        <style>
            .cls-1 {
                fill: #fff;
            }
        </style>
    </defs>
    <path class="cls-1"
        d="M198.26,287.36a7,7,0,0,1,1.43-.38l.21,0-.23-11-.06-.24h-.37c-.46.07-.86.11-1.16.15a3.13,3.13,0,0,0-.67.1l-.43.11-.34.07a7.83,7.83,0,0,0-.94.23c-.2.08-.42.15-.64.22a8.63,8.63,0,0,0-1.1.39l-.65.28-.42.18-.25.11,5.42,9.87Zm-4.75-9.62.67-.3a7.33,7.33,0,0,1,1-.36c.24-.08.47-.15.67-.23a7.71,7.71,0,0,1,.87-.21l.37-.08.47-.11.16,0,.4-.05,1-.12.22,10.28a7.51,7.51,0,0,0-1.11.29l-4.94-9Z"
        transform="translate(-161.16 -254.26)" />
    <path class="cls-1"
        d="M240.35,289c0-.19,0-.4-.08-.63a15.33,15.33,0,0,0-.24-1.52l-.69-3.08a1.93,1.93,0,0,0-2.15-1.56c-.33,0-2.8,0-5.18.22-1.14.1-2.43.25-3.54.4l-.46.08c0-.08-.07-.15-.1-.23-.12-.25-.22-.5-.32-.73a12.23,12.23,0,0,0-.55-1.17l-.38-.7-.38-.68-.22-.39-.23-.41-.51-.75-.29-.42c.59-.67,1.6-1.85,2.58-3.11.67-.85,1.39-1.82,2.12-2.89l.89-1.32a1.38,1.38,0,0,0,.47-.94,2.34,2.34,0,0,0-.6-1.69,9.5,9.5,0,0,0-.68-.75l-.1-.11-1.43-1.4a20.17,20.17,0,0,0-1.61-1.47l-.76-.61a1.9,1.9,0,0,0-2.63-.05c-.12.09-.61.44-1.28,1-.87.67-1.89,1.5-2.8,2.28-1.32,1.14-2.47,2.25-3,2.72l-.2-.13a12.82,12.82,0,0,0-1.34-.74l-.49-.26-.68-.35a3.63,3.63,0,0,0-.76-.36l-1.93-.78-.2-.07h0l0-.38v-.09c.05-.67.16-2,.2-3.53.09-2.4,0-4.86,0-5.2a1.48,1.48,0,0,0-.21-1.12,2.15,2.15,0,0,0-1.47-.93l-3.1-.56-3.11-.26a2.11,2.11,0,0,0-1.72.57,1.47,1.47,0,0,0-.44,1c-.1.32-.85,2.67-1.39,5-.26,1.1-.52,2.36-.72,3.46,0,.16-.06.32-.09.46l-.24,0-2.05.25a4.45,4.45,0,0,0-.81.14l-.77.17-.55.12a14.58,14.58,0,0,0-1.49.37l-.22.07c-.38-.65-1.19-2-2.15-3.39-.66-1-1.43-2-2.1-2.93-.51-.68-.89-1.15-1-1.27a1.54,1.54,0,0,0-1.51-.87,2.53,2.53,0,0,0-1,.23l-.9.39a21,21,0,0,0-1.94,1l-1.88,1.06c-.51.31-.83.54-.84.55a2.34,2.34,0,0,0-1,1.49,1.33,1.33,0,0,0,.21,1c0,.14.24.71.51,1.51.45,1.25.87,2.34,1.3,3.33.58,1.39,1.22,2.74,1.68,3.68l-.36.3-.72.63-.63.65c-.35.35-.55.56-.56.56l-.54.57a12.06,12.06,0,0,0-.81,1l-.52.65-.16.2c-.13-.06-.28-.12-.43-.2-.63-.27-1.9-.8-3.32-1.3-2.24-.82-4.61-1.48-4.93-1.57a1.41,1.41,0,0,0-.7-.19,2.19,2.19,0,0,0-1.79,1.15s-.73,1.4-1.46,2.78a14.76,14.76,0,0,0-.62,1.4l-.25.61-.36.91a2.33,2.33,0,0,0-.11,1.55,1.49,1.49,0,0,0,.89,1c.26.19,2.29,1.63,4.35,2.87,1.35.81,2.7,1.55,3.49,2v0a1.42,1.42,0,0,0,0,.22c-.32,1.69-.52,2.82-.53,2.84s-.09,1.14-.23,2.87v.24c-.75.17-2.29.53-3.88,1-2.3.66-4.63,1.52-4.94,1.63a1.54,1.54,0,0,0-1.12.72,2.36,2.36,0,0,0-.3,1.51s0,.39.12,1c0,.2,0,.41.08.65.05.46.12,1,.23,1.51l.69,3.08a2.06,2.06,0,0,0,1.8,1.61h0a1.49,1.49,0,0,0,.36-.05c.33,0,2.8,0,5.17-.23,1.13-.09,2.42-.24,3.54-.4l.14,0,.33-.05a2.29,2.29,0,0,0,.1.23l.34.77c.19.45.36.84.52,1.14l.38.68.39.68c.07.14.16.3.26.47l.19.34c.14.22.31.47.49.73l.31.44c-1,1.11-1.85,2.16-2.58,3.11s-1.53,2-2.13,2.89l-.89,1.32a1.35,1.35,0,0,0-.46.93,2.32,2.32,0,0,0,.59,1.7s.26.32.68.75l.82.81.71.7a16.63,16.63,0,0,0,1.62,1.46l.75.62a1.9,1.9,0,0,0,2.64,0c.12-.09.61-.44,1.28-1s1.64-1.29,2.79-2.28c.9-.77,1.92-1.71,3-2.72l.2.12c.5.32,1,.56,1.34.76l.5.25.68.36a4.59,4.59,0,0,0,.75.34l1.85.75.28.1h0c0,.15,0,.31,0,.48-.09,1.06-.17,2.34-.21,3.53-.08,2.39,0,4.86.05,5.19a1.43,1.43,0,0,0,.21,1.12,2.18,2.18,0,0,0,1.46.93l3.1.56,3.12.26H199a2.08,2.08,0,0,0,1.49-.59,1.43,1.43,0,0,0,.44-1c.1-.32.85-2.67,1.38-5,.35-1.46.6-2.8.73-3.48,0-.16.06-.31.08-.46h.24l.56-.07,1.5-.18a5.26,5.26,0,0,0,.81-.13l.77-.18.54-.12c.41-.09.93-.2,1.49-.38l.22-.07c.4.67,1.22,2,2.15,3.4s1.69,2.37,2.11,2.93.89,1.14,1,1.26a1.54,1.54,0,0,0,1.5.88,2.54,2.54,0,0,0,1-.23l.89-.4a17.15,17.15,0,0,0,2-1c.68-.39,1.36-.78,1.88-1.06s.82-.54.83-.55a2.34,2.34,0,0,0,1-1.48,1.4,1.4,0,0,0-.21-1l-.52-1.51c-.45-1.28-.88-2.37-1.29-3.34-.62-1.47-1.29-2.87-1.69-3.67l.18-.15.31-.26c.21-.18.41-.35.6-.53l.31-.32.32-.32.56-.57s.19-.21.54-.56.51-.59.83-1l.5-.62.15-.2.44.19c1,.45,2.25.93,3.31,1.31,2.24.81,4.61,1.47,4.93,1.56a1.33,1.33,0,0,0,.71.2,2.2,2.2,0,0,0,1.79-1.16l1.45-2.78a11.37,11.37,0,0,0,.63-1.41l.25-.6.36-.9a2.4,2.4,0,0,0,.11-1.55,1.51,1.51,0,0,0-.9-1c-.27-.2-2.28-1.63-4.34-2.86-1.35-.82-2.71-1.56-3.49-2l.06-.25c.31-1.69.52-2.81.53-2.84s.08-1.14.23-2.86a1.93,1.93,0,0,0,0-.24c1-.23,2.45-.57,3.89-1,2.3-.66,4.62-1.52,4.94-1.64a1.51,1.51,0,0,0,1.12-.7,2.41,2.41,0,0,0,.3-1.52S240.42,289.57,240.35,289Zm-.6,2.23a1,1,0,0,1-.76.49h-.08s-2.49.94-4.94,1.64c-1.52.44-3,.8-4.05,1l-.2,0v.41a1.62,1.62,0,0,1,0,.21c-.14,1.69-.23,2.82-.23,2.82s-.21,1.15-.52,2.81a1,1,0,0,1-.06.21,1.94,1.94,0,0,0,0,.2l-.05.19.17.09c.75.39,2.21,1.17,3.65,2.06,2.19,1.3,4.32,2.84,4.34,2.85l.07,0a1,1,0,0,1,.61.66,1.91,1.91,0,0,1-.09,1.21l-.36.9c-.08.18-.16.38-.25.6a14.49,14.49,0,0,1-.61,1.37l-1.45,2.77c-.43.74-1.3,1.1-1.82.76l-.07,0s-2.55-.7-4.93-1.56c-1.05-.38-2.25-.85-3.28-1.3l-.6-.26-.19-.09-.12.16-.27.34-.5.63c-.31.39-.58.72-.8,1s-.54.56-.54.56l-.56.56-.31.32-.31.32c-.17.16-.36.32-.57.5l-.31.25-.33.29-.15.12.09.18c.37.75,1.1,2.24,1.76,3.82.41.95.83,2,1.28,3.31l.53,1.54,0,.06a.9.9,0,0,1,.14.68,1.91,1.91,0,0,1-.83,1.17s-.31.22-.79.51l-1.87,1.06a19.24,19.24,0,0,1-1.9,1l-.9.4c-.79.35-1.68.16-1.89-.4l0-.07s-.41-.5-1-1.28c-.42-.56-1.25-1.67-2.09-2.91-1-1.49-1.9-3-2.24-3.54l-.1-.17-.18.06-.42.13a13.22,13.22,0,0,1-1.45.36l-.54.13-.79.17a3.85,3.85,0,0,1-.73.12l-1.51.18-.55.07h-.21l-.21,0-.2,0,0,.19c0,.19-.07.4-.12.66-.12.66-.37,2-.71,3.43-.57,2.47-1.38,5-1.39,5v.08a.92.92,0,0,1-.29.65,1.62,1.62,0,0,1-1.33.43l-3.09-.26-3.08-.55a1.71,1.71,0,0,1-1.13-.71.93.93,0,0,1-.14-.76V331s-.14-2.66-.05-5.2c0-1.17.12-2.45.21-3.5,0-.25,0-.47,0-.67l0-.19-.18-.06-.22-.08-.25-.1-1.86-.74a4,4,0,0,1-.68-.31l-.69-.37-.51-.26c-.37-.19-.83-.42-1.3-.72l-.37-.24-.17-.1-.13.13c-1.09,1.06-2.15,2-3.08,2.84-1.15,1-2.23,1.84-2.78,2.26-.77.61-1.29,1-1.3,1l0,.06c-.35.48-1.27.43-1.94-.11l-.77-.62a18.47,18.47,0,0,1-1.57-1.42l-.71-.71-.81-.8a8.8,8.8,0,0,1-.65-.72,1.84,1.84,0,0,1-.49-1.33.9.9,0,0,1,.32-.62l0-.05s.36-.55.91-1.35,1.3-1.85,2.1-2.86,1.67-2.08,2.69-3.24l.13-.14-.53-.77c-.18-.25-.34-.49-.47-.7l-.19-.33c-.09-.17-.18-.32-.26-.46l-.38-.68-.38-.68c-.15-.28-.31-.66-.5-1.1-.11-.24-.22-.5-.35-.77l-.12-.31-.12-.28-.2,0-.51.09-.14,0c-1.11.16-2.39.3-3.51.39-2.52.22-5.15.23-5.17.23h-.08a.67.67,0,0,1-.24,0h0a1.57,1.57,0,0,1-1.31-1.24l-.69-3.06a14,14,0,0,1-.22-1.46c0-.24-.06-.46-.09-.65-.07-.58-.11-1-.11-1a1.88,1.88,0,0,1,.22-1.18,1,1,0,0,1,.76-.49l.08,0s2.49-.93,4.94-1.63c1.73-.51,3.41-.89,4-1l.2,0v-.61c.13-1.7.23-2.84.23-2.84s.2-1.13.51-2.79a1.33,1.33,0,0,0,.05-.19,2,2,0,0,0,.07-.23l0-.19-.17-.09c-.74-.38-2.2-1.16-3.64-2-2.18-1.31-4.33-2.85-4.35-2.87l-.06,0a1,1,0,0,1-.61-.66,1.83,1.83,0,0,1,.09-1.21l.36-.91c.08-.18.16-.39.25-.61.17-.42.36-.9.6-1.36l1.45-2.76a1.69,1.69,0,0,1,1.36-.9.88.88,0,0,1,.46.13l.07,0s2.56.7,4.93,1.57c1.41.5,2.67,1,3.28,1.29l.62.27.18.08.17-.23.21-.26c.19-.23.37-.45.53-.66.3-.38.56-.7.78-.93l.54-.56.55-.56.63-.64c.2-.19.44-.39.7-.6l.65-.57-.08-.17c-.47-.94-1.15-2.36-1.76-3.82-.42-1-.85-2.07-1.29-3.31l-.52-1.54,0-.07a.87.87,0,0,1-.14-.67,1.92,1.92,0,0,1,.82-1.17s.32-.23.8-.51l1.87-1.06a19.06,19.06,0,0,1,1.9-1c.53-.24.89-.39.9-.39.79-.36,1.68-.16,1.89.4l0,.07s.41.49,1,1.28,1.43,1.94,2.09,2.91c1,1.53,1.91,3,2.23,3.54l.11.18.59-.2c.54-.17,1-.27,1.44-.36l.56-.12.79-.18a3.85,3.85,0,0,1,.73-.12l2.06-.25.61-.05.06-.37c0-.14.06-.3.09-.47.2-1.09.46-2.35.72-3.44.57-2.48,1.38-5,1.39-5v-.08a.92.92,0,0,1,.29-.65,1.59,1.59,0,0,1,1.32-.43l3.1.26,3.08.55a1.67,1.67,0,0,1,1.12.71.93.93,0,0,1,.15.76v.08s.13,2.65,0,5.19c0,1.51-.15,2.84-.2,3.5v.1c0,.21,0,.4-.05.56l0,.19.18.07.22.08.18.06,1.94.78a3.94,3.94,0,0,1,.68.32l.69.36.51.26c.36.19.82.42,1.29.72l.54.36.14-.15c.35-.35,1.61-1.57,3.08-2.84.9-.78,1.92-1.6,2.78-2.27s1.29-1,1.29-1l.06-.06c.35-.48,1.27-.44,1.94.1l.76.62a17.68,17.68,0,0,1,1.57,1.44l1.43,1.4.1.1a6.52,6.52,0,0,1,.64.72,1.84,1.84,0,0,1,.49,1.32.81.81,0,0,1-.31.62l-1,1.41c-.73,1.06-1.44,2-2.1,2.86-1.05,1.35-2.14,2.61-2.7,3.23l-.12.15.51.75c.19.26.35.5.49.71l.23.41.21.39.39.67s.13.26.38.7c.15.28.32.67.52,1.13l.32.74c.06.12.12.26.17.39l.08.19.29-.05.56-.09c1.09-.16,2.37-.3,3.51-.4,2.52-.21,5.14-.22,5.17-.22h.07c.59-.2,1.33.39,1.56,1.19l.68,3.07a11.72,11.72,0,0,1,.23,1.47c0,.23.06.45.09.64.06.59.11,1,.11,1A1.88,1.88,0,0,1,239.75,291.2Z"
        transform="translate(-161.16 -254.26)" />
    <path class="cls-1"
        d="M194.26,291.15a8,8,0,0,1,.73-1.29l.13-.17L187,281.9l-.34.43c-.11.13-.22.28-.36.43a19.57,19.57,0,0,0-2.1,3.37c-.17.37-.32.75-.47,1.12s-.18.46-.28.68l-.11.26,10.83,3.15ZM184,287.86c.06-.14.12-.28.17-.42.15-.36.3-.74.46-1.09a19.45,19.45,0,0,1,2-3.27c.14-.15.26-.3.37-.44l7.41,7.11a9.42,9.42,0,0,0-.56,1Z"
        transform="translate(-161.16 -254.26)" />
    <path class="cls-1"
        d="M205.05,288.25l.18.13,7.79-8.11-.21-.17-.39-.31c-.18-.14-.36-.28-.54-.44a8.61,8.61,0,0,0-.95-.66,5.65,5.65,0,0,1-.57-.38,7.2,7.2,0,0,0-.83-.45,3.1,3.1,0,0,1-.32-.17l-.38-.21a3.09,3.09,0,0,0-.6-.27l-1.1-.44-.12,0-.12.22.09-.23-.26-.1-3.15,10.81.2.09A7.6,7.6,0,0,1,205.05,288.25Zm2-11,1,.4.36.14.14.08.42.23.35.18a6.44,6.44,0,0,1,.76.41c.18.14.38.26.6.4a9.41,9.41,0,0,1,.89.61c.18.16.36.31.56.46l.16.12-7.12,7.41a6.83,6.83,0,0,0-1-.56Z"
        transform="translate(-161.16 -254.26)" />
    <path class="cls-1"
        d="M203.37,300.79a7.77,7.77,0,0,1-1.42.37l-.21,0,.23,11,.06.29.37-.05,1.12-.14a3.54,3.54,0,0,0,.72-.12l.43-.1.39-.08a8.12,8.12,0,0,0,.89-.22l.64-.21a8.34,8.34,0,0,0,1.1-.4c.22-.11.47-.22.71-.32l.59-.25-5.42-9.87Zm4.84,9.58c-.26.11-.51.21-.74.33a7.08,7.08,0,0,1-1,.37l-.66.22a6.77,6.77,0,0,1-.81.2l-.43.09-.64.15-.43,0-1,.12-.22-10.28a8.39,8.39,0,0,0,1.1-.29l4.94,9Z"
        transform="translate(-161.16 -254.26)" />
    <path class="cls-1"
        d="M207.37,297a7.16,7.16,0,0,1-.74,1.27l-.13.18,8.14,7.79.28-.37c.12-.16.26-.34.42-.53a19.48,19.48,0,0,0,2.1-3.36c.19-.39.35-.79.5-1.18l.24-.59.1-.25-10.82-3.16Zm10.24,3.28c-.05.11-.09.22-.13.33-.16.38-.31.78-.49,1.15a18.89,18.89,0,0,1-2,3.26l-.38.47-7.42-7.1a8,8,0,0,0,.57-1Z"
        transform="translate(-161.16 -254.26)" />
    <path class="cls-1"
        d="M205.38,294.67a4.6,4.6,0,1,0-5.16,4c.21,0,.41,0,.61,0A4.61,4.61,0,0,0,205.38,294.67Zm-5.09,3.46a4.1,4.1,0,0,1,.53-8.16,3.27,3.27,0,0,1,.54,0,4.1,4.1,0,1,1-1.07,8.12Z"
        transform="translate(-161.16 -254.26)" />
    <path class="cls-1"
        d="M196.62,299.89l-.18-.13-7.79,8.13.49.39c.21.17.42.33.62.51a9.68,9.68,0,0,0,1,.66,5.79,5.79,0,0,1,.58.38,6.72,6.72,0,0,0,.8.44l.35.18.38.21a4,4,0,0,0,.68.3l1,.42.12,0,.27.12,3.15-10.83-.19-.08A7.43,7.43,0,0,1,196.62,299.89Zm-2,11-.92-.38-.41-.16-.58-.31c-.11-.07-.24-.13-.38-.2a7,7,0,0,1-.74-.4c-.17-.13-.38-.26-.59-.4a8.77,8.77,0,0,1-.89-.61c-.2-.18-.42-.35-.64-.52l-.06-.05,7.11-7.42a7.84,7.84,0,0,0,1,.57Z"
        transform="translate(-161.16 -254.26)" />
    <path class="cls-1"
        d="M219.11,292c-.05-.42-.1-.84-.18-1.28a19.85,19.85,0,0,0-1.15-3.79l-.22-.49-.23-.51-9.86,5.41.08.2a7.77,7.77,0,0,1,.37,1.42l0,.22,11.27-.23,0-.28C219.16,292.44,219.14,292.22,219.11,292Zm-10.73.67a7.71,7.71,0,0,0-.29-1.1l9-4.95h0c.07.16.14.34.23.51a18.19,18.19,0,0,1,1.11,3.68c.07.41.12.83.17,1.24,0,.13,0,.27,0,.4Z"
        transform="translate(-161.16 -254.26)" />
    <path class="cls-1"
        d="M194.11,296.64a7,7,0,0,1-.38-1.42l0-.21-11.27.23,0,.27c0,.21.06.43.08.65.05.41.1.84.17,1.27a18.68,18.68,0,0,0,1.15,3.78c.11.22.19.42.27.6l.19.45,9.88-5.41Zm-9.55,4.91-.24-.55a18.2,18.2,0,0,1-1.12-3.67c-.07-.41-.12-.82-.16-1.23,0-.13,0-.25,0-.38l10.29-.2a7.07,7.07,0,0,0,.29,1.1Z"
        transform="translate(-161.16 -254.26)" />

</svg>