<svg width="269" height="143" viewBox="0 0 269 143" fill="none" xmlns="http://www.w3.org/2000/svg">
<path d="M203.109 105.638L205.742 100.282L215.149 98.3299L224.145 96.404L225.55 93.0152L224.503 90.0672L226.54 88.3532L229.793 89.2812L230.098 91.2553L231.882 89.9223L234.434 90.7406L234.759 94.0491L237.467 94.8745L238.128 94.1193L241.068 95.0334L241.489 96.15L244.585 97.0709L244.666 98.7999L243.759 101.583L247.012 102.511L248.761 101.961L250.851 102.602L251.236 106.305L256.265 107.86L255.968 103.926L257.672 100.864L260.14 105.327L259.266 112.338L257.199 114.114L256.53 119.476L247.007 125.648L243.129 126.66L241.304 123.142L235.468 126.484L234.361 128.679L230.549 128.204L225.558 126.206L222.222 127.166L222.898 121.746L219.203 121.285L216.212 123.306L210.641 122.611L200.6 118.109L203.607 110.399L200.865 107.871L203.109 105.638Z" fill="#0D88BF"/>
<path d="M187 95.9999L183 87.9999L182.499 82.4999L184.499 79.4999L186 74L200.5 63L204.5 59.5L225 65.5L231.293 62.3685L236.875 62.0659L241.5 69.5L245.5 69.5L248 70.5L248.5 74.9999L246 76.5L247 78.5L247 80L244 84L244.5 86.5L249 88L252.702 88.1871L252.702 93L258 93L261.5 96L261 96.5L259 98.5L257.5 99.5L255.959 103.865L256.392 107.943L251.187 106.368L250.838 102.624L248.688 101.973L246.949 102.618L243.724 101.642L244.579 98.817L244.549 97.0811L241.494 96.1561L241.032 95.0296L238.146 94.1561L237.42 94.9229L234.705 94.1008L234.366 90.7299L231.933 89.9934L230.102 91.3507L229.784 89.3426L226.615 88.3834L224.568 90.0454L225.569 93.0619L224.17 96.4617L205.695 100.373L203.105 105.749L200.817 107.844L203.606 110.398L193.5 110L196.5 102.5L191 103L187 95.9999Z" fill="#FDCA31"/>
<path d="M146.5 91.5L147.78 96.3221L145.224 100.915L139.759 100.36L136.641 101.712L135.828 105.912L137.431 110.453L136.83 113.406L149.56 111.067L162.418 111.164L179.083 116.785L180.08 113.196L186.5 112.645L193.6 110.109L196.647 102.362L191.345 102.559L186.939 95.7762L183.364 87.8527L182.889 82.3111L184.62 79.6684L186.093 74.019L201 62.5L195.5 58.5L190.5 57.5L187 55.9999L180 56L176 56L172 51.5L169.5 50.9998L165 54.9998L170 64.5L167 67.5L163.5 64L163 63.4998L162 63.4998L160 63.4998L159 64.5L157 64.9998L157 66L157 70.5L149.5 71L148 73.5L150 78.5L153 85L146.5 91.5Z" fill="#1B4147"/>
<path d="M16.5 70L17.5 76.2869L23.9074 76.2869L29.4826 76.5213L35.2215 80.4304L36.8931 85.7523L38.213 86.0579L40.6234 89.8271L38.9152 95.2153L36.8387 95.0446L33.7917 97.834L36.5914 99.4939L38.842 99.5052L42.1358 100.394L49.3519 106.616L51.2188 101.401L51.3842 97.8235L57.2171 92.4837L63.3983 86.8251L59.8665 82.9672L62.1736 80.8551L61.0612 78.7661L62.2677 67.4601L57.1892 64.044L52.4952 65.8021L49.3346 63.1694L47.4642 58.0113L41.043 56.5712L33.5949 53.6816L21.4997 41.9999L17 46.5L17 49.5L20.5 49.5L22.5 53L21.9997 54.9999L20 69.5L16.5 70Z" fill="#FDCA31"/>
<path d="M24.0005 33.4999L18.0006 36.4997L21.8003 42.6685L33.5965 53.5994L40.9788 56.5496L47.5411 58.0841L49.3837 63.2172L52.4896 65.8299L57.0956 64.1006L62.374 67.6128L65.3526 64.886L71.1172 66.5892L73.5603 63.7107L76.798 60.7468L79.639 59.4297L94.5005 54.4999L94.5 52L91.5 42.5L87 39L88 37.5L89.0014 36.9999L88.0003 35L84.5006 33.4997L82.5006 35.4997L80.5006 34.9997L78.5006 30.4997L78.5006 25.9997L70.0006 27.9997L67.0006 27.9997L63.9583 26.659L59.5006 29.4997L58.0006 28.4997L54.5006 27.9997L52.0006 29.9997L51.0006 33.9997L47.5006 35.9997L45.5006 35.4997L44.0005 32.3787L45.5005 29.9999L46.001 25.9999L42.0005 23.4999L40.5005 23.4999L35.5005 24.4999L29.0005 28.1553L29.0005 31.9999L24.0005 33.4999Z" fill="#1B4147"/>
<path d="M59.942 82.9949L63.4996 86.8811L51.4791 97.8853L51.245 101.472L49.4514 106.569L100.964 113.398L110.274 109.401L112.955 110.653L118.815 105.372L121.925 106.824L125.25 116.066L136.873 113.41L137.478 110.434L135.842 105.826L136.642 101.712L139.76 100.36L145.225 100.915L147.781 96.322L146.5 90.4999L144 90.4999L141.5 89.5L139.5 87L137.5 85.5L134 87L132 86L128 81.5L129 74.5L125.5 73L123 69.9999L121 72.5L119 73.5L117 71.5L116.5 67.5L114 66L108 65.5L105 67.5L102.5 65.5L101 61.5L100.5 58.5L98.5 57.9999L95 59.9999L93 56.4999L94.4822 54.434L88.5 56.4999L79.7847 59.1281L76.8229 60.4875L73.4701 63.5542L71.1473 66.4322L65.3386 64.6846L62.3147 67.4529L61.1092 78.7716L62.19 80.9369L59.942 82.9949Z" fill="#225972"/>
<path d="M203.109 105.638L205.742 100.282L215.149 98.3299L224.145 96.404L225.55 93.0152L224.503 90.0672L226.54 88.3532L229.793 89.2812L230.098 91.2553L231.882 89.9223L234.434 90.7406L234.759 94.0491L237.467 94.8744L238.128 94.1193L241.068 95.0334L241.489 96.1499L244.585 97.0709L244.666 98.7998L243.759 101.583L247.012 102.511L248.761 101.961L250.851 102.602L251.236 106.305L256.265 107.86L255.968 103.926L257.672 100.864L260.14 105.327L259.266 112.338L257.199 114.114L256.53 119.476L247.007 125.648L243.129 126.66L241.304 123.142L235.468 126.484L234.361 128.679L230.549 128.204L225.558 126.206L222.222 127.166L222.898 121.746L219.203 121.285L216.212 123.306L210.641 122.611L200.6 118.109L203.607 110.399L200.865 107.871L203.109 105.638Z" stroke="#404040"/>
<path d="M203.109 105.638L205.742 100.282L215.149 98.3299L224.145 96.404L225.55 93.0152L224.503 90.0672L226.54 88.3532L229.793 89.2812L230.098 91.2553L231.882 89.9223L234.434 90.7406L234.759 94.0491L237.467 94.8745L238.128 94.1193L241.068 95.0334L241.489 96.15L244.585 97.0709L244.666 98.7999L243.759 101.583L247.012 102.511L248.761 101.961L250.851 102.602L251.236 106.305L256.265 107.86L255.968 103.926L257.672 100.864L260.14 105.327L259.266 112.338L257.199 114.114L256.53 119.476L247.007 125.648L243.129 126.66L241.304 123.142L235.468 126.484L234.361 128.679L230.549 128.204L225.558 126.206L222.222 127.166L222.898 121.746L219.203 121.285L216.212 123.306L210.641 122.611L200.6 118.109L203.607 110.399L200.865 107.871L203.109 105.638Z" stroke="#404040"/>
<path d="M187 95.9999L183 87.9999L182.499 82.4999L184.499 79.4999L186 74L200.5 63L204.5 59.5L225 65.5L231.293 62.3685L236.875 62.0659L241.5 69.5L245.5 69.5L248 70.5L248.5 74.9999L246 76.5L247 78.5L247 80L244 84L244.5 86.5L249 88L252.702 88.1871L252.702 93L258 93L261.5 96L261 96.5L259 98.5L257.5 99.5L255.959 103.865L256.392 107.943L251.187 106.368L250.838 102.624L248.688 101.973L246.949 102.618L243.724 101.642L244.579 98.817L244.549 97.0811L241.494 96.1561L241.032 95.0296L238.146 94.1561L237.42 94.9229L234.705 94.1008L234.366 90.7299L231.933 89.9934L230.102 91.3507L229.784 89.3426L226.615 88.3834L224.568 90.0454L225.569 93.0619L224.17 96.4617L205.695 100.373L203.105 105.749L200.817 107.844L203.606 110.398L193.5 110L196.5 102.5L191 103L187 95.9999Z" stroke="#404040"/>
<path d="M146.5 91.5L147.78 96.3221L145.224 100.915L139.759 100.36L136.641 101.712L135.828 105.912L137.431 110.453L136.83 113.406L149.56 111.067L162.418 111.164L179.083 116.785L180.08 113.196L186.5 112.645L193.6 110.109L196.647 102.362L191.345 102.559L186.939 95.7762L183.364 87.8527L182.889 82.3111L184.62 79.6684L186.093 74.019L201 62.5L195.5 58.5L190.5 57.5L187 55.9999L180 56L176 56L172 51.5L169.5 50.9998L165 54.9998L170 64.5L167 67.5L163.5 64L163 63.4998L162 63.4998L160 63.4998L159 64.5L157 64.9998L157 66L157 70.5L149.5 71L148 73.5L150 78.5L153 85L146.5 91.5Z" stroke="#404040"/>
<path d="M16.5 70L17.5 76.2869L23.9074 76.2869L29.4826 76.5213L35.2215 80.4304L36.8931 85.7523L38.213 86.0579L40.6234 89.8271L38.9152 95.2153L36.8387 95.0446L33.7917 97.834L36.5914 99.4939L38.842 99.5052L42.1358 100.394L49.3519 106.616L51.2188 101.401L51.3842 97.8235L57.2171 92.4837L63.3983 86.8251L59.8665 82.9672L62.1736 80.8551L61.0612 78.7661L62.2677 67.4601L57.1892 64.044L52.4952 65.8021L49.3346 63.1694L47.4642 58.0113L41.043 56.5712L33.5949 53.6816L21.4997 41.9999L17 46.5L17 49.5L20.5 49.5L22.5 53L21.9997 54.9999L20 69.5L16.5 70Z" stroke="#404040"/>
<path d="M24.0005 33.4999L18.0006 36.4997L21.8003 42.6685L33.5965 53.5994L40.9788 56.5496L47.5411 58.0841L49.3837 63.2172L52.4896 65.8299L57.0956 64.1006L62.374 67.6128L65.3526 64.886L71.1172 66.5892L73.5603 63.7107L76.798 60.7468L79.639 59.4297L94.5005 54.4999L94.5 52L91.5 42.5L87 39L88 37.5L89.0014 36.9999L88.0003 35L84.5006 33.4997L82.5006 35.4997L80.5006 34.9997L78.5006 30.4997L78.5006 25.9997L70.0006 27.9997L67.0006 27.9997L63.9583 26.659L59.5006 29.4997L58.0006 28.4997L54.5006 27.9997L52.0006 29.9997L51.0006 33.9997L47.5006 35.9997L45.5006 35.4997L44.0005 32.3787L45.5005 29.9999L46.001 25.9999L42.0005 23.4999L40.5005 23.4999L35.5005 24.4999L29.0005 28.1553L29.0005 31.9999L24.0005 33.4999Z" stroke="#404040"/>
<path d="M59.942 82.9949L63.4996 86.8811L51.4791 97.8853L51.245 101.472L49.4514 106.569L100.964 113.398L110.274 109.401L112.955 110.653L118.815 105.372L121.925 106.824L125.25 116.066L136.873 113.41L137.478 110.434L135.842 105.826L136.642 101.712L139.76 100.36L145.225 100.915L147.781 96.322L146.5 90.4999L144 90.4999L141.5 89.5L139.5 87L137.5 85.5L134 87L132 86L128 81.5L129 74.5L125.5 73L123 69.9999L121 72.5L119 73.5L117 71.5L116.5 67.5L114 66L108 65.5L105 67.5L102.5 65.5L101 61.5L100.5 58.5L98.5 57.9999L95 59.9999L93 56.4999L94.4822 54.434L88.5 56.4999L79.7847 59.1281L76.8229 60.4875L73.4701 63.5542L71.1473 66.4322L65.3386 64.6846L62.3147 67.4529L61.1092 78.7716L62.19 80.9369L59.942 82.9949Z" stroke="#404040"/>
<path d="M203.109 105.638L205.742 100.282L215.149 98.3299L224.145 96.404L225.55 93.0152L224.503 90.0672L226.54 88.3532L229.793 89.2812L230.098 91.2553L231.882 89.9223L234.434 90.7406L234.759 94.0491L237.467 94.8744L238.128 94.1193L241.068 95.0334L241.489 96.1499L244.585 97.0709L244.666 98.7998L243.759 101.583L247.012 102.511L248.761 101.961L250.851 102.602L251.236 106.305L256.265 107.86L255.968 103.926L257.672 100.864L260.14 105.327L259.266 112.338L257.199 114.114L256.53 119.476L247.007 125.648L243.129 126.66L241.304 123.142L235.468 126.484L234.361 128.679L230.549 128.204L225.558 126.206L222.222 127.166L222.898 121.746L219.203 121.285L216.212 123.306L210.641 122.611L200.6 118.109L203.607 110.399L200.865 107.871L203.109 105.638Z" stroke="#404040"/>
<path d="M201.5 61.9998L185.999 74L184.499 79.4999L182.499 82.4999L183 87.9999L187 95.9999L191 103L196.5 102.5L193.5 110L203.605 110.398" stroke="#404040"/>
<path d="M147.78 96.3221L145.224 100.915L139.759 100.36L136.641 101.712L135.828 105.912L137.431 110.453L136.83 113.406L149.56 111.067L162.418 111.164L179.083 116.785L180.08 113.196L186.5 112.645L193.6 110.109" stroke="#404040"/>
<path d="M16.9997 76.2869L23.9074 76.2869L29.4826 76.5213L35.2215 80.4304L36.8931 85.7523L38.213 86.0579L40.6234 89.8271L38.9152 95.2153L36.8387 95.0446L33.7917 97.834L36.5914 99.4939L38.842 99.5052L42.1358 100.394L49.3519 106.616L51.2188 101.401L51.3842 97.8235L57.2171 92.4837L63.3983 86.8251L59.8665 82.9672L62.1736 80.8551L61.0612 78.7661L62.2677 67.4601L57.1892 64.044L52.4952 65.8021L49.3346 63.1694L47.4642 58.0113L41.043 56.5712L33.5949 53.6816L21.4997 41.9999" stroke="#404040"/>
<path d="M62.3147 67.4529L65.3386 64.6846L71.1473 66.4322L73.4701 63.5542L76.8229 60.4875L79.7847 59.1281L88.5 56.4999L94.4822 54.434M146.5 90.4999L147.781 96.322L145.225 100.915L139.76 100.36L136.642 101.712L135.842 105.826L137.478 110.434L136.873 113.41L125.25 116.066L121.925 106.824L118.815 105.372L112.955 110.653L110.274 109.401L100.964 113.398L49.5 106.5" stroke="#404040"/>
<path d="M17.5 75.9999V73.4999L16.5 71.4999V69.4999H20L22.5 52.9999L20.5 49.4999H17V46.4999L22 41.9999L18 36.4999L23 33.9999L29 31.9999V27.9999L35.5 24.4999L42 23.4999L45.5 25.9999V29.9999L44 32.4999L46 35.9999H47.5L51 33.9999L52 30.4999L54.5 27.9999L57.5 28.4999L59.5 29.4999L62.5 26.9999H65L66 27.9999H71.5L77 25.9999H78.5V30.4999L80.5 35.4999H82.5L85 33.4999L88 34.9999L88.5 36.9999L87 38.9999L91.5 42.4999L93.5 48.4999L94.5 53.9999L93 56.4999L94 58.9999L95 59.9999L98.5 57.9999L100.5 58.4999L102 64.9999L105 67.4999L108 65.4999H112L116.5 67.4999V70.4999L118.5 72.9999H121L123 70.4999L126 73.4999L128.5 74.4999L128 81.4999L130.5 84.9999L134 86.9999L137 85.4999H138.5L140 88.4999L143.5 90.4999L147.5 90.9999L153 84.9999L147.873 73.4999L150 70.9999L157 70.4999V65.4999L159.5 63.9999H163.5L167 67.4999L170 64.4999L166.5 58.9999L165.5 54.9999L169 51.4999H172L176 55.9999H186L190 57.4999L195 58.4999L201.5 62.4999L204.5 59.4999L216.5 63.4999L225.5 65.4999L232 62.4999H237.5L239.5 66.4999L241.5 69.4999H245.5L248 70.4999V74.9999L246 76.4999L247.5 78.9999L244 83.4999V85.9999L246.5 87.4999L252.5 88.4999V92.9999H258L261.5 95.9999L257.5 99.4999L259 102.5" stroke="#0D88BF"/>
</svg>
