<svg width="48" height="48" viewBox="0 0 48 48" fill="none" xmlns="http://www.w3.org/2000/svg">
<path d="M21.3747 42.8101C16.6378 42.8104 12.0798 41.0002 8.63381 37.75C5.18779 34.4998 3.11428 30.0555 2.83768 25.3266C2.56107 20.5978 4.10229 15.942 7.14588 12.3123C10.1895 8.68249 14.5053 6.35324 19.2099 5.80122C19.307 5.62719 19.4271 5.46706 19.567 5.32516L20.1547 4.7449C20.776 4.12027 21.555 3.67555 22.4087 3.45798C21.6228 3.42451 20.8357 3.43195 20.0505 3.48027C14.6584 3.82301 9.61111 6.25035 5.97694 10.2486C2.34277 14.2468 0.406865 19.5022 0.57892 24.9025C0.750975 30.3028 3.01749 35.4243 6.8988 39.1831C10.7801 42.9419 15.9716 45.043 21.3747 45.0418C21.6706 45.0418 21.9545 44.9242 22.1637 44.715C22.373 44.5057 22.4905 44.2219 22.4905 43.926C22.4905 43.63 22.373 43.3462 22.1637 43.1369C21.9545 42.9277 21.6706 42.8101 21.3747 42.8101Z" fill="white"/>
<path d="M30.1744 11.7934H32.3598V14.9767C32.3596 15.0845 32.3806 15.1913 32.4217 15.291C32.4628 15.3906 32.5232 15.4812 32.5993 15.5575C32.6755 15.6338 32.7659 15.6944 32.8655 15.7357C32.9651 15.777 33.0718 15.7982 33.1796 15.7982C33.2874 15.7982 33.3942 15.777 33.4937 15.7357C33.5933 15.6944 33.6838 15.6338 33.7599 15.5575C33.8361 15.4812 33.8964 15.3906 33.9375 15.291C33.9786 15.1913 33.9996 15.0845 33.9994 14.9767V5.60725C33.9996 5.49945 33.9786 5.39266 33.9375 5.29299C33.8964 5.19333 33.8361 5.10275 33.7599 5.02644C33.6838 4.95013 33.5933 4.88958 33.4937 4.84828C33.3942 4.80697 33.2874 4.78571 33.1796 4.78571C33.0718 4.78571 32.9651 4.80697 32.8655 4.84828C32.7659 4.88958 32.6755 4.95013 32.5993 5.02644C32.5232 5.10275 32.4628 5.19333 32.4217 5.29299C32.3806 5.39266 32.3596 5.49945 32.3598 5.60725V10.1539H30.1744C30.1108 10.163 30.0459 10.1571 29.985 10.1368C29.924 10.1165 29.8686 10.0822 29.8232 10.0368C29.7777 9.99138 29.7435 9.93599 29.7232 9.87503C29.7028 9.81407 29.697 9.74922 29.7061 9.68561V5.60725C29.7061 5.38984 29.6197 5.18133 29.466 5.0276C29.3122 4.87387 29.1037 4.7875 28.8863 4.7875C28.6689 4.7875 28.4604 4.87387 28.3067 5.0276C28.1529 5.18133 28.0666 5.38984 28.0666 5.60725V9.68561C28.0573 9.96492 28.1054 10.2432 28.2081 10.5031C28.3107 10.763 28.4656 10.9991 28.6633 11.1967C28.8609 11.3943 29.097 11.5493 29.3569 11.6519C29.6168 11.7545 29.8951 11.8027 30.1744 11.7934Z" fill="white"/>
<path d="M20.6219 6.37976C20.4681 6.53348 20.3818 6.74197 20.3818 6.95936C20.3818 7.17675 20.4682 7.38523 20.6219 7.53895C20.7756 7.69266 20.9841 7.77902 21.2015 7.77901C21.4189 7.77901 21.6274 7.69265 21.7811 7.53893L22.3639 6.95612C22.7031 6.61855 23.1624 6.42931 23.641 6.42991C24.1196 6.43051 24.5784 6.62089 24.9168 6.9593C25.2552 7.29771 25.4456 7.75653 25.4462 8.23512C25.4468 8.71371 25.2576 9.173 24.92 9.51225L20.0351 14.3971C19.9204 14.5117 19.8423 14.6578 19.8107 14.8168C19.779 14.9758 19.7953 15.1407 19.8573 15.2905C19.9194 15.4403 20.0244 15.5683 20.1592 15.6584C20.2941 15.7485 20.4525 15.7965 20.6147 15.7965H26.2689C26.4863 15.7965 26.6948 15.7102 26.8485 15.5564C27.0023 15.4027 27.0886 15.1942 27.0886 14.9768C27.0886 14.7593 27.0023 14.5508 26.8485 14.3971C26.6948 14.2434 26.4863 14.157 26.2689 14.157H22.5936L26.0792 10.6715C26.7256 10.0251 27.0887 9.14837 27.0887 8.23422C27.0887 7.32007 26.7256 6.44336 26.0792 5.79696C25.4328 5.15056 24.5561 4.78741 23.6419 4.78741C22.7278 4.78741 21.8511 5.15056 21.2047 5.79696L20.6219 6.37976Z" fill="white"/>
<path d="M47.2895 4.85038C47.2147 4.73848 47.1134 4.64677 46.9946 4.58337C46.8759 4.51996 46.7433 4.48682 46.6087 4.48688H40.6323C40.4148 4.48688 40.2063 4.57324 40.0526 4.72698C39.8989 4.88071 39.8125 5.08922 39.8125 5.30663C39.8125 5.52404 39.8989 5.73255 40.0526 5.88628C40.2063 6.04001 40.4148 6.12638 40.6323 6.12638H45.3854L41.7542 14.9655C41.713 15.0651 41.6918 15.1719 41.6919 15.2797C41.692 15.3875 41.7134 15.4942 41.7548 15.5938C41.7962 15.6933 41.8569 15.7837 41.9333 15.8598C42.0097 15.9358 42.1003 15.996 42.2001 16.037C42.2998 16.078 42.4066 16.0989 42.5144 16.0985C42.6222 16.0981 42.7289 16.0764 42.8283 16.0348C42.9278 15.9931 43.018 15.9322 43.0938 15.8556C43.1697 15.779 43.2297 15.6882 43.2704 15.5884L47.3668 5.61798C47.418 5.49353 47.4377 5.35839 47.4242 5.22451C47.4107 5.09063 47.3645 4.96214 47.2895 4.85038Z" fill="white"/>
<path d="M35.661 17.6142C35.7066 17.622 35.7528 17.6259 35.7991 17.6258C35.9925 17.6256 36.1796 17.5569 36.3274 17.4321C36.4751 17.3072 36.5739 17.1341 36.6064 16.9434L38.8223 3.91576C38.8404 3.80964 38.8373 3.701 38.8133 3.59605C38.7894 3.4911 38.745 3.3919 38.6827 3.30411C38.6204 3.21631 38.5414 3.14165 38.4503 3.08438C38.3591 3.02711 38.2576 2.98835 38.1515 2.97032C38.0453 2.95229 37.9367 2.95534 37.8318 2.97929C37.7268 3.00325 37.6276 3.04764 37.5398 3.10993C37.3625 3.23574 37.2424 3.42683 37.206 3.64116L34.9901 16.6688C34.9721 16.7749 34.9751 16.8836 34.9991 16.9885C35.023 17.0935 35.0674 17.1927 35.1297 17.2805C35.192 17.3682 35.271 17.4429 35.3622 17.5002C35.4533 17.5574 35.5549 17.5962 35.661 17.6142Z" fill="white"/>
<path d="M40.7835 16.8035C40.6199 16.3495 40.4312 15.9049 40.2182 15.4719C39.8132 14.5816 39.3407 13.7236 38.8048 12.9055L38.2096 16.3869C39.3962 18.9445 39.9879 21.7377 39.9403 24.5567C39.8926 27.3758 39.2068 30.1474 37.9344 32.6634C37.443 33.5731 36.6195 34.258 35.6355 34.5753C34.6515 34.8927 33.583 34.818 32.6527 34.3669L32.0651 34.0842C32.3998 33.7494 32.7122 33.4296 32.9354 33.1841C33.0052 33.1091 33.0582 33.0201 33.091 32.9231C33.1239 32.8261 33.1358 32.7233 33.1259 32.6213C33.1161 32.5194 33.0847 32.4207 33.0339 32.3318C32.9831 32.2428 32.9141 32.1657 32.8313 32.1054L27.2818 28.5422C27.1927 28.4748 27.0907 28.4265 26.9821 28.4001C26.8736 28.3736 26.7608 28.3697 26.6507 28.3885C26.5406 28.4073 26.4355 28.4485 26.3419 28.5095C26.2483 28.5704 26.1682 28.6499 26.1064 28.743C25.6601 29.3977 24.6484 30.8334 24.6484 30.8334C24.6484 30.8334 22.2679 32.1129 18.0649 27.9099C18.0054 27.8504 17.9533 27.7908 17.8938 27.7239C17.8269 27.6644 17.7673 27.6123 17.7078 27.5528C13.5048 23.3498 14.7769 20.9693 14.7769 20.9693C14.7769 20.9693 16.2201 19.9576 16.8747 19.5113C16.9677 19.4495 17.047 19.3693 17.1079 19.2757C17.1688 19.1821 17.2099 19.077 17.2287 18.967C17.2475 18.8569 17.2436 18.7442 17.2173 18.6356C17.1909 18.5271 17.1427 18.4252 17.0755 18.336L13.5123 12.7865C13.452 12.7037 13.3748 12.6346 13.2859 12.5838C13.197 12.533 13.0983 12.5017 12.9964 12.4918C12.8944 12.482 12.7915 12.4939 12.6945 12.5267C12.5975 12.5595 12.5086 12.6126 12.4336 12.6823C11.6079 13.4485 9.90438 15.1446 9.64397 15.6877C9.01827 17.0323 8.93045 18.5652 9.39849 19.9725C10.6135 23.6561 12.6746 27.0038 15.4166 29.7473C15.4985 29.8217 15.5729 29.8886 15.6547 29.963C15.7291 30.0449 15.796 30.1192 15.8704 30.1937C18.6119 32.9399 21.9601 35.0038 25.6452 36.2192C27.05 36.6875 28.5807 36.5996 29.9226 35.9737C30.0549 35.9023 30.1796 35.8176 30.2946 35.7208L31.7006 36.3829C33.1555 37.0784 34.8229 37.185 36.3546 36.6804C37.8863 36.1758 39.1638 35.0991 39.9206 33.6751C41.2386 31.0818 41.9971 28.2406 42.147 25.3355C42.297 22.4304 41.835 19.5261 40.791 16.811C40.791 16.81 40.7908 16.809 40.7904 16.8081C40.7901 16.8072 40.7895 16.8063 40.7888 16.8056C40.7881 16.8049 40.7873 16.8044 40.7864 16.804C40.7855 16.8037 40.7845 16.8035 40.7835 16.8035Z" fill="white"/>
</svg>
