<svg width="48" height="48" viewBox="0 0 48 48" fill="none" xmlns="http://www.w3.org/2000/svg">
<path d="M40.7535 17.8688L37.8473 14.6625L38.7566 10.4344C38.841 10.0594 38.616 9.68439 38.2504 9.56252L34.1348 8.23127L32.8129 4.11565C32.691 3.75002 32.316 3.5344 31.941 3.6094L27.7129 4.51877L24.5066 1.61252C24.2254 1.35002 23.7848 1.35002 23.5035 1.61252L20.2973 4.51877L16.0691 3.6094C15.6941 3.52502 15.3191 3.75002 15.1973 4.11565L13.866 8.23127L9.74101 9.56252C9.37538 9.68439 9.15977 10.0594 9.23477 10.4344L10.1441 14.6625L7.23789 17.8688C6.97539 18.15 6.97539 18.5906 7.23789 18.8719L10.1441 22.0781L9.23477 26.3063C9.15039 26.6813 9.37538 27.0563 9.74101 27.1781L13.8566 28.5094L14.0254 29.0438L9.13164 42.6094C9.01914 42.9094 9.11289 43.2469 9.36602 43.4438C9.60976 43.6406 9.95663 43.6688 10.2285 43.5L15.2254 40.4438L17.1098 45.9844C17.2129 46.2844 17.4941 46.4906 17.8129 46.4906H17.8223C18.141 46.4906 18.4223 46.2938 18.5254 45.9938L22.716 34.4063L23.5035 35.1188C23.6441 35.25 23.8223 35.3156 24.0098 35.3156C24.1973 35.3156 24.366 35.25 24.516 35.1188L25.3035 34.4063L29.4941 45.9938C29.5973 46.2938 29.8879 46.4906 30.1973 46.4906H30.2066C30.5254 46.4906 30.8066 46.2844 30.9098 45.9844L32.7941 40.4438L37.791 43.5C38.0629 43.6688 38.4098 43.6406 38.6535 43.4438C38.8973 43.2469 38.991 42.9094 38.8879 42.6094L33.9848 29.0531L34.1535 28.5188L38.2691 27.1875C38.6348 27.0656 38.8504 26.6906 38.7754 26.3156L37.866 22.0875L40.7723 18.8813C41.016 18.5906 41.016 18.1594 40.7535 17.8688ZM17.8316 43.4813L16.3316 39.075C16.2566 38.8594 16.0879 38.6906 15.8723 38.6063C15.6566 38.5219 15.4223 38.55 15.2254 38.6719L11.2504 41.1L14.766 31.3781L15.1691 32.625C15.291 32.9906 15.666 33.2063 16.041 33.1313L20.2691 32.2219L21.4879 33.3281L17.8316 43.4813ZM36.7316 41.1094L32.7566 38.6813C32.5598 38.5594 32.3254 38.5406 32.1098 38.6156C31.8941 38.6906 31.7254 38.8594 31.6504 39.0844L30.1504 43.4906L26.4754 33.3375L27.6941 32.2313L31.9223 33.1406C32.2973 33.225 32.6723 33 32.7941 32.6344L33.1973 31.3875L36.7316 41.1094ZM36.4879 21.3656C36.3285 21.5438 36.2629 21.7875 36.3098 22.0219L37.1535 25.9688L33.3191 27.2063C33.0941 27.2813 32.9066 27.4594 32.8316 27.6938L32.466 28.8188L31.5941 31.5281L27.6473 30.6844C27.4129 30.6375 27.1691 30.7031 26.991 30.8625L24.0004 33.5625L21.0098 30.8531C20.8691 30.7313 20.691 30.6563 20.5035 30.6563C20.4473 30.6563 20.4004 30.6656 20.3441 30.675L16.3973 31.5188L15.5254 28.8094L15.1598 27.6844C15.0848 27.4594 14.9066 27.2719 14.6723 27.1969L10.8473 25.9688L11.691 22.0219C11.7379 21.7875 11.6723 21.5438 11.5129 21.3656L8.81289 18.375L11.5223 15.3844C11.6816 15.2063 11.7473 14.9625 11.7004 14.7281L10.8566 10.7813L14.691 9.54377C14.916 9.46877 15.1035 9.29065 15.1785 9.05627L16.4066 5.2219L20.3535 6.06565C20.5879 6.11252 20.8316 6.0469 21.0098 5.88752L24.0004 3.18752L26.991 5.8969C27.1691 6.05627 27.4129 6.1219 27.6473 6.07502L31.5941 5.23127L32.8316 9.06565C32.9066 9.29065 33.0848 9.47814 33.3191 9.55314L37.1535 10.7906L36.3098 14.7375C36.2629 14.9719 36.3285 15.2156 36.4879 15.3938L39.1879 18.375L36.4879 21.3656Z" fill="white"/>
<path d="M24 7.5C17.7938 7.5 12.75 12.5438 12.75 18.75C12.75 24.9562 17.7938 30 24 30C30.2062 30 35.25 24.9562 35.25 18.75C35.25 12.5438 30.2062 7.5 24 7.5ZM24 28.5C18.6281 28.5 14.25 24.1219 14.25 18.75C14.25 13.3781 18.6281 9 24 9C29.3719 9 33.75 13.3781 33.75 18.75C33.75 24.1219 29.3719 28.5 24 28.5Z" fill="white"/>
<path d="M28.1908 13.1813L21.7502 19.5563L19.8096 17.6344C19.2283 17.0625 18.2814 17.0625 17.6908 17.6344L16.5002 18.8063C16.2189 19.0875 16.0596 19.4625 16.0596 19.8657C16.0596 20.2688 16.2189 20.6438 16.5002 20.925L20.6908 25.0688C20.9814 25.3594 21.3658 25.5 21.7502 25.5C22.1346 25.5 22.5189 25.3594 22.8096 25.0688L31.5002 16.4813C31.7814 16.2 31.9408 15.825 31.9408 15.4219C31.9408 15.0188 31.7814 14.6438 31.5002 14.3625L30.3096 13.1907C29.7283 12.6094 28.7721 12.6094 28.1908 13.1813ZM23.4752 22.3032L21.7502 24L17.5689 19.8657L18.7596 18.7032L21.2252 21.1407C21.5158 21.4313 21.9846 21.4313 22.2752 21.1407L29.2502 14.25L28.7252 13.7157L30.4408 15.4125L23.4752 22.3032Z" fill="white"/>
</svg>
