<svg width="50" height="50" viewBox="0 0 50 50" fill="none" xmlns="http://www.w3.org/2000/svg">
<path d="M40.4198 11.5409L40.6568 12.2045H41.3615H43.9701C43.9902 12.4243 44.0005 12.6466 44.0005 12.871C44.0005 13.0962 43.9902 13.3184 43.9703 13.5375H41.3615H40.6551L40.419 14.2033C40.2562 14.6624 40.0099 15.0811 39.6943 15.452L39.2375 15.989L39.5898 16.5997L40.8796 18.8353C40.5177 19.0901 40.1312 19.3124 39.7229 19.4998L38.441 17.2795L38.0882 16.6685L37.3943 16.796C37.1381 16.843 36.8986 16.871 36.667 16.871C36.4368 16.871 36.1979 16.8428 35.9374 16.7955L35.2448 16.6699L34.8929 17.2796L33.6113 19.4999C33.2029 19.3126 32.8163 19.0904 32.4546 18.8355L33.7442 16.5996L34.0967 15.9886L33.6392 15.4515C33.3238 15.0812 33.0781 14.663 32.9157 14.204L32.68 13.5375H31.973H29.3641C29.3442 13.3184 29.334 13.0962 29.334 12.871C29.334 12.6466 29.3443 12.4243 29.3643 12.2045H31.973H32.6777L32.9147 11.5409C33.08 11.0782 33.3253 10.6598 33.6386 10.2927L34.0972 9.75542L33.7441 9.14361L32.4546 6.90957C32.8165 6.65435 33.203 6.4319 33.611 6.24488L34.8915 8.46252L35.2438 9.07272L35.937 8.94626C36.1963 8.89895 36.4359 8.871 36.667 8.871C36.8977 8.871 37.1368 8.89922 37.3994 8.94661L38.0914 9.07147L38.443 8.46252L39.7234 6.24498C40.1312 6.432 40.5177 6.65444 40.8797 6.90966L39.59 9.1435L39.2365 9.75576L39.6958 10.2932C40.0093 10.66 40.2545 11.0783 40.4198 11.5409Z" stroke="white" stroke-width="2"/>
<path d="M29 25C29 25.2219 28.9914 25.4434 28.9758 25.666H25.666H24.8491L24.6861 26.4664C24.4965 27.3973 24.1249 28.2651 23.6129 29.0394L23.1623 29.7208L23.7401 30.2983L26.0862 32.6432C25.9397 32.8116 25.7892 32.9741 25.6322 33.1306L25.6304 33.1323C25.4739 33.2891 25.3114 33.4395 25.1432 33.5858L22.7969 31.2407L22.219 30.663L21.5377 31.1143C20.7674 31.6247 19.8999 31.9959 18.9672 32.1856L18.1665 32.3484V33.1655V36.4758C17.9438 36.4913 17.722 36.5 17.5 36.5C17.2781 36.5 17.0566 36.4914 16.834 36.4759V33.166V32.3489L16.0333 32.1861C15.1008 31.9964 14.2332 31.6248 13.4624 31.1146L12.7813 30.6638L12.2036 31.2412L9.8574 33.5862C9.68919 33.4398 9.52652 33.2893 9.36961 33.1324C9.21249 32.9753 9.06151 32.8121 8.91465 32.6434L11.2604 30.2988L11.8385 29.721L11.3874 29.0395C10.8752 28.2657 10.504 27.3981 10.3144 26.4669L10.1514 25.6665H9.3345H6.02421C6.00866 25.4438 6 25.222 6 25C6 24.7781 6.00864 24.5566 6.02413 24.334H9.334H10.1509L10.3139 23.5336C10.5035 22.6027 10.8751 21.7349 11.3871 20.9606L11.8377 20.2792L11.2599 19.7017L8.91468 17.3576C9.06143 17.1894 9.21244 17.0265 9.36955 16.8692C9.52635 16.7122 9.68906 16.5613 9.85728 16.4147L12.2031 18.7593L12.781 19.337L13.4623 18.8857C14.2326 18.3753 15.1 18.0041 16.0328 17.8144L16.8335 17.6516V16.8345V13.5242C17.0562 13.5087 17.278 13.5 17.5 13.5C17.7219 13.5 17.9434 13.5086 18.166 13.5241V16.834V17.6511L18.9667 17.8139C19.8992 18.0036 20.7667 18.3752 21.5376 18.8854L22.2187 19.3362L22.7964 18.7588L25.1421 16.4143C25.3103 16.561 25.4732 16.7119 25.6304 16.8691L25.6322 16.8709C25.789 17.0269 25.9392 17.1889 26.0854 17.3566L23.7396 19.7012L23.1615 20.279L23.6126 20.9605C24.1248 21.7343 24.496 22.6019 24.6856 23.5331L24.8486 24.3335H25.6655H28.9758C28.9913 24.5562 29 24.778 29 25Z" stroke="white" stroke-width="2"/>
<path d="M40.4198 35.7954L40.6568 36.459H41.3615H43.9701C43.9902 36.6789 44.0005 36.9012 44.0005 37.1255C44.0005 37.3508 43.9902 37.5732 43.9703 37.7925H41.3615H40.6553L40.4191 38.458C40.2562 38.9171 40.0098 39.3362 39.6943 39.707L39.2374 40.2441L39.5898 40.8548L40.8797 43.09C40.5178 43.3448 40.1312 43.567 39.7229 43.7543L38.441 41.5344L38.0882 40.9235L37.3943 41.0509C37.1393 41.0978 36.8995 41.1255 36.667 41.1255C36.4359 41.1255 36.1966 41.0975 35.9374 41.0505L35.2449 40.9249L34.8929 41.5345L33.6113 43.7545C33.2028 43.5672 32.8162 43.345 32.4545 43.0902L33.7442 40.8547L34.0967 40.2436L33.6392 39.7065C33.3239 39.3364 33.0781 38.9177 32.9156 38.4587L32.6798 37.7925H31.973H29.3641C29.3442 37.5732 29.334 37.3508 29.334 37.1255C29.334 36.9012 29.3443 36.6789 29.3644 36.459H31.973H32.6777L32.9147 35.7954C33.08 35.3327 33.3253 34.9143 33.6386 34.5472L34.0972 34.0099L33.7441 33.3981L32.4548 31.1643C32.8167 30.9092 33.2031 30.6867 33.6112 30.4996L34.8915 32.717L35.2438 33.3272L35.937 33.2007C36.1963 33.1534 36.4359 33.1255 36.667 33.1255C36.8977 33.1255 37.1368 33.1537 37.3994 33.2011L38.0914 33.326L38.443 32.717L39.7233 30.4996C40.1312 30.6867 40.5177 30.9091 40.8796 31.1642L39.59 33.398L39.2365 34.0102L39.6958 34.5477C40.0093 34.9145 40.2545 35.3327 40.4198 35.7954Z" stroke="white" stroke-width="2"/>
</svg>
