<svg width="48" height="48" viewBox="0 0 48 48" fill="none" xmlns="http://www.w3.org/2000/svg">
<path d="M19.7615 13.2288L18.8735 18.384C18.8268 18.626 18.8498 18.8764 18.9399 19.1058C19.03 19.3352 19.1834 19.5344 19.3823 19.68C19.5779 19.8265 19.8105 19.9153 20.0539 19.9365C20.2974 19.9577 20.5419 19.9104 20.7599 19.8L25.5599 17.4L30.1103 19.7712C30.3275 19.8883 30.5733 19.9419 30.8195 19.926C31.0658 19.91 31.3026 19.8251 31.5029 19.6809C31.7032 19.5367 31.8588 19.339 31.9521 19.1105C32.0453 18.8821 32.0724 18.6319 32.0303 18.3888L31.1423 13.2528L34.8767 9.6C35.0522 9.42948 35.1765 9.21322 35.2355 8.9757C35.2944 8.73817 35.2857 8.48889 35.2102 8.25607C35.1348 8.02326 34.9957 7.81623 34.8086 7.65842C34.6216 7.50061 34.3941 7.39834 34.1519 7.3632L28.9439 6.6048L26.6207 1.92C26.5106 1.70181 26.3416 1.51877 26.133 1.39154C25.9243 1.26431 25.6842 1.19796 25.4399 1.2C25.1963 1.19886 24.9572 1.26562 24.7495 1.39281C24.5418 1.51999 24.3736 1.70255 24.2639 1.92L21.9359 6.6048L16.7279 7.3536C16.4833 7.38661 16.253 7.48802 16.0635 7.64615C15.8741 7.80429 15.7331 8.01271 15.6569 8.24743C15.5806 8.48215 15.5722 8.73363 15.6326 8.97292C15.693 9.2122 15.8198 9.42957 15.9983 9.6L19.7615 13.2288ZM22.5119 7.9776C22.6248 7.95872 22.7317 7.91316 22.8235 7.8447C22.9153 7.77625 22.9895 7.68687 23.0399 7.584L25.4399 2.784L27.8399 7.584C27.8916 7.68866 27.968 7.77918 28.0625 7.84775C28.157 7.91632 28.2667 7.96088 28.3823 7.9776L33.7007 8.7456L29.8607 12.4608C29.7762 12.542 29.7128 12.6426 29.676 12.7538C29.6392 12.8651 29.6301 12.9836 29.6495 13.0992L30.5567 18.3552L25.9055 15.9312C25.8037 15.879 25.691 15.8517 25.5767 15.8517C25.4623 15.8517 25.3496 15.879 25.2479 15.9312L20.3519 18.3888L21.2639 13.1088C21.2799 12.9936 21.2677 12.8762 21.2284 12.7666C21.1891 12.6571 21.1239 12.5588 21.0383 12.48L17.1983 8.7648L22.5119 7.9776Z" fill="white"/>
<path d="M45.6002 22.56C45.3591 22.2815 45.0654 22.0533 44.736 21.8886C44.4065 21.7239 44.0477 21.6258 43.6802 21.6C43.3128 21.5748 42.9441 21.6238 42.5961 21.7442C42.2481 21.8646 41.9279 22.0539 41.6546 22.3008L35.0066 28.272C34.9893 28.1393 34.9637 28.0079 34.9298 27.8784C34.8181 27.4625 34.6179 27.0756 34.3429 26.7443C34.0678 26.4129 33.7244 26.1448 33.3362 25.9584C32.1026 25.44 30.389 25.68 28.733 25.92C27.7645 26.1097 26.7752 26.171 25.7906 26.1024C25.3525 25.9925 24.9288 25.8314 24.5282 25.6224C23.2706 25.0608 21.5474 24.2928 18.341 24.9984C16.6856 25.426 15.165 26.2647 13.9202 27.4368V25.68C13.9202 25.4891 13.8444 25.3059 13.7094 25.1709C13.5743 25.0359 13.3912 24.96 13.2002 24.96H6.96023C6.76928 24.96 6.58614 25.0359 6.45112 25.1709C6.31609 25.3059 6.24023 25.4891 6.24023 25.68V39.6C6.24023 39.791 6.31609 39.9741 6.45112 40.1091C6.58614 40.2442 6.76928 40.32 6.96023 40.32H13.2002C13.3912 40.32 13.5743 40.2442 13.7094 40.1091C13.8444 39.9741 13.9202 39.791 13.9202 39.6V38.6016C14.8802 38.8272 19.2386 39.84 22.4594 39.84C25.8194 39.84 29.9282 39.072 32.4578 37.9728C37.1186 35.952 44.7938 27.2304 45.4178 26.5248C45.9585 26.0178 46.28 25.3199 46.3141 24.5795C46.3481 23.8391 46.092 23.1146 45.6002 22.56ZM12.4802 38.88H7.68023V26.4H12.4802V38.88ZM44.4194 25.4832L44.3522 25.5504C44.2706 25.6416 36.341 34.7232 31.8722 36.6576C29.5202 37.68 25.6418 38.4 22.4594 38.4C19.0994 38.4 14.141 37.1712 14.093 37.1616C14.0356 37.1546 13.9776 37.1546 13.9202 37.1616V29.4816C14.4434 28.8816 16.2914 26.9328 18.653 26.4144C21.3986 25.8144 22.7522 26.4144 23.933 26.9472C24.4425 27.1982 24.9809 27.3852 25.5362 27.504C26.6698 27.6109 27.813 27.5527 28.9298 27.3312C30.3266 27.1392 31.9106 26.9184 32.7698 27.2784C32.9546 27.3846 33.1161 27.5269 33.2447 27.6967C33.3734 27.8666 33.4665 28.0606 33.5186 28.2672C33.5884 28.5506 33.5895 28.8465 33.5218 29.1303C33.4542 29.4141 33.3198 29.6778 33.1298 29.8992C32.0354 31.368 25.3778 33.5664 22.6466 33.3504C22.4557 33.3358 22.2667 33.3976 22.1214 33.5223C21.976 33.6469 21.8861 33.8243 21.8714 34.0152C21.8568 34.2062 21.9186 34.3951 22.0433 34.5405C22.168 34.6859 22.3453 34.7758 22.5362 34.7904C22.685 34.7904 22.8482 34.7904 23.0162 34.7904C25.997 34.7904 31.6898 33.0336 33.773 31.2768L33.8258 31.248L42.581 23.376C42.8441 23.1417 43.1892 23.0209 43.541 23.04C43.7252 23.0512 43.9051 23.0995 44.0701 23.1819C44.2351 23.2644 44.3816 23.3794 44.501 23.52C44.7475 23.7926 44.8771 24.1511 44.8619 24.5183C44.8466 24.8855 44.6877 25.232 44.4194 25.4832Z" fill="white"/>
</svg>
