<svg width="48" height="48" viewBox="0 0 48 48" fill="none" xmlns="http://www.w3.org/2000/svg">
<path d="M43.4813 18.7795L44.1523 12.3638L38.2589 9.74205L35.6381 3.84861L29.2224 4.51869L24 0.734375L18.7785 4.51869L12.3638 3.84861L9.74205 9.74109L3.84861 12.3638L4.51869 18.7785L0.734375 24L4.51869 29.2205L3.84766 35.6361L9.74109 38.2579L12.3619 44.1513L18.7776 43.4813L24 47.2656L29.2214 43.4813L35.6361 44.1513L38.2579 38.2589L44.1513 35.6361L43.4813 29.2214L47.2656 24L43.4813 18.7795ZM42.0969 34.4496L36.8035 36.8045L34.4486 42.0969L28.6896 41.496L24 44.8944L19.3104 41.496L13.5504 42.0969L11.1955 36.8035L5.90302 34.4496L6.50397 28.6905L3.10557 24L6.50493 19.3104L5.90398 13.5504L11.1974 11.1955L13.5523 5.90302L19.3113 6.50397L24 3.10557L28.6896 6.50397L34.4496 5.90302L36.8045 11.1965L42.0969 13.5504L41.496 19.3094L44.8944 24L41.495 28.6896L42.0969 34.4496Z" fill="white"/>
<path d="M20.1604 30.3226L14.1192 24.2813L12.7617 25.6387L20.1604 33.0374L37.1592 16.0387L35.8017 14.6813L20.1604 30.3226Z" fill="white"/>
</svg>
