<svg width="100" height="100" viewBox="0 0 100 100" fill="none" xmlns="http://www.w3.org/2000/svg">
<path d="M81.3094 22.9136L81.665 23.909H82.722H88.389C88.462 24.511 88.5 25.1224 88.5 25.742C88.5 26.3641 88.4621 26.9754 88.3895 27.575H82.722H81.6624L81.3083 28.5737C80.9613 29.5521 80.4371 30.4421 79.7685 31.228L79.0832 32.0336L79.6117 32.9496L82.4162 37.8103C81.4427 38.5415 80.3778 39.1545 79.2362 39.638L76.448 34.809L75.9189 33.8925L74.878 34.0837C74.3466 34.1813 73.836 34.242 73.333 34.242C72.8325 34.242 72.3228 34.1807 71.7847 34.0831L70.7457 33.8947L70.2179 34.8091L67.4305 39.6382C66.2883 39.1547 65.2233 38.542 64.2504 37.8107L67.0543 32.9495L67.583 32.0328L66.8969 31.2273C66.2282 30.4423 65.7052 29.5531 65.3591 28.5747L65.0055 27.575H63.945H58.2775C58.2048 26.9754 58.167 26.3641 58.167 25.742C58.167 25.1224 58.205 24.511 58.278 23.909H63.945H65.002L65.3576 22.9136C65.709 21.9298 66.2307 21.0402 66.8959 20.2608L67.5838 19.4549L67.0541 18.5372L64.2505 13.6798C65.2239 12.9475 66.2888 12.3338 67.43 11.8515L70.215 16.675L70.7435 17.5903L71.7832 17.4006C72.3202 17.3027 72.8312 17.242 73.333 17.242C73.8346 17.242 74.3444 17.3033 74.8866 17.4012L75.9246 17.5885L76.452 16.675L79.2369 11.8517C80.3776 12.3339 81.4424 12.9476 82.4162 13.6799L79.612 18.537L79.0817 19.4554L79.7707 20.2615C80.4365 21.0405 80.958 21.9299 81.3094 22.9136Z" stroke="white" stroke-width="3"/>
<path d="M58.5 50C58.5 50.612 58.468 51.2208 58.4133 51.832H51.332H50.1067L49.8622 53.0326C49.4695 54.9605 48.7004 56.7554 47.6429 58.3546L46.9669 59.3767L47.8336 60.2429L52.8524 65.2592C52.4586 65.7305 52.0508 66.1835 51.6173 66.6154L51.6147 66.618C51.1827 67.0505 50.7302 67.4581 50.2595 67.8516L45.2404 62.8351L44.3734 61.9686L43.3516 62.6455C41.7598 63.7 39.9654 64.4683 38.034 64.8611L36.833 65.1054V66.331V73.4132C36.2215 73.468 35.6123 73.5 35 73.5C34.388 73.5 33.7792 73.468 33.168 73.4135V66.332V65.1064L31.967 64.8621C30.036 64.4694 28.2414 63.7002 26.6489 62.6462L25.6272 61.9699L24.7606 62.8361L19.7417 67.8525C19.2712 67.4589 18.8185 67.0512 18.3857 66.6183C17.9526 66.1853 17.5436 65.7313 17.1491 65.2597L22.1674 60.2439L23.0344 59.3773L22.3578 58.3551C21.2998 56.7566 20.5315 54.9619 20.1388 53.0336L19.8943 51.833H18.669H11.5868C11.532 51.2215 11.5 50.6123 11.5 50C11.5 49.388 11.532 48.7792 11.5865 48.168H18.668H19.8933L20.1378 46.9674C20.5305 45.0395 21.2996 43.2446 22.3571 41.6454L23.0331 40.6233L22.1664 39.7571L17.1487 34.7419C17.543 34.2718 17.9523 33.8186 18.3853 33.385C18.8178 32.952 19.2707 32.5432 19.7411 32.149L24.7596 37.1649L25.6266 38.0314L26.6484 37.3545C28.2402 36.3 30.0346 35.5317 31.966 35.1389L33.167 34.8946V33.669V26.5868C33.7785 26.532 34.3877 26.5 35 26.5C35.612 26.5 36.2208 26.532 36.832 26.5865V33.668V34.8936L38.033 35.1379C39.964 35.5306 41.7586 36.2998 43.3511 37.3538L44.3728 38.0301L45.2394 37.1639L50.2577 32.1481C50.7279 32.5423 51.181 32.9513 51.6143 33.3847L51.617 33.3873C52.0502 33.8184 52.4577 34.2701 52.8511 34.7401L47.8326 39.7561L46.9656 40.6227L47.6422 41.6449C48.7002 43.2434 49.4685 45.0381 49.8612 46.9664L50.1057 48.167H51.331H58.4132C58.468 48.7785 58.5 49.3877 58.5 50Z" stroke="white" stroke-width="3"/>
<path d="M81.3094 71.4226L81.665 72.418H82.722H88.3889C88.462 73.0205 88.5 73.6318 88.5 74.251C88.5 74.8733 88.4621 75.4851 88.3894 76.085H82.722H81.6627L81.3084 77.0833C80.9612 78.0614 80.4369 78.9524 79.7685 79.7381L79.0831 80.5436L79.6118 81.4597L82.4162 86.3197C81.4429 87.051 80.3779 87.6637 79.2362 88.1472L76.448 83.3189L75.9188 82.4026L74.878 82.5937C74.3485 82.691 73.8373 82.751 73.333 82.751C72.8311 82.751 72.3209 82.6904 71.7847 82.5931L70.7458 82.4047L70.2179 83.3191L67.4305 88.1473C66.2881 87.664 65.2231 87.0515 64.2503 86.3201L67.0543 81.4596L67.5831 80.5429L66.8969 79.7373C66.2284 78.9526 65.7052 78.0623 65.359 77.0844L65.0051 76.085H63.945H58.2775C58.2049 75.4851 58.167 74.8733 58.167 74.251C58.167 73.6318 58.205 73.0205 58.2781 72.418H63.945H65.002L65.3576 71.4226C65.709 70.4389 66.2307 69.5492 66.8959 68.7699L67.5838 67.9639L67.0541 67.0462L64.2507 62.1891C65.2241 61.4572 66.289 60.8435 67.4302 60.3609L70.215 65.1841L70.7435 66.0994L71.7832 65.9097C72.3202 65.8117 72.8312 65.751 73.333 65.751C73.8346 65.751 74.3444 65.8124 74.8866 65.9102L75.9246 66.0975L76.452 65.1841L79.2368 60.361C80.3777 60.8436 81.4425 61.457 82.4161 62.189L79.612 67.046L79.0817 67.9644L79.7707 68.7706C80.4365 69.5496 80.958 70.4389 81.3094 71.4226Z" stroke="white" stroke-width="3"/>
</svg>
