<svg width="100" height="100" viewBox="0 0 100 100" fill="none" xmlns="http://www.w3.org/2000/svg">
<path d="M41.1701 27.56L39.3201 38.3C39.2228 38.8042 39.2708 39.3257 39.4585 39.8037C39.6461 40.2817 39.9658 40.6966 40.3801 41C40.7876 41.3051 41.2723 41.4902 41.7795 41.5344C42.2866 41.5785 42.796 41.48 43.2501 41.25L53.2501 36.25L62.7301 41.19C63.1827 41.434 63.6947 41.5457 64.2078 41.5124C64.7208 41.4791 65.2142 41.3022 65.6314 41.0018C66.0487 40.7014 66.3729 40.2896 66.5672 39.8136C66.7615 39.3376 66.818 38.8165 66.7301 38.31L64.8801 27.61L72.6601 20C73.0259 19.6447 73.2848 19.1942 73.4076 18.6993C73.5305 18.2045 73.5123 17.6852 73.3551 17.2001C73.1979 16.7151 72.9081 16.2838 72.5184 15.955C72.1287 15.6263 71.6547 15.4132 71.1501 15.34L60.3001 13.76L55.4601 3.99997C55.2307 3.54542 54.8788 3.16408 54.4441 2.89901C54.0094 2.63395 53.5092 2.49573 53.0001 2.49997C52.4927 2.4976 51.9946 2.6367 51.5619 2.90166C51.1291 3.16662 50.7787 3.54695 50.5501 3.99997L45.7001 13.76L34.8501 15.32C34.3406 15.3888 33.8608 15.6 33.4661 15.9295C33.0714 16.2589 32.7777 16.6931 32.6189 17.1821C32.46 17.6711 32.4425 18.195 32.5684 18.6936C32.6942 19.1921 32.9583 19.6449 33.3301 20L41.1701 27.56ZM46.9001 16.62C47.1355 16.5806 47.3581 16.4857 47.5494 16.3431C47.7407 16.2005 47.8952 16.0143 48.0001 15.8L53.0001 5.79997L58.0001 15.8C58.1079 16.018 58.267 16.2066 58.4639 16.3495C58.6608 16.4923 58.8894 16.5851 59.1301 16.62L70.2101 18.22L62.2101 25.96C62.0341 26.1291 61.902 26.3387 61.8253 26.5705C61.7486 26.8022 61.7297 27.0492 61.7701 27.29L63.6601 38.24L53.9701 33.19C53.7582 33.0812 53.5234 33.0244 53.2851 33.0244C53.0469 33.0244 52.8121 33.0812 52.6001 33.19L42.4001 38.31L44.3001 27.31C44.3335 27.0699 44.3081 26.8253 44.2262 26.5972C44.1444 26.369 44.0085 26.1641 43.8301 26L35.8301 18.26L46.9001 16.62Z" fill="white"/>
<path d="M95 47C94.4977 46.4198 93.8858 45.9444 93.1994 45.6012C92.513 45.258 91.7656 45.0537 91 45C90.2346 44.9474 89.4664 45.0495 88.7414 45.3004C88.0163 45.5512 87.3492 45.9456 86.78 46.46L72.93 58.9C72.8939 58.6236 72.8405 58.3497 72.77 58.08C72.5373 57.2136 72.1201 56.4076 71.5471 55.7172C70.9741 55.0268 70.2588 54.4684 69.45 54.08C66.88 53 63.31 53.5 59.86 54C57.8422 54.3951 55.7812 54.5229 53.73 54.38C52.8172 54.151 51.9344 53.8153 51.1 53.38C48.48 52.21 44.89 50.61 38.21 52.08C34.7612 52.9708 31.5932 54.7182 29 57.16V53.5C29 53.1022 28.842 52.7207 28.5607 52.4394C28.2794 52.1581 27.8978 52 27.5 52H14.5C14.1022 52 13.7206 52.1581 13.4393 52.4394C13.158 52.7207 13 53.1022 13 53.5V82.5C13 82.8978 13.158 83.2794 13.4393 83.5607C13.7206 83.842 14.1022 84 14.5 84H27.5C27.8978 84 28.2794 83.842 28.5607 83.5607C28.842 83.2794 29 82.8978 29 82.5V80.42C31 80.89 40.08 83 46.79 83C53.79 83 62.35 81.4 67.62 79.11C77.33 74.9 93.32 56.73 94.62 55.26C95.7463 54.2037 96.4162 52.7497 96.4871 51.2072C96.5581 49.6647 96.0246 48.1553 95 47ZM26 81H16V55H26V81ZM92.54 53.09L92.4 53.23C92.23 53.42 75.71 72.34 66.4 76.37C61.5 78.5 53.42 80 46.79 80C39.79 80 29.46 77.44 29.36 77.42C29.2404 77.4055 29.1196 77.4055 29 77.42V61.42C30.09 60.17 33.94 56.11 38.86 55.03C44.58 53.78 47.4 55.03 49.86 56.14C50.9213 56.6628 52.0431 57.0524 53.2 57.3C55.5617 57.5228 57.9432 57.4015 60.27 56.94C63.18 56.54 66.48 56.08 68.27 56.83C68.6549 57.0512 68.9913 57.3476 69.2593 57.7015C69.5273 58.0554 69.7214 58.4596 69.83 58.89C69.9753 59.4803 69.9775 60.0967 69.8367 60.6881C69.6958 61.2794 69.4158 61.8286 69.02 62.29C66.74 65.35 52.87 69.93 47.18 69.48C46.7822 69.4495 46.3885 69.5783 46.0857 69.838C45.7828 70.0978 45.5955 70.4672 45.565 70.865C45.5345 71.2628 45.6633 71.6565 45.923 71.9594C46.1828 72.2622 46.5522 72.4495 46.95 72.48C47.26 72.48 47.6 72.48 47.95 72.48C54.16 72.48 66.02 68.82 70.36 65.16L70.47 65.1L88.71 48.7C89.2581 48.2118 89.9771 47.9602 90.71 48C91.0936 48.0233 91.4685 48.1238 91.8122 48.2957C92.1559 48.4675 92.4613 48.7071 92.71 49C93.2235 49.5679 93.4935 50.3148 93.4617 51.0798C93.4299 51.8448 93.0989 52.5667 92.54 53.09Z" fill="white"/>
</svg>
