<svg width="100" height="100" viewBox="0 0 100 100" fill="none" xmlns="http://www.w3.org/2000/svg">
<path d="M84.8401 75.49L56.2501 45.87L73.7401 28.38L76.9201 31.56C77.0616 31.7018 77.2301 31.8137 77.4156 31.8893C77.601 31.9649 77.7998 32.0025 78.0001 32H78.1701C78.3943 31.9737 78.6096 31.897 78.8001 31.7758C78.9906 31.6546 79.1512 31.492 79.2701 31.3L85.7901 20.87C85.9712 20.579 86.0471 20.2347 86.0053 19.8944C85.9634 19.5542 85.8063 19.2385 85.5601 19L81.0001 14.44C80.7598 14.1994 80.4448 14.0475 80.1068 14.0093C79.7689 13.9712 79.428 14.049 79.1401 14.23L68.7101 20.75C68.5189 20.8693 68.357 21.0302 68.2365 21.2206C68.116 21.411 68.0399 21.6262 68.014 21.85C67.9881 22.0739 68.0129 22.3007 68.0866 22.5137C68.1604 22.7266 68.2812 22.9202 68.4401 23.08L71.6201 26.26L54.1701 43.71L40.8501 29.92C42.008 27.2684 42.3919 24.3432 41.9573 21.4826C41.5227 18.622 40.2875 15.9428 38.3943 13.7547C36.5011 11.5666 34.0274 9.95892 31.259 9.11754C28.4906 8.27616 25.5406 8.23542 22.7501 9.00004C22.4989 9.06905 22.27 9.20228 22.086 9.3866C21.902 9.57093 21.7691 9.79999 21.7005 10.0513C21.6319 10.3025 21.6299 10.5673 21.6947 10.8196C21.7595 11.0719 21.8888 11.3029 22.0701 11.49L28.3101 18L26.6801 23.74L20.9201 25.19L14.6901 18.74C14.5089 18.553 14.2821 18.4164 14.0321 18.3437C13.7821 18.2709 13.5174 18.2645 13.2641 18.325C13.0109 18.3856 12.7778 18.511 12.5877 18.689C12.3976 18.8669 12.2571 19.0913 12.1801 19.34C11.3721 21.9685 11.2826 24.7653 11.9209 27.44C12.5593 30.1148 13.9022 32.5698 15.8101 34.55C17.9065 36.7278 20.6033 38.2328 23.5574 38.8739C26.5115 39.5149 29.5895 39.263 32.4001 38.15L45.3401 51.54L37.3401 59.54L35.2001 57.4C34.9188 57.1191 34.5376 56.9614 34.1401 56.9614C33.7426 56.9614 33.3613 57.1191 33.0801 57.4L12.4401 78C12.1592 78.2813 12.0014 78.6625 12.0014 79.06C12.0014 79.4575 12.1592 79.8388 12.4401 80.12L18.8401 86.52C19.1213 86.8009 19.5026 86.9587 19.9001 86.9587C20.2976 86.9587 20.6788 86.8009 20.9601 86.52L41.5601 66C41.841 65.7188 41.9987 65.3375 41.9987 64.94C41.9987 64.5425 41.841 64.1613 41.5601 63.88L39.4201 61.7L47.4201 53.7L76.4201 83.7C76.9562 84.2598 77.5983 84.7072 78.3091 85.0162C79.0199 85.3253 79.7851 85.4897 80.5601 85.5H80.6601C82.1929 85.503 83.6655 84.9032 84.7601 83.83C85.8712 82.7318 86.5031 81.2388 86.5181 79.6765C86.5331 78.1143 85.9299 76.6094 84.8401 75.49ZM79.7201 17.4L82.6001 20.28L77.7101 28.1L71.9001 22.29L79.7201 17.4ZM19.9001 83.4L15.6201 79.1L34.1001 60.62L38.3801 64.9L19.9001 83.4ZM82.6201 81.7C82.0716 82.233 81.3348 82.5277 80.5701 82.52C79.8132 82.503 79.094 82.1865 78.5701 81.64L33.8301 35.3C33.6098 35.0746 33.3241 34.9243 33.0135 34.8705C32.703 34.8166 32.3834 34.862 32.1001 35C29.7796 36.1089 27.1691 36.4593 24.6383 36.0016C22.1076 35.5439 19.7852 34.3014 18.0001 32.45C16.7854 31.1893 15.8517 29.6855 15.2605 28.0377C14.6692 26.3898 14.4339 24.6354 14.5701 22.89L19.4001 27.89C19.5841 28.0802 19.8152 28.2183 20.0698 28.2903C20.3245 28.3623 20.5937 28.3657 20.8501 28.3L28.2901 26.43C28.5408 26.3702 28.772 26.2468 28.9611 26.0716C29.1503 25.8965 29.2912 25.6755 29.3701 25.43L31.4701 18.03C31.542 17.778 31.5466 17.5114 31.4834 17.257C31.4203 17.0026 31.2915 16.7692 31.1101 16.58L26.2701 11.58C28.4318 11.4852 30.5805 11.9605 32.5006 12.9582C34.4207 13.9559 36.0447 15.441 37.2097 17.2645C38.3746 19.0879 39.0397 21.1857 39.138 23.3473C39.2364 25.5089 38.7646 27.6583 37.7701 29.58C37.6345 29.8506 37.5838 30.1558 37.6249 30.4557C37.6659 30.7555 37.7967 31.0359 38.0001 31.26L82.6801 77.57C83.2138 78.1247 83.507 78.8677 83.4957 79.6374C83.4845 80.4071 83.1698 81.1412 82.6201 81.68V81.7Z" fill="white"/>
</svg>
